<svg xmlns="http://www.w3.org/2000/svg" width="100" height="108" viewBox="0 0 100 108" fill="none">
  <path fill-rule="evenodd" clip-rule="evenodd" d="M92.8739 52.5594H80.0046C79.3394 52.5594 78.8021 52.0385 78.8021 51.3936C78.8021 50.7487 79.3394 50.2278 80.0046 50.2278H92.8739C94.9975 50.2278 96.7373 48.5412 96.7373 46.4825C96.7373 45.3415 96.2 44.2501 95.2789 43.5308C94.8696 43.2084 94.7161 42.6875 94.8952 42.2162C95.3301 40.976 95.0742 39.6366 94.2299 38.6196C93.36 37.6027 92.1064 37.1066 90.7504 37.2802C90.1363 37.3546 89.5735 36.9826 89.4199 36.3873C88.985 34.7254 87.4499 33.5596 85.6845 33.5348C85.0193 33.5348 84.482 33.014 84.482 32.3443C84.482 31.6994 85.0449 31.1785 85.6845 31.1785C88.243 31.1785 90.4689 32.6667 91.4412 34.8742C93.2577 34.9239 94.9463 35.7424 96.0977 37.1066C97.3002 38.5452 97.7607 40.3807 97.4025 42.1666C98.5538 43.3076 99.1935 44.8206 99.1935 46.4081C99.1935 49.7814 96.3791 52.5098 92.8995 52.5098L92.8739 52.5594Z" fill="#D0E957"/>
  <path fill-rule="evenodd" clip-rule="evenodd" d="M38.6336 73.1964H25.8154C22.3358 73.1964 19.5215 70.4679 19.5215 67.0946C19.5215 65.0607 20.5449 63.2004 22.2591 62.0594C22.1823 60.596 22.6429 59.1574 23.5639 57.9916C24.6641 56.6026 26.3527 55.7344 28.1693 55.6352C28.8345 55.6104 29.4229 56.0817 29.4485 56.7514C29.4997 57.3963 28.988 57.9668 28.3228 57.9916C27.197 58.066 26.1736 58.5869 25.5084 59.4302C24.8176 60.2983 24.5618 61.3897 24.7664 62.4563C24.8688 62.9772 24.6129 63.498 24.1268 63.7461C22.7964 64.391 21.9777 65.6808 21.9777 67.0946C21.9777 69.1533 23.7174 70.84 25.841 70.84H38.6591C39.3244 70.84 39.8616 71.3609 39.8616 72.0058C39.8616 72.6507 39.3244 73.1716 38.6591 73.1716L38.6336 73.1964Z" fill="#D0E957"/>
  <path d="M52.0655 0.0248035C37.4309 0.0248035 27.9644 4.96078 21.4146 16.0233C21.2867 16.2465 21.2355 16.5194 21.2611 16.7674C20.0074 19.3718 17.9606 24.2086 17.3721 29.591C17.3466 29.6902 17.321 29.7895 17.321 29.8887C17.321 30.0871 17.321 30.2607 17.321 30.4344C17.2442 31.3273 17.2186 32.245 17.2442 33.1628H17.3466C17.7815 45.8872 22.8985 52.1626 28.3226 58.7604C32.7744 64.1925 37.3797 69.7981 40.2196 79.6205C40.3731 80.1165 40.8337 80.4886 41.3966 80.4886H42.5991L45.439 89.3932H42.0106C41.3454 89.3932 40.8081 89.9141 40.8081 90.559V95.3461C40.8081 95.991 41.3454 96.5119 42.0106 96.5119H42.9061V103.854C42.9061 105.937 44.6459 107.624 46.795 107.624H57.464C59.6132 107.624 61.3529 105.937 61.3529 103.854V96.5119H62.2484C62.9136 96.5119 63.4509 95.991 63.4509 95.3461V90.559C63.4509 89.9141 62.9136 89.3932 62.2484 89.3932H58.82L61.66 80.4886H62.8625C63.3997 80.4886 63.8859 80.1413 64.0394 79.6205C66.9049 69.7981 71.4846 64.1925 75.9364 58.7604C81.5908 51.8649 86.938 45.3415 86.938 31.4265C86.938 12.9228 68.5935 0 52.1423 0L52.0655 0.0248035Z" fill="#212746"/>
  <path d="M58.1805 2.9764C75.3993 20.6616 69.7962 36.9577 62.7091 57.5449C60.4576 64.0932 58.1294 70.8646 56.4152 78.1322H53.2682V2.3811C54.9056 2.45552 56.5431 2.65395 58.1805 2.9764Z" fill="white"/>
  <path d="M50.8632 2.381V78.132H47.7162C46.002 70.9141 43.6993 64.1675 41.4734 57.6192C34.6422 37.6521 28.7576 20.3886 45.9508 2.67865C47.5115 2.50502 49.1234 2.40581 50.8376 2.3562L50.8632 2.381Z" fill="white"/>
  <path d="M42.2667 78.157C39.2477 68.3843 34.4377 62.5305 30.1905 57.3217C24.5618 50.4511 19.7006 44.5477 19.7006 31.4513C19.7006 30.98 19.7006 30.5087 19.7262 30.0127C19.7262 29.8886 19.7262 29.7646 19.675 29.6654C20.4682 23.0924 23.5384 17.2635 24.178 16.1225C28.6043 9.15259 34.2586 5.08476 42.1132 3.37329C35.2564 11.2361 32.1094 19.4462 32.2118 29.0205C32.3397 38.446 35.6402 48.1443 39.1453 58.4131C41.2945 64.7381 43.546 71.2615 45.209 78.1818H42.2411L42.2667 78.157Z" fill="white"/>
  <path d="M45.1066 80.4888H50.8632V89.4182H47.9465L45.1066 80.4888Z" fill="white"/>
  <path d="M58.8713 103.879C58.8713 104.647 58.2061 105.292 57.413 105.292H46.744C45.9509 105.292 45.2856 104.647 45.2856 103.879V96.5366H58.8713V103.879Z" fill="#D0E957"/>
  <path d="M60.9693 91.7498V94.1805H60.0738H44.0832H43.2133V91.7498H60.9949H60.9693Z" fill="#D0E957"/>
  <path d="M56.1848 89.4182H53.2937V80.4888H59.0504L56.1848 89.4182Z" fill="white"/>
  <path d="M73.941 57.322C69.6939 62.506 64.8839 68.3845 61.8648 78.1573H58.897C60.5856 71.1874 62.8115 64.664 65.0118 58.3142C71.7151 38.8183 77.5485 21.8276 62.4533 4.11768C74.1969 8.01189 84.4309 18.1815 84.4309 31.4516C84.4309 44.548 79.5697 50.4761 73.941 57.322Z" fill="white"/>
  <path fill-rule="evenodd" clip-rule="evenodd" d="M21.2101 31.1288H6.29394C2.81436 31.1288 0 28.4004 0 25.0271C0 23.4148 0.639628 21.9018 1.79096 20.7608C1.40718 18.9749 1.86771 17.1395 3.0958 15.7008C4.27271 14.3118 5.96133 13.5181 7.75229 13.4685C8.72452 11.2609 10.976 9.77271 13.5345 9.77271C16.1442 9.77271 18.4469 11.3105 19.3935 13.6173C20.903 13.8157 22.3102 14.5599 23.308 15.7504C24.357 16.9658 24.8687 18.4789 24.7664 20.0167C26.4806 21.1329 27.504 22.9932 27.504 25.0519C27.504 28.4252 24.6896 31.1537 21.2101 31.1537V31.1288Z" fill="#D0E957"/>
  <path fill-rule="evenodd" clip-rule="evenodd" d="M7.93127 15.7998C6.77994 15.7998 5.70536 16.2959 4.9634 17.1888C4.11909 18.2058 3.86324 19.5452 4.29818 20.7854C4.47728 21.2566 4.29818 21.7775 3.91441 22.0752C2.99334 22.7945 2.45605 23.861 2.45605 25.0268C2.45605 27.0856 4.19584 28.7722 6.31941 28.7722H21.2355C23.3591 28.7722 25.0989 27.0856 25.0989 25.0268C25.0989 23.5882 24.2801 22.2984 22.9497 21.6783C22.4636 21.4303 22.2078 20.9094 22.3101 20.3885C22.5404 19.2723 22.2333 18.1313 21.4658 17.2384C20.7238 16.3703 19.6492 15.899 18.5235 15.899C17.9606 15.899 17.4745 15.5269 17.3466 14.9813C16.9372 13.2946 15.3765 12.104 13.5856 12.104C11.7946 12.104 10.2595 13.2698 9.82457 14.9565C9.67106 15.5269 9.10818 15.9238 8.49414 15.8494C8.31504 15.8494 8.13595 15.8246 7.98244 15.8246L7.93127 15.7998Z" fill="white"/>
</svg>




