<svg preserveAspectRatio="none" width="100%" height="100%" overflow="visible" style="display: block;" viewBox="0 0 28 31" fill="none" xmlns="http://www.w3.org/2000/svg">
<g id="fi-rs-gem" clip-path="url(#clip0_0_167)">
<path id="Vector" d="M24.9738 9.33617C24.6483 8.84542 24.2233 8.4462 23.7329 8.17069C23.2424 7.89518 22.7004 7.75107 22.1505 7.75H5.84984C5.29991 7.75107 4.7579 7.89518 4.26749 8.17069C3.77708 8.4462 3.352 8.84542 3.0265 9.33617L0.638336 12.9438C0.135817 13.7005 -0.100608 14.6339 -0.0267474 15.5696C0.0471136 16.5052 0.426205 17.3791 1.03967 18.0278L14.0002 30.9109L27.0038 17.9839C27.6019 17.333 27.9675 16.4649 28.0333 15.5392C28.0991 14.6136 27.8607 13.6928 27.362 12.9464L24.9738 9.33617ZM8.52734 16.7917L11.2165 24.6708L3.2855 16.7917H8.52734ZM16.9787 16.7917L14.0002 25.5195L11.0217 16.7917H16.9787ZM11.0567 14.2083L12.4567 10.3333H15.5437L16.9437 14.2083H11.0567ZM19.473 16.7917H24.7125L16.7792 24.6708L19.473 16.7917ZM23.0897 10.8616L25.3075 14.2083H19.4567L18.0567 10.3333H22.1505C22.3339 10.3333 22.5147 10.3811 22.6783 10.4729C22.8419 10.5646 22.9836 10.6978 23.092 10.8616H23.0897ZM4.906 10.8616C5.01462 10.6975 5.15673 10.5641 5.32075 10.4723C5.48476 10.3805 5.66605 10.3329 5.84984 10.3333H9.94367L8.54367 14.2083H2.69284L4.906 10.8616Z" fill="var(--fill-0, #D0E957)"/>
<path id="Vector_2" d="M15.1669 -1.07505e-05H12.8335V5.16666H15.1669V-1.07505e-05Z" fill="var(--fill-0, #D0E957)"/>
<path id="Vector_3" d="M21.1831 0.735752L18.85 4.79553L20.8193 6.18278L23.1524 2.123L21.1831 0.735752Z" fill="var(--fill-0, #D0E957)"/>
<path id="Vector_4" d="M6.81763 0.747038L4.84928 2.1343L7.18239 6.19206L9.15074 4.8048L6.81763 0.747038Z" fill="var(--fill-0, #D0E957)"/>
</g>
<defs>
<clipPath id="clip0_0_167">
<rect width="28" height="31" fill="white"/>
</clipPath>
</defs>
</svg>
