<svg width="102" height="52" viewBox="0 0 102 52" fill="none" xmlns="http://www.w3.org/2000/svg">
<path d="M0 11.4477C0 5.13515 5.14187 0 11.4627 0C14.6149 0 17.5223 1.26723 19.6327 3.4431C19.9774 3.79908 20.192 4.28289 20.192 4.81785C20.192 5.8989 19.3143 6.7754 18.2319 6.7754C17.6713 6.7754 17.1652 6.54005 16.8081 6.16309C15.4072 4.68476 13.5311 3.82661 11.4627 3.82661C7.33634 3.82661 3.99573 7.22841 3.99573 11.4477C3.99573 15.667 7.33634 19.0688 11.4627 19.0688C13.5311 19.0688 15.4072 18.2107 16.8081 16.7323C17.1652 16.3554 17.6706 16.1207 18.2319 16.1207C19.3143 16.1207 20.192 16.9972 20.192 18.0782C20.192 18.6125 19.9774 19.097 19.6327 19.4523C17.5223 21.6282 14.6149 22.8954 11.4627 22.8954C5.14187 22.8954 0 17.7603 0 11.4477Z" fill="#212746"/>
<path d="M39.1067 8.30748V20.6061C39.1067 21.6898 38.2264 22.5683 37.1413 22.5683C36.0562 22.5683 35.176 21.6898 35.176 20.6061V20.5806C33.7974 22.0156 31.9305 22.8961 29.8706 22.8961C25.6077 22.8961 22.1746 19.1278 22.1746 14.4739C22.1746 9.8199 25.6084 6.01886 29.8706 6.01886C31.9305 6.01886 33.7974 6.8993 35.176 8.3383V8.30814C35.176 7.22447 36.0556 6.34599 37.1413 6.34599C38.2271 6.34599 39.1067 7.22447 39.1067 8.30814V8.30748ZM35.2744 14.466C35.2744 11.8325 33.229 9.71436 30.6892 9.71436C28.1494 9.71436 26.104 11.8325 26.104 14.466C26.104 17.0994 28.1494 19.1993 30.6892 19.1993C33.229 19.1993 35.2744 17.0811 35.2744 14.466Z" fill="#212746"/>
<path d="M52.5906 8.02426C52.5906 9.03122 51.8482 9.86446 50.8806 10.0113C48.6697 10.3483 46.64 12.0167 46.64 15.2704V20.6055C46.64 21.6891 45.7604 22.5676 44.6746 22.5676C43.5889 22.5676 42.7092 21.6891 42.7092 20.6055V8.30681C42.7092 7.22314 43.5889 6.34466 44.6746 6.34466C45.6304 6.34466 46.4273 7.02646 46.6032 7.92985C47.7605 6.77866 49.2106 6.01294 50.576 6.01294C51.688 6.01294 52.5893 6.9137 52.5893 8.0236L52.5906 8.02426Z" fill="#212746"/>
<path d="M58.9448 15.8047C59.143 16.9513 59.5677 17.7616 60.2196 18.2356C60.9154 18.7646 61.7431 19.0295 62.7035 19.0295C63.8628 19.0295 64.9557 18.7758 65.9824 18.269C66.6224 17.9379 67.1804 18.0101 67.655 18.484L68.2347 19.0629C68.5767 19.3828 68.7454 19.7709 68.7401 20.2285C68.7342 20.6861 68.5386 21.0421 68.1526 21.2952C66.8384 22.1441 65.0227 22.5683 62.7048 22.5683C60.2648 22.5683 58.2726 21.7967 56.7273 20.2535C55.1814 18.7102 54.4094 16.7258 54.4094 14.3001C54.4094 11.8745 55.1821 9.89072 56.7273 8.34683C58.2726 6.8036 60.2648 6.03198 62.7048 6.03198C65.1448 6.03198 67.0373 6.8036 68.4841 8.34683C69.9184 9.87957 70.6366 11.8634 70.6366 14.3001C70.6366 14.7302 70.4928 15.0888 70.2059 15.3753C69.9191 15.6624 69.5547 15.8053 69.1136 15.8053H58.9467L58.9448 15.8047ZM65.154 10.364C64.4588 9.83499 63.6416 9.57014 62.7035 9.57014C61.7655 9.57014 60.9154 9.83434 60.2196 10.364C59.546 10.8715 59.1876 11.6811 59.143 12.7949H66.2463C66.2023 11.6706 65.838 10.8603 65.1533 10.364H65.154Z" fill="#212746"/>
<path d="M77.082 15.8388C77.2796 16.9795 77.7024 17.7858 78.3503 18.2572C79.0421 18.7836 79.866 19.0472 80.8217 19.0472C81.9751 19.0472 83.0628 18.7948 84.0842 18.2906C84.721 17.9615 85.2757 18.033 85.7483 18.5043L86.3247 19.0806C86.6654 19.3992 86.8327 19.7853 86.8275 20.2403C86.8216 20.6959 86.6273 21.0493 86.2426 21.3017C84.935 22.1467 83.1285 22.5683 80.8224 22.5683C78.3949 22.5683 76.4125 21.8006 74.8751 20.2646C73.337 18.7292 72.5684 16.7546 72.5684 14.3414C72.5684 11.9282 73.337 9.95429 74.8751 8.41827C76.4125 6.8829 78.3949 6.11456 80.8224 6.11456C83.2499 6.11456 85.1332 6.88225 86.5728 8.41827C87.9999 9.94314 88.7147 11.9177 88.7147 14.3414C88.7147 14.7695 88.5716 15.1261 88.2861 15.4107C88.0005 15.6958 87.6382 15.8388 87.199 15.8388H77.0833H77.082ZM83.2598 10.4256C82.5679 9.89922 81.7552 9.63568 80.8217 9.63568C79.8883 9.63568 79.0428 9.89856 78.3503 10.4256C77.68 10.9304 77.3236 11.7362 77.2796 12.8441H84.3475C84.3035 11.725 83.9411 10.9186 83.2598 10.4256Z" fill="#212746"/>
<path d="M101.74 8.02426C101.74 9.03122 100.998 9.86446 100.03 10.0113C97.8196 10.3483 95.7899 12.0167 95.7899 15.2704V20.6055C95.7899 21.6891 94.9102 22.5676 93.8245 22.5676C92.7388 22.5676 91.8591 21.6891 91.8591 20.6055V8.30681C91.8591 7.22314 92.7388 6.34466 93.8245 6.34466C94.7803 6.34466 95.5772 7.02646 95.7531 7.92985C96.9104 6.77866 98.3605 6.01294 99.7259 6.01294C100.838 6.01294 101.739 6.9137 101.739 8.0236L101.74 8.02426Z" fill="#212746"/>
<path d="M20.9397 49.0406C20.9397 50.0974 20.0818 50.9542 19.0242 50.9542H5.57974C4.47627 50.9542 3.58154 50.0607 3.58154 48.9586V30.1744C3.58154 29.0723 4.47627 28.1788 5.57974 28.1788C6.68321 28.1788 7.57728 29.0723 7.57728 30.1744V47.127H19.0236C20.0817 47.127 20.9391 47.9838 20.9391 49.0406H20.9397Z" fill="#212746"/>
<path d="M39.1067 36.6934V48.9921C39.1067 50.0757 38.2264 50.9542 37.1413 50.9542C36.0562 50.9542 35.176 50.0757 35.176 48.9921V48.9665C33.7974 50.4016 31.9305 51.282 29.8706 51.282C25.6077 51.282 22.1746 47.5137 22.1746 42.8598C22.1746 38.2058 25.6084 34.4048 29.8706 34.4048C31.9305 34.4048 33.7974 35.2852 35.176 36.7242V36.6941C35.176 35.6104 36.0556 34.7319 37.1413 34.7319C38.2271 34.7319 39.1067 35.6104 39.1067 36.6941V36.6934ZM35.2744 42.8519C35.2744 40.2185 33.229 38.1003 30.6892 38.1003C28.1494 38.1003 26.104 40.2185 26.104 42.8519C26.104 45.4854 28.1494 47.5852 30.6892 47.5852C33.229 47.5852 35.2744 45.467 35.2744 42.8519Z" fill="#212746"/>
<path d="M59.6426 42.8591C59.6426 47.5124 56.2088 51.2813 51.9465 51.2813C49.886 51.2813 48.0197 50.4016 46.6412 48.9658V48.9914C46.6412 50.0751 45.7616 50.9536 44.6758 50.9536C43.5901 50.9536 42.7104 50.0751 42.7104 48.9914V30.0209C42.7104 28.9373 43.5901 28.0588 44.6758 28.0588C45.7616 28.0588 46.6412 28.9373 46.6412 30.0209V36.7229C48.0197 35.2839 49.886 34.4035 51.9465 34.4035C56.2094 34.4035 59.6426 38.1724 59.6426 42.8585V42.8591ZM55.7125 42.8519C55.7125 40.2184 53.667 38.1003 51.1273 38.1003C48.5875 38.1003 46.5421 40.2184 46.5421 42.8519C46.5421 45.4854 48.5875 47.5852 51.1273 47.5852C53.667 47.5852 55.7125 45.467 55.7125 42.8519Z" fill="#212746"/>
</svg>
