<svg preserveAspectRatio="none" width="100%" height="100%" overflow="visible" style="display: block;" viewBox="0 0 101.868 192.173" fill="none" xmlns="http://www.w3.org/2000/svg">
<g id="freepik--Rocket--inject-114">
<path id="Vector" d="M57.5263 27.3489C55.8367 26.2737 53.6095 26.8881 51.9199 28.0401C50.2303 29.1921 48.8479 30.6513 47.0047 31.4193C43.4719 32.8017 38.8639 31.1889 36.1759 33.7233C34.4863 35.3361 34.2559 38.1009 32.9503 40.0209C30.7231 43.4001 25.3471 44.6289 24.9631 48.6225C24.6559 50.9265 26.5759 53.1537 28.8031 53.8449C31.1071 54.3825 33.5647 53.9217 35.4847 52.5393C37.7887 51.0033 39.5551 48.6993 42.1663 47.8545C44.7775 47.0097 48.0799 47.7009 50.2303 45.8577C52.3807 44.0145 51.9967 40.5585 53.5327 38.2545C54.4543 37.1025 55.5295 36.0273 56.6815 35.1057C57.8335 34.1073 58.9087 32.9553 59.0623 31.4193C59.2159 29.8833 58.6015 27.3489 57.5263 27.3489Z" fill="var(--fill-0, #F0F3FF)"/>
<path id="Vector_2" d="M14.2879 190.549C14.3647 190.472 14.6719 190.779 14.9791 191.24C15.2863 191.701 15.4399 192.085 15.3631 192.162C15.2863 192.238 14.9791 191.931 14.6719 191.47C14.3647 191.01 14.2111 190.549 14.2879 190.549Z" fill="var(--fill-0, #212746)"/>
<path id="Vector_3" d="M10.9855 183.56C11.3695 184.098 11.6767 184.635 11.9071 185.25C12.2143 185.787 12.3679 186.478 12.4447 187.093C11.7535 186.094 11.2159 184.866 10.9855 183.56Z" fill="var(--fill-0, #212746)"/>
<path id="Vector_4" d="M9.21911 176.11C9.67991 177.339 9.98711 178.568 9.91031 179.874C9.60311 179.336 9.44951 178.645 9.37271 178.03C9.14231 177.416 9.14231 176.802 9.21911 176.11Z" fill="var(--fill-0, #212746)"/>
<path id="Vector_5" d="M8.91191 168.43C9.14231 169.736 9.14231 171.042 8.83511 172.27C8.60471 171.656 8.60472 170.965 8.68152 170.35C8.68152 169.736 8.75831 169.045 8.91191 168.43Z" fill="var(--fill-0, #212746)"/>
<path id="Vector_6" d="M10.1407 160.904C10.2175 161.518 10.1407 162.21 9.91031 162.824C9.83351 163.438 9.60311 164.13 9.29591 164.667C9.21911 164.053 9.29591 163.362 9.52631 162.747C9.60311 162.133 9.83351 161.442 10.1407 160.904Z" fill="var(--fill-0, #212746)"/>
<path id="Vector_7" d="M12.9055 153.685C12.6751 154.914 12.1375 156.142 11.3695 157.218C11.4463 156.603 11.6767 155.912 11.9839 155.374C12.4447 154.376 12.8287 153.685 12.9055 153.685Z" fill="var(--fill-0, #212746)"/>
<path id="Vector_8" d="M17.1295 147.31C16.8991 147.925 16.5919 148.462 16.1311 149C15.7471 149.538 15.3631 149.998 14.8255 150.459C14.7487 150.382 15.1327 149.614 15.8239 148.77C16.5151 147.925 17.0527 147.234 17.1295 147.31Z" fill="var(--fill-0, #212746)"/>
<path id="Vector_9" d="M22.3519 141.627C22.4287 141.704 21.8911 142.395 21.1999 143.163C20.5087 143.931 19.8175 144.469 19.7407 144.392C19.6639 144.315 20.2015 143.624 20.8927 142.856C21.5839 142.088 22.2751 141.55 22.3519 141.627Z" fill="var(--fill-0, #212746)"/>
<path id="Vector_10" d="M27.7279 136.174C27.8047 136.251 27.2671 136.942 26.4991 137.71C25.7311 138.478 25.1167 139.016 25.0399 138.939C24.9631 138.862 25.5007 138.171 26.2687 137.403C27.0367 136.635 27.6511 136.098 27.7279 136.174Z" fill="var(--fill-0, #212746)"/>
<path id="Vector_11" d="M32.7967 130.338C32.5663 130.952 32.1823 131.49 31.7215 131.95C31.0303 132.795 30.4159 133.41 30.3391 133.333C30.5695 132.718 30.9535 132.181 31.4143 131.72C32.1055 130.952 32.7199 130.338 32.7967 130.338Z" fill="var(--fill-0, #212746)"/>
<path id="Vector_12" d="M36.7135 123.81C36.6367 124.424 36.4063 125.115 36.0991 125.653C35.8687 126.267 35.4847 126.805 35.0239 127.266C35.1775 126.651 35.4079 126.037 35.7919 125.499C35.9455 124.808 36.2527 124.27 36.7135 123.81Z" fill="var(--fill-0, #212746)"/>
<path id="Vector_13" d="M38.5567 116.36C38.7103 116.974 38.7103 117.666 38.4799 118.28C38.4031 118.971 38.2495 119.586 37.8655 120.123C37.7887 119.509 37.8655 118.818 38.0959 118.203C38.1727 117.589 38.3263 116.974 38.5567 116.36Z" fill="var(--fill-0, #212746)"/>
<path id="Vector_14" d="M38.0191 108.757C38.3263 109.294 38.5567 109.986 38.5567 110.6C38.7103 111.214 38.7103 111.906 38.5567 112.52C38.3263 111.906 38.1727 111.291 38.1727 110.677C38.0191 109.986 37.9423 109.371 38.0191 108.757Z" fill="var(--fill-0, #212746)"/>
<path id="Vector_15" d="M35.0239 101.691C35.1007 101.614 35.7151 102.306 36.1759 103.227C36.5599 103.765 36.7903 104.379 36.8671 105.07C36.4063 104.61 36.0991 103.995 35.8687 103.458C35.4079 102.92 35.1775 102.306 35.0239 101.691Z" fill="var(--fill-0, #212746)"/>
<path id="Vector_16" d="M29.6479 96.2385C30.2623 96.4689 30.8767 96.7761 31.3375 97.2369C32.1823 97.9281 32.7199 98.6193 32.6431 98.6961C32.5663 98.7729 31.8751 98.2353 31.1071 97.5441C30.3391 96.8529 29.5711 96.3153 29.6479 96.2385Z" fill="var(--fill-0, #212746)"/>
<path id="Vector_17" d="M22.6591 93.1665C23.3503 93.0897 23.9647 93.2433 24.5791 93.5505C25.1935 93.7041 25.8079 94.0113 26.2687 94.4721C25.6543 94.3953 24.9631 94.2417 24.4255 93.9345C23.8111 93.7041 23.1967 93.4737 22.6591 93.1665Z" fill="var(--fill-0, #212746)"/>
<path id="Vector_18" d="M15.0559 92.7825C15.6703 92.4753 16.2847 92.3217 16.9759 92.3985C17.5903 92.3217 18.2815 92.3985 18.8959 92.6289C18.2815 92.7825 17.5903 92.8593 16.9759 92.8593C16.2847 92.8593 15.6703 92.8593 15.0559 92.7825Z" fill="var(--fill-0, #212746)"/>
<path id="Vector_19" d="M7.91352 95.6241C7.83672 95.5473 8.52792 94.9329 9.44952 94.4721C9.98712 94.0881 10.6015 93.8577 11.2927 93.8577C10.7551 94.2417 10.2175 94.6257 9.67991 94.8561C9.14231 95.1633 8.52792 95.4705 7.91352 95.6241Z" fill="var(--fill-0, #212746)"/>
<path id="Vector_20" d="M2.69112 101.154C2.84472 100.539 3.15191 99.9249 3.61271 99.4641C4.30391 98.6193 4.91832 98.0817 4.99512 98.1585C5.07192 98.2353 4.53431 98.9265 3.91991 99.7713C3.30551 100.616 2.76792 101.154 2.69112 101.154Z" fill="var(--fill-0, #212746)"/>
<path id="Vector_21" d="M0.0799091 108.296C-0.0736909 107.682 0.00311849 106.99 0.233518 106.376C0.310318 105.685 0.617518 105.07 1.00152 104.61C1.00152 105.224 0.847918 105.915 0.617518 106.53C0.540718 107.144 0.387109 107.758 0.0799091 108.296Z" fill="var(--fill-0, #212746)"/>
<path id="Vector_22" d="M1.00152 115.899C0.617518 115.362 0.310318 114.747 0.233518 114.133C0.00311849 113.518 -0.0736909 112.827 0.0799091 112.213C0.310309 112.827 0.540718 113.442 0.617518 114.056C0.847918 114.594 0.924718 115.208 1.00152 115.899Z" fill="var(--fill-0, #212746)"/>
<path id="Vector_23" d="M4.84152 122.427C4.76472 122.504 4.15032 121.89 3.45912 121.045C2.99832 120.584 2.69112 119.97 2.53752 119.355C2.61432 119.278 3.15191 119.97 3.76631 120.814C4.30391 121.275 4.61112 121.89 4.84152 122.427Z" fill="var(--fill-0, #212746)"/>
<path id="Vector_24" d="M10.5247 127.65C9.91031 127.419 9.37271 127.112 8.91191 126.651C8.06711 125.96 7.52951 125.346 7.60631 125.269C8.22071 125.576 8.75832 125.883 9.21912 126.344C9.98712 126.958 10.6015 127.573 10.5247 127.65Z" fill="var(--fill-0, #212746)"/>
<path id="Vector_25" d="M17.2063 131.413C15.9775 131.106 14.8255 130.491 13.7503 129.646C14.3647 129.723 14.9791 129.954 15.5935 130.338C16.2079 130.645 16.7455 131.029 17.2063 131.413Z" fill="var(--fill-0, #212746)"/>
<path id="Vector_26" d="M24.5023 133.794C23.8879 133.87 23.1967 133.794 22.5823 133.563C21.9679 133.486 21.3535 133.179 20.8159 132.872C21.4303 132.872 22.1215 133.026 22.7359 133.179C23.3503 133.256 23.9647 133.486 24.5023 133.794Z" fill="var(--fill-0, #212746)"/>
<path id="Vector_27" d="M32.1823 134.178C30.9535 134.562 29.5711 134.562 28.3423 134.254C28.9567 134.101 29.6479 134.024 30.2623 134.101C30.8767 134.024 31.4911 134.024 32.1823 134.178Z" fill="var(--fill-0, #212746)"/>
<path id="Vector_28" d="M39.5551 132.181C38.4799 132.949 37.2511 133.41 35.9455 133.486C36.4831 133.102 37.0975 132.872 37.7119 132.718C38.2495 132.411 38.8639 132.258 39.5551 132.181Z" fill="var(--fill-0, #212746)"/>
<path id="Vector_29" d="M45.9295 127.957C46.0063 128.034 45.3919 128.725 44.5471 129.339C44.0863 129.8 43.4719 130.107 42.8575 130.261C42.7807 130.184 43.4719 129.646 44.3167 128.955C44.8543 128.648 45.3919 128.264 45.9295 127.957Z" fill="var(--fill-0, #212746)"/>
<path id="Vector_30" d="M50.9215 122.197C50.7679 122.811 50.3839 123.426 49.9999 123.886C49.3855 124.731 48.6943 125.346 48.6175 125.269C48.5407 125.192 49.0015 124.501 49.6927 123.656C50.3839 122.811 50.8447 122.12 50.9215 122.197Z" fill="var(--fill-0, #212746)"/>
<path id="Vector_31" d="M54.3007 115.285C54.3007 115.976 54.1471 116.59 53.8399 117.128C53.4559 118.126 52.9951 118.894 52.8415 118.818C52.9183 118.203 53.1487 117.589 53.4559 116.974C53.6095 116.36 53.9167 115.822 54.3007 115.285Z" fill="var(--fill-0, #212746)"/>
<path id="Vector_32" d="M55.7599 107.758C55.9135 109.064 55.7599 110.37 55.2223 111.522C55.2223 110.293 55.3759 108.987 55.7599 107.758Z" fill="var(--fill-0, #212746)"/>
<path id="Vector_33" d="M55.5295 100.078C55.7599 100.693 55.9135 101.307 55.9135 101.998C55.9903 102.613 55.9903 103.304 55.8367 103.918C55.5295 102.69 55.3759 101.384 55.5295 100.078Z" fill="var(--fill-0, #212746)"/>
<path id="Vector_34" d="M53.9167 92.6289C54.3007 93.1665 54.5311 93.7809 54.6079 94.4721C54.8383 95.0865 54.9151 95.7009 54.9151 96.3921C54.5311 95.8545 54.3007 95.2401 54.2239 94.5489C53.9935 93.8577 53.9167 93.2433 53.9167 92.6289Z" fill="var(--fill-0, #212746)"/>
<path id="Vector_35" d="M50.9215 85.4865C50.9983 85.4097 51.4591 86.1777 51.9199 87.0993C52.2271 87.6369 52.4575 88.3281 52.5343 88.9425C51.8431 87.9441 51.3055 86.7153 50.9215 85.4865Z" fill="var(--fill-0, #212746)"/>
<path id="Vector_36" d="M47.1583 78.8049C47.2351 78.7281 47.7727 79.4193 48.3103 80.3409C48.6943 80.8785 48.9247 81.4929 49.0783 82.1073C48.6175 81.6465 48.2335 81.1857 47.9263 80.5713C47.5423 80.0337 47.3119 79.4193 47.1583 78.8049Z" fill="var(--fill-0, #212746)"/>
<path id="Vector_37" d="M43.3951 72.1233C43.4719 72.0465 44.0095 72.8145 44.4703 73.7361C44.8543 74.2737 45.0847 74.8881 45.2383 75.5025C44.7775 75.0417 44.3935 74.5041 44.1631 73.8897C43.7791 73.3521 43.4719 72.7377 43.3951 72.1233Z" fill="var(--fill-0, #212746)"/>
<path id="Vector_38" d="M40.3999 65.0577C41.0911 66.1329 41.5519 67.3617 41.7823 68.6673C41.3983 68.1297 41.0911 67.5921 40.9375 66.9009C40.5535 66.3633 40.3999 65.7489 40.3999 65.0577Z" fill="var(--fill-0, #212746)"/>
<path id="Vector_39" d="M39.0175 57.5313C39.2479 58.1457 39.3247 58.7601 39.3247 59.4513C39.4783 60.0657 39.4783 60.7569 39.4015 61.3713C39.0943 60.7569 38.9407 60.1425 38.9407 59.5281C38.8639 58.8369 38.8639 58.1457 39.0175 57.5313Z" fill="var(--fill-0, #212746)"/>
<path id="Vector_40" d="M39.7087 49.8513C39.7855 50.4657 39.7087 51.1569 39.5551 51.7713C39.5551 52.3857 39.4015 53.0769 39.0943 53.6145C38.9407 53.0001 38.9407 52.3089 39.0943 51.6945C39.1711 51.0801 39.3247 50.4657 39.7087 49.8513Z" fill="var(--fill-0, #212746)"/>
<path id="Vector_41" d="M42.1663 42.6321C42.0895 43.2465 41.8591 43.8609 41.5519 44.4753C41.3983 45.0897 41.0911 45.7041 40.7071 46.1649C40.8607 44.8593 41.3983 43.6305 42.1663 42.6321Z" fill="var(--fill-0, #212746)"/>
<path id="Vector_42" d="M46.4671 36.2577C46.5439 36.3345 46.0063 37.0257 45.3919 37.8705C44.7775 38.7153 44.1631 39.4065 44.0863 39.3297C44.2399 38.7153 44.6239 38.1009 45.0847 37.6401C45.7759 36.7953 46.3903 36.1809 46.4671 36.2577Z" fill="var(--fill-0, #212746)"/>
<path id="Vector_43" d="M52.2271 31.1889C52.3039 31.2657 51.6127 31.8033 50.7679 32.4945C50.3071 32.9553 49.7695 33.2625 49.1551 33.5697C49.0783 33.4929 49.6927 32.8017 50.5375 32.1873C51.0751 31.7265 51.6127 31.4193 52.2271 31.1889Z" fill="var(--fill-0, #212746)"/>
<path id="Vector_44" d="M59.0623 27.7329C58.5247 28.1169 57.9871 28.4241 57.3727 28.6545C56.8351 28.9617 56.2207 29.1921 55.5295 29.2689C55.4527 29.1921 56.2207 28.6545 57.2191 28.2705C57.7567 27.9633 58.4479 27.7329 59.0623 27.7329Z" fill="var(--fill-0, #212746)"/>
<path id="Vector_45" d="M64.6687 26.3505C64.6687 26.4273 64.2847 26.6577 63.7471 26.7345C63.2095 26.8113 62.8255 26.8113 62.7487 26.7345C62.6719 26.6577 63.1327 26.4273 63.6703 26.3505C64.2079 26.2737 64.6687 26.1969 64.6687 26.3505Z" fill="var(--fill-0, #212746)"/>
<path id="Vector_46" d="M80.3359 3.69448C80.3359 3.69448 89.3215 -2.75672 101.84 1.39048C101.84 1.39048 102.838 11.7585 92.8543 19.9761" fill="var(--fill-0, #9FA9FF)"/>
<path id="Vector_47" d="M51.9199 22.8177C52.3039 23.4321 62.0575 39.0993 62.0575 39.0993L91.4719 20.9745C96.3103 17.9793 97.8463 11.6817 94.8511 6.84327C94.6975 6.61287 94.5439 6.38247 94.3903 6.15207C91.0879 1.69767 84.9439 0.699275 80.4127 3.77127L51.9199 22.8177Z" fill="var(--fill-0, #9FA9FF)"/>
<path id="Vector_48" d="M62.0575 39.0993L61.3663 50.1585C61.3663 50.1585 80.4127 40.9425 75.6511 30.6513L62.0575 39.0993Z" fill="var(--fill-0, #212746)"/>
<path id="Vector_49" d="M65.5135 13.6785C65.5135 13.6785 52.6111 7.99528 41.9359 16.3665L51.8431 22.8177L65.5135 13.6785Z" fill="var(--fill-0, #212746)"/>
<path id="Vector_50" d="M65.4367 22.8177L47.0815 34.3377C47.0815 34.3377 47.6959 36.3345 48.2335 36.1809C48.7711 36.0273 62.4415 27.8865 66.9727 25.2753C67.6639 24.8913 67.8175 24.0465 67.4335 23.3553C67.4335 23.2785 67.3567 23.2017 67.2799 23.2017C66.8191 22.5873 66.0511 22.4337 65.4367 22.8177Z" fill="var(--fill-0, #212746)"/>
<path id="Vector_51" d="M82.3327 20.0529C85.5987 20.0529 88.2463 17.4053 88.2463 14.1393C88.2463 10.8733 85.5987 8.22567 82.3327 8.22567C79.0667 8.22567 76.4191 10.8733 76.4191 14.1393C76.4191 17.4053 79.0667 20.0529 82.3327 20.0529Z" fill="var(--fill-0, #F6F8FF)"/>
<path id="Vector_52" d="M88.2463 14.0625C88.1695 14.0625 88.2463 13.5249 88.0159 12.6801C87.7087 11.4513 86.9407 10.2993 85.8655 9.53128C85.1743 8.99368 84.3295 8.60967 83.4847 8.45607C82.4863 8.30247 81.4111 8.37928 80.4895 8.68648C79.4143 9.07048 78.4927 9.76168 77.8015 10.6833C76.3423 12.6801 76.3423 15.4449 77.8015 17.4417C78.4927 18.3633 79.4143 19.0545 80.4127 19.4385C81.3343 19.8225 82.4095 19.8993 83.4079 19.6689C84.2527 19.5153 85.0975 19.1313 85.7887 18.5937C86.8639 17.8257 87.6319 16.6737 87.9391 15.4449C88.1695 14.6001 88.1695 14.0625 88.2463 14.0625C88.2463 14.2161 88.2463 14.2929 88.2463 14.4465C88.2463 14.8305 88.1695 15.1377 88.0927 15.5217C87.5551 17.8257 85.7119 19.5921 83.4079 19.9761C81.1039 20.4369 78.7999 19.5153 77.4175 17.5953C75.8047 15.4449 75.8047 12.5265 77.4175 10.3761C78.1087 9.37767 79.1071 8.68648 80.2591 8.30248C82.1791 7.61128 84.3295 7.91847 85.9423 9.22407C87.0175 10.0689 87.7855 11.2209 88.0927 12.6033C88.1695 12.9873 88.2463 13.2945 88.2463 13.6785C88.2463 13.9089 88.2463 13.9857 88.2463 14.0625Z" fill="var(--fill-0, #212746)"/>
<path id="Vector_53" d="M95.3887 18.0561C95.3119 18.0561 95.2351 16.9041 94.7743 15.1377C94.5439 14.0625 94.1599 13.0641 93.7759 12.0657C92.7775 9.60807 91.3183 7.38087 89.4751 5.46087C88.7071 4.69287 87.9391 3.92487 87.0943 3.23367C85.6351 2.08167 84.6367 1.54408 84.7135 1.46728C84.9439 1.54408 85.2511 1.69768 85.4815 1.77448C85.7887 1.92808 86.0191 2.08168 86.3263 2.23528C86.6335 2.46568 87.0175 2.69608 87.4015 2.92648C88.2463 3.54088 89.0911 4.30887 89.8591 5.07687C91.7023 6.99687 93.2383 9.30088 94.2367 11.8353C94.6207 12.8337 94.9279 13.9089 95.1583 14.9841C95.2351 15.4449 95.3119 15.8289 95.3887 16.2129C95.4655 16.5201 95.4655 16.8273 95.4655 17.1345C95.3887 17.5185 95.3887 17.7489 95.3887 18.0561Z" fill="var(--fill-0, #212746)"/>
<path id="Vector_54" d="M93.7759 18.9009C93.6991 18.9009 93.6223 17.7489 93.1615 15.9057C92.8543 14.8305 92.5471 13.8321 92.0863 12.7569C91.5487 11.5281 90.9343 10.2993 90.2431 9.22407C89.4751 8.07207 88.7071 7.07368 87.7855 6.07528C87.0175 5.23048 86.2495 4.53927 85.4047 3.84807C83.9455 2.69607 82.9471 2.08167 82.9471 2.00487C83.2543 2.08167 83.4847 2.23527 83.7151 2.38887C84.0223 2.54247 84.2527 2.69608 84.5599 2.92648C84.8671 3.15688 85.2511 3.38728 85.6351 3.69448C86.5567 4.38568 87.3247 5.07687 88.0927 5.84487C89.0143 6.84327 89.8591 7.91848 90.6271 9.07048C91.3183 10.2225 92.0095 11.4513 92.4703 12.6801C92.8543 13.6785 93.2383 14.7537 93.4687 15.9057C93.5455 16.3665 93.6223 16.8273 93.6991 17.1345C93.7759 17.4417 93.7759 17.7489 93.7759 18.0561C93.8527 18.2865 93.8527 18.5937 93.7759 18.9009Z" fill="var(--fill-0, #212746)"/>
</g>
</svg>
