<svg preserveAspectRatio="none" width="100%" height="100%" overflow="visible" style="display: block;" viewBox="0 0 46.3872 62.3616" fill="none" xmlns="http://www.w3.org/2000/svg">
<g id="freepik--Gears--inject-114">
<path id="Vector" d="M34.0224 43.776C34.4064 43.8528 34.7904 43.9296 35.1744 44.16C36.9408 45.0048 38.016 46.7712 37.9392 48.6912C37.9392 49.6128 37.632 50.4576 37.1712 51.2256C36.6336 52.0704 35.8656 52.6848 34.944 53.1456C32.9472 54.0672 30.5664 53.5296 29.184 51.84C28.8768 51.456 28.5696 50.9952 28.416 50.6112C28.1856 50.1504 28.1088 49.6896 28.032 49.2288C27.9552 48.3072 28.032 47.4624 28.416 46.6176C29.184 44.8512 30.9504 43.6992 32.8704 43.6992C33.2544 43.6224 33.7152 43.6224 34.0224 43.776C34.0992 43.776 33.6384 43.6992 32.8704 43.6992C31.7952 43.776 30.72 44.16 29.952 44.8512C29.4144 45.312 28.9536 45.9264 28.6464 46.6176C28.3392 47.3856 28.1856 48.2304 28.3392 49.0752C28.416 49.536 28.4928 49.9968 28.7232 50.3808C28.8768 50.8416 29.184 51.2256 29.4912 51.6096C30.8736 53.1456 33.024 53.6832 34.944 52.8384C35.4048 52.6848 35.7888 52.3776 36.1728 52.0704C36.5568 51.7632 36.864 51.456 37.0944 51.072C38.5536 48.8448 37.8624 45.8496 35.6352 44.4672C35.4816 44.3904 35.4048 44.3136 35.2512 44.2368C34.4832 43.8528 34.0224 43.776 34.0224 43.776Z" fill="var(--fill-0, #212746)"/>
<path id="Vector_2" d="M37.9392 38.5536C37.9392 38.4768 37.9392 38.4768 37.9392 38.4C37.9392 38.2464 37.9392 38.0928 37.9392 37.8624C37.9392 37.4016 37.9392 36.7104 37.9392 35.7888L38.016 35.8656L33.5616 34.8672H33.6384L32.4864 37.3248V37.4016H32.4096C31.4112 37.4784 30.4896 37.632 29.4912 37.9392H29.4144H29.3376L27.4176 36.0192L23.5776 38.4768L23.6544 38.3232L24.576 40.9344V41.0112L24.4992 41.088C23.808 41.7792 23.2704 42.624 22.8096 43.4688V43.5456H20.0448L20.1216 43.4688C19.8144 44.8512 19.5072 46.3872 19.1232 47.9232L19.0464 47.7696L21.504 48.9216H21.5808V48.9984C21.6576 49.9968 21.8112 50.9184 22.0416 51.9168V51.9936L21.9648 52.0704L20.0448 53.9904V53.8368L22.5024 57.6768L22.3488 57.6L24.96 56.6784H25.0368L25.1136 56.7552C25.8048 57.4464 26.6496 57.984 27.4944 58.4448C27.5712 58.5216 27.4176 58.2912 27.5712 58.5984V61.3632L27.4944 61.2096L31.9488 62.208L31.7952 62.2848C32.1792 61.44 32.5632 60.5952 32.9472 59.8272L33.024 59.7504H33.1008C34.0992 59.7504 35.0208 59.52 35.9424 59.2896H36.0192L36.096 59.3664L38.016 61.2864H37.8624L41.7024 58.9056L41.6256 59.0592C41.3184 58.2144 41.0112 57.2928 40.704 56.448V56.064L40.7808 55.9872C41.472 55.296 42.0096 54.4512 42.4704 53.6064V53.5296H45.312L45.2352 53.6064C45.6192 52.0704 45.9264 50.6112 46.2336 49.152L46.3104 49.3056L43.8528 48.1536H43.776V48.0768C43.776 47.0784 43.5456 46.1568 43.3152 45.1584V45.0816L45.2352 43.1616V43.2384L42.8544 39.3984H42.9312L40.32 40.32C39.7824 39.7824 39.168 39.3984 38.5536 38.9376L38.0928 38.6304L37.9392 38.5536L38.0928 38.7072L38.5536 38.9376C39.168 39.3216 39.7824 39.7824 40.32 40.2432H40.2432L42.8544 39.3216H42.9312V39.3984L45.3888 43.2384V43.3152L45.312 43.392L43.392 45.312V45.2352C43.6992 46.1568 43.8528 47.1552 43.9296 48.1536L43.8528 48.0768L46.3104 49.2288H46.3872V49.3056C46.08 50.688 45.7728 52.1472 45.3888 53.76V53.8368H42.5472L42.624 53.76C42.1632 54.6816 41.5488 55.4496 40.9344 56.2176V56.064C41.2416 56.9088 41.5488 57.7536 41.856 58.6752L41.9328 58.752L41.856 58.8288L38.016 61.2864L37.9392 61.3632L37.8624 61.2864L35.9424 59.3664H36.096C35.1744 59.6736 34.176 59.8272 33.1776 59.904L33.2544 59.8272C32.8704 60.672 32.4864 61.44 32.1024 62.2848L32.0256 62.3616H31.9488L27.4944 61.3632H27.4176V58.368C27.5712 58.5984 27.4176 58.4448 27.4944 58.5216C26.5728 58.0608 25.8048 57.4464 25.0368 56.832H25.1904L22.5792 57.7536H22.5024L22.4256 57.6768L19.968 53.8368L19.8912 53.76L19.968 53.6832L21.888 51.7632V51.9168C21.5808 50.9952 21.4272 49.9968 21.3504 48.9984L21.4272 49.0752L18.9696 47.9232L18.8928 47.8464V47.7696L19.8912 43.3152V43.2384H22.8096L22.7328 43.3152C23.1936 42.3936 23.808 41.6256 24.4224 40.8576V40.9344L23.5008 38.3232V38.2464L23.5776 38.1696L27.4176 35.7888H27.4944L27.5712 35.8656L29.4912 37.7856H29.4144C30.336 37.4784 31.3344 37.3248 32.3328 37.3248L32.256 37.4016L33.4848 34.944V34.8672H33.5616L38.016 35.8656H38.0928C38.0928 36.7104 38.0928 37.4016 38.0928 37.8624C38.0928 38.0928 38.0928 38.2464 38.0928 38.4C38.016 38.4 38.016 38.4768 37.9392 38.5536Z" fill="var(--fill-0, #212746)"/>
<path id="Vector_3" fill-rule="evenodd" clip-rule="evenodd" d="M29.568 4.07039C30.5664 4.60799 31.4112 5.22239 32.256 5.99039L35.0976 4.992L37.7856 9.216L35.6352 11.3664C35.9424 12.4416 36.1728 13.5168 36.1728 14.592L38.9376 15.8976L37.8624 20.736H34.8672C34.3296 21.7344 33.7152 22.5792 32.9472 23.424L33.9456 26.2656L29.7216 28.9536L27.5712 26.88C26.496 27.1872 25.4208 27.4176 24.3456 27.4176L23.04 30.1824L18.1248 29.1072V26.112C17.1264 25.5744 16.2816 24.96 15.4368 24.192L12.5952 25.1904L9.90722 20.9664L12.0576 18.816C11.7504 17.7408 11.52 16.6656 11.52 15.5904L8.75522 14.2848L9.83041 9.36961H12.8256C13.3632 8.37121 13.9776 7.52641 14.6688 6.68161L13.6704 3.84L17.8944 1.152L20.0448 3.30239C21.12 2.99519 22.1952 2.76481 23.2704 2.76481L24.576 3.50952e-06L29.4912 1.0752L29.568 4.07039ZM25.2672 9.83039C22.3488 9.21599 19.5072 10.9824 18.816 13.9008C18.2016 16.8192 19.968 19.6608 22.8864 20.352C25.8048 20.9664 28.6464 19.2 29.3376 16.2816C29.952 13.3632 28.1856 10.5216 25.2672 9.83039Z" fill="var(--fill-0, #9FA9FF)"/>
<path id="Vector_4" fill-rule="evenodd" clip-rule="evenodd" d="M11.904 32.9472C12.4416 33.2544 12.9792 33.6384 13.44 34.0224L15.1296 33.408L16.6656 35.8656L15.4368 37.0944C15.5904 37.7088 15.744 38.3232 15.744 38.9376L17.3568 39.7056L16.8192 42.5472H15.0528C14.7456 43.0848 14.3616 43.6224 13.9776 44.0832L14.592 45.7728L12.1344 47.3088L10.9056 46.08C10.2912 46.2336 9.67681 46.3872 9.06241 46.3872L8.29441 48L5.45281 47.3856V45.6192C4.91521 45.312 4.37761 44.928 3.91681 44.544L2.22721 45.1584L0.69121 42.7008L1.92001 41.472C1.76641 40.8576 1.61281 40.2432 1.61281 39.6288L9.10187e-06 38.8608L0.614411 36.0192H2.30401C2.61121 35.4816 2.99521 34.944 3.37921 34.4832L2.76481 32.7936L5.22241 31.2576L6.45122 32.4864C7.06562 32.256 7.68001 32.1792 8.29441 32.1792L9.06241 30.5664L11.904 31.1808V32.9472ZM9.36961 36.2496C7.68001 35.8656 5.99041 36.9408 5.60641 38.6304C5.22241 40.32 6.29762 42.0096 7.98722 42.3936C9.67682 42.7776 11.3664 41.7024 11.7504 40.0128C12.1344 38.3232 11.0592 36.6336 9.36961 36.2496Z" fill="var(--fill-0, #9FA9FF)"/>
</g>
</svg>
