<svg preserveAspectRatio="none" width="100%" height="100%" overflow="visible" style="display: block;" viewBox="0 0 316.109 75.1104" fill="none" xmlns="http://www.w3.org/2000/svg">
<g id="freepik--Screens--inject-114">
<path id="Vector" d="M315.802 0.307208H204.211V75.0336H315.802V0.307208Z" fill="var(--fill-0, white)"/>
<path id="Vector_2" d="M315.802 75.0336C315.802 75.0336 315.802 74.5728 315.802 73.6512V69.7344C315.802 66.2784 315.802 61.2096 315.725 54.6816C315.725 41.7024 315.648 23.04 315.648 0.307208L315.802 0.460806L204.288 0.537599L204.518 0.307208C204.518 26.9568 204.518 52.224 204.518 75.0336L204.365 74.88L284.774 74.9568L307.738 75.0336H313.882H315.494H313.958H307.891L284.928 75.1104H204.288H204.134V74.9568C204.134 52.1472 204.134 26.88 204.134 0.230403V9.46045e-07H204.365L315.955 0.0768056H316.109V0.230403C316.109 23.04 316.032 41.7024 316.032 54.6816C316.032 61.1328 316.032 66.2016 316.032 69.6576C316.032 71.3472 316.032 72.6528 316.032 73.5744C316.032 74.496 315.802 75.0336 315.802 75.0336Z" fill="var(--fill-0, #D0E957)"/>
<path id="Vector_3" d="M204.211 6.98881C204.211 6.91201 229.171 6.7584 259.968 6.7584C290.765 6.7584 315.725 6.83521 315.725 6.98881C315.725 7.14241 290.765 7.21921 259.968 7.21921C229.171 7.21921 204.211 7.14241 204.211 6.98881Z" fill="var(--fill-0, #D0E957)"/>
<g id="Group" opacity="0.3">
<path id="Vector_4" d="M208.589 3.6096C208.589 4.0704 208.205 4.53121 207.667 4.53121C207.206 4.53121 206.746 4.1472 206.746 3.6096C206.746 3.1488 207.13 2.688 207.667 2.688C208.205 2.7648 208.589 3.1488 208.589 3.6096Z" fill="var(--fill-0, #D0E957)"/>
</g>
<g id="Group_2" opacity="0.3">
<path id="Vector_5" d="M211.661 3.6096C211.661 4.0704 211.277 4.53121 210.739 4.53121C210.278 4.53121 209.818 4.1472 209.818 3.6096C209.818 3.1488 210.202 2.688 210.739 2.688C211.277 2.7648 211.661 3.1488 211.661 3.6096Z" fill="var(--fill-0, #D0E957)"/>
</g>
<g id="Group_3" opacity="0.3">
<path id="Vector_6" d="M214.733 3.6096C214.733 4.0704 214.349 4.53121 213.811 4.53121C213.35 4.53121 212.89 4.1472 212.89 3.6096C212.89 3.1488 213.274 2.688 213.811 2.688C214.272 2.7648 214.733 3.1488 214.733 3.6096Z" fill="var(--fill-0, #D0E957)"/>
</g>
<path id="Vector_7" d="M243.61 14.7456H213.811V44.544H243.61V14.7456Z" fill="var(--fill-0, #D0E957)"/>
<path id="Vector_8" d="M300.518 23.1936C300.518 23.2704 288.922 23.424 274.56 23.424C260.198 23.424 248.602 23.3472 248.602 23.1936C248.602 23.04 260.198 22.9632 274.56 22.9632C288.922 22.9632 300.518 23.1168 300.518 23.1936Z" fill="var(--fill-0, #D0E957)"/>
<path id="Vector_9" d="M300.518 28.7232C300.518 28.8 288.922 28.9536 274.56 28.9536C260.198 28.9536 248.602 28.8768 248.602 28.7232C248.602 28.5696 260.198 28.4928 274.56 28.4928C288.922 28.4928 300.518 28.6464 300.518 28.7232Z" fill="var(--fill-0, #D0E957)"/>
<path id="Vector_10" d="M300.518 34.2528C300.518 34.3296 288.922 34.4832 274.56 34.4832C260.198 34.4832 248.602 34.4064 248.602 34.2528C248.602 34.0992 260.198 34.0224 274.56 34.0224C288.922 34.0224 300.518 34.176 300.518 34.2528Z" fill="var(--fill-0, #D0E957)"/>
<path id="Vector_11" d="M279.322 39.7824C278.938 39.8592 278.554 39.8592 278.093 39.8592L274.79 39.936C272.026 40.0128 268.186 40.0128 263.962 40.0128C259.738 40.0128 255.898 40.0128 253.133 39.936L249.83 39.8592C249.446 39.8592 248.986 39.8592 248.602 39.7824C248.986 39.7056 249.37 39.7056 249.83 39.7056L253.133 39.6288C255.898 39.552 259.738 39.552 263.962 39.552C268.186 39.552 272.026 39.552 274.79 39.6288L278.093 39.7056C278.477 39.7056 278.861 39.7056 279.322 39.7824Z" fill="var(--fill-0, #D0E957)"/>
<g id="Group_4" opacity="0.3">
<path id="Vector_12" d="M229.632 54.6048H215.654V68.5824H229.632V54.6048Z" fill="var(--fill-0, #D0E957)"/>
</g>
<path id="Vector_13" d="M255.053 54.6048H241.075V68.5824H255.053V54.6048Z" fill="var(--fill-0, #D0E957)"/>
<path id="Vector_14" d="M280.397 54.6048H266.419V68.5824H280.397V54.6048Z" fill="var(--fill-0, #D0E957)"/>
<path id="Vector_15" d="M305.741 54.6048H291.763V68.5824H305.741V54.6048Z" fill="var(--fill-0, #D0E957)"/>
<g id="Group_5" opacity="0.3">
<path id="Vector_16" d="M243.61 14.7456H213.811V44.544H243.61V14.7456Z" fill="var(--fill-0, white)"/>
</g>
<g id="Group_6" opacity="0.3">
<path id="Vector_17" d="M255.053 54.6048H241.075V68.5824H255.053V54.6048Z" fill="var(--fill-0, white)"/>
</g>
<g id="Group_7" opacity="0.3">
<path id="Vector_18" d="M280.397 54.6048H266.419V68.5824H280.397V54.6048Z" fill="var(--fill-0, white)"/>
</g>
<g id="Group_8" opacity="0.3">
<path id="Vector_19" d="M305.741 54.6048H291.763V68.5824H305.741V54.6048Z" fill="var(--fill-0, white)"/>
</g>
<path id="Vector_20" d="M99.5328 27.264H0.153601V67.6608H99.5328V27.264Z" fill="var(--fill-0, white)"/>
<path id="Vector_21" d="M99.5328 66.8928C99.5328 66.432 99.5328 65.7408 99.5328 64.8192C99.5328 62.976 99.5328 60.288 99.5328 56.7552C99.5328 49.7664 99.5328 39.7056 99.456 27.264L99.5328 27.3408L0.153601 27.4176L0.307201 27.264C0.307201 41.3952 0.307201 55.0656 0.307201 67.6608L0.153601 67.5072L71.424 67.584L92.0832 67.6608H97.6128H99.072H97.6896H92.16L71.5008 67.7376L0.153601 67.8144H0V27.1104H0.153601L99.5328 27.1872H99.6096V27.264C99.6096 39.7824 99.5328 49.8432 99.5328 56.832C99.5328 60.288 99.5328 62.976 99.5328 64.8192C99.5328 65.7408 99.5328 66.432 99.5328 66.8928Z" fill="var(--fill-0, #D0E957)"/>
<path id="Vector_22" d="M0.230399 32.7168C0.230399 32.64 22.4256 32.5632 49.8432 32.5632C77.2608 32.5632 99.456 32.64 99.456 32.7168C99.456 32.7936 77.2608 32.8704 49.8432 32.8704C22.4256 32.8704 0.230399 32.7936 0.230399 32.7168Z" fill="var(--fill-0, #D0E957)"/>
<g id="Group_9" opacity="0.3">
<path id="Vector_23" d="M4.4544 30.2592C4.4544 30.6432 4.1472 30.9504 3.7632 30.9504C3.3792 30.9504 3.072 30.6432 3.072 30.2592C3.072 29.8752 3.3792 29.568 3.7632 29.568C4.1472 29.568 4.4544 29.8752 4.4544 30.2592Z" fill="var(--fill-0, #D0E957)"/>
</g>
<g id="Group_10" opacity="0.3">
<path id="Vector_24" d="M6.912 30.2592C6.912 30.6432 6.6048 30.9504 6.2208 30.9504C5.8368 30.9504 5.5296 30.6432 5.5296 30.2592C5.5296 29.8752 5.8368 29.568 6.2208 29.568C6.6048 29.568 6.912 29.8752 6.912 30.2592Z" fill="var(--fill-0, #D0E957)"/>
</g>
<g id="Group_11" opacity="0.3">
<path id="Vector_25" d="M9.3696 30.2592C9.3696 30.6432 9.0624 30.9504 8.6784 30.9504C8.2944 30.9504 7.9872 30.6432 7.9872 30.2592C7.9872 29.8752 8.2944 29.568 8.6784 29.568C9.0624 29.568 9.3696 29.8752 9.3696 30.2592Z" fill="var(--fill-0, #D0E957)"/>
</g>
<path id="Vector_26" d="M32.64 39.2448H8.6016V63.2832H32.64V39.2448Z" fill="var(--fill-0, #D0E957)"/>
<path id="Vector_27" d="M92.6976 45.696C92.6976 45.7728 80.3328 45.8496 65.1264 45.8496C49.92 45.8496 37.5552 45.7728 37.5552 45.696C37.5552 45.6192 49.92 45.5424 65.1264 45.5424C80.3328 45.5424 92.6976 45.6192 92.6976 45.696Z" fill="var(--fill-0, #D0E957)"/>
<path id="Vector_28" d="M92.6976 50.6112C92.6976 50.688 80.3328 50.7648 65.1264 50.7648C49.92 50.7648 37.5552 50.688 37.5552 50.6112C37.5552 50.5344 49.92 50.4576 65.1264 50.4576C80.3328 50.4576 92.6976 50.4576 92.6976 50.6112Z" fill="var(--fill-0, #D0E957)"/>
<path id="Vector_29" d="M72.6528 55.4496H71.5776L67.8144 55.5264L55.2192 55.6032L42.7008 55.5264L38.8608 55.4496L42.7008 55.3728L55.2192 55.296L67.8144 55.3728L71.5776 55.4496H72.6528Z" fill="var(--fill-0, #D0E957)"/>
<g id="Group_12" opacity="0.3">
<path id="Vector_30" d="M32.64 39.2448H8.6016V63.2832H32.64V39.2448Z" fill="var(--fill-0, #F0F3FF)"/>
</g>
</g>
</svg>
