<svg preserveAspectRatio="none" width="100%" height="100%" overflow="visible" style="display: block;" viewBox="0 0 161.493 190.938" fill="none" xmlns="http://www.w3.org/2000/svg">
<g id="freepik--Character--inject-114">
<path id="Vector" d="M144.691 49.6847C147.994 48.7631 150.221 45.6143 150.144 42.1583C150.067 40.6223 149.453 39.1631 149.53 37.7039C149.606 35.3999 151.142 33.4031 152.371 31.4063C153.6 29.4095 154.291 26.7215 152.986 24.8015C152.141 23.5727 150.528 23.0351 149.453 21.9599C148.378 20.8847 147.917 19.4255 147.379 18.0431C146.842 16.6607 146.074 15.2783 144.768 14.5103C143.462 13.7423 141.542 14.1263 141.005 15.5087" fill="var(--fill-0, #212746)"/>
<path id="Vector_2" d="M130.79 11.7455C133.094 10.2863 133.632 6.90714 132.403 4.44954C131.174 1.99194 128.486 0.532744 125.798 0.148744C121.805 -0.465656 117.811 0.839942 114.97 3.75834C113.51 5.29434 112.282 7.29114 110.285 7.98234C108.518 8.59674 106.522 8.05914 104.678 8.28954C102.144 8.75034 99.9936 10.2863 98.7648 12.5135C97.6128 14.7407 96.8448 17.1983 96.6912 19.7327C96.384 22.0367 96.2304 24.4943 94.6944 26.1839C93.1584 27.8735 90.7008 28.1807 88.7808 29.3327C85.0944 31.7903 84.0192 36.7055 86.4 40.3919C87.168 41.4671 88.2432 42.5423 88.32 43.8479C88.3968 45.1535 87.6288 46.1519 87.2448 47.3807C86.4768 50.2991 88.2432 53.2943 91.1616 54.0623C91.392 54.1391 91.6224 54.1391 91.9296 54.2159C93.5424 54.2927 95.232 53.6783 96.6912 54.3695C98.1504 55.0607 98.6112 56.8271 99.5328 58.1327C101.453 60.7439 104.909 61.5887 107.904 60.2831C109.056 59.6687 110.208 58.7471 111.514 58.8239C112.819 58.9007 113.818 60.0527 115.123 60.2831C116.813 60.5903 118.426 59.3615 119.424 57.9791C120.422 56.5967 121.114 54.9839 122.419 53.8319C124.109 52.3727 126.413 51.9887 128.563 51.2207C137.626 48.0719 142.387 38.2415 139.238 29.1791C139.008 28.4111 138.624 27.6431 138.317 26.9519" fill="var(--fill-0, #212746)"/>
<path id="Vector_3" d="M135.859 14.8175C137.779 15.0479 139.162 16.6607 139.162 18.5807L136.934 68.2703C136.858 74.1071 128.256 77.4095 121.958 77.2559C115.584 77.1023 115.43 74.0303 115.354 68.4239C115.2 59.1311 115.277 55.5983 115.2 55.6751C115.123 55.7519 107.213 54.2927 105.523 43.8479C104.678 38.6255 104.986 30.1007 105.446 23.1887C105.83 16.8911 110.054 9.21114 116.275 9.90234L135.859 14.8175Z" fill="var(--fill-0, #FFBE9D)"/>
<path id="Vector_4" d="M107.75 29.8703C107.75 30.5615 108.288 31.1759 109.056 31.2527C109.747 31.3295 110.362 30.7919 110.438 30.1007C110.438 29.4095 109.901 28.7951 109.133 28.7183C108.442 28.6415 107.827 29.1023 107.75 29.8703Z" fill="var(--fill-0, #212746)"/>
<path id="Vector_5" d="M107.29 27.5663C107.443 27.7199 108.442 26.9519 109.901 27.0287C111.36 27.1055 112.358 27.7199 112.589 27.5663C112.819 27.4127 112.512 27.1823 112.051 26.8751C111.437 26.4143 110.669 26.1839 109.901 26.1839C109.133 26.1839 108.442 26.4143 107.827 26.8751C107.366 27.1823 107.213 27.4895 107.29 27.5663Z" fill="var(--fill-0, #212746)"/>
<path id="Vector_6" d="M122.189 29.8703C122.189 30.5615 122.726 31.1759 123.494 31.2527C124.186 31.3295 124.8 30.7919 124.877 30.1007C124.877 29.4095 124.339 28.7951 123.571 28.7183C122.88 28.6415 122.189 29.1023 122.189 29.8703Z" fill="var(--fill-0, #212746)"/>
<path id="Vector_7" d="M121.498 27.8735C121.651 28.0271 122.65 27.2591 124.109 27.3359C125.568 27.4127 126.566 28.1039 126.797 27.8735C127.027 27.6431 126.72 27.4895 126.259 27.1823C125.645 26.7215 124.877 26.4911 124.109 26.4911C123.341 26.4911 122.65 26.7215 122.035 27.1823C121.574 27.4127 121.421 27.7967 121.498 27.8735Z" fill="var(--fill-0, #212746)"/>
<path id="Vector_8" d="M116.275 38.5487C115.507 38.3183 114.739 38.1647 113.971 38.0879C113.587 38.0111 113.28 38.0111 113.203 37.7039C113.203 37.3199 113.28 36.9359 113.434 36.6287C113.818 35.7071 114.125 34.7855 114.509 33.8639C116.045 29.8703 117.12 26.5679 116.966 26.4911C116.813 26.4143 115.43 29.6399 113.894 33.6335C113.51 34.6319 113.203 35.5535 112.819 36.4751C112.589 36.9359 112.512 37.3967 112.589 37.9343C112.666 38.1647 112.896 38.3951 113.203 38.4719C113.434 38.5487 113.587 38.5487 113.818 38.5487C114.662 38.6255 115.43 38.6255 116.275 38.5487Z" fill="var(--fill-0, #212746)"/>
<path id="Vector_9" d="M115.2 55.5983C120.115 55.6751 124.954 54.3695 129.178 51.9119C129.178 51.9119 125.645 59.2847 115.2 58.2863V55.5983Z" fill="var(--fill-0, #EB996E)"/>
<path id="Vector_10" d="M116.813 42.0047C117.35 41.3135 118.272 40.9295 119.117 41.0831C119.731 41.1599 120.346 41.4671 120.73 41.9279C121.114 42.3887 121.19 43.0799 120.806 43.6175C120.346 44.1551 119.578 44.3087 118.886 44.0783C118.195 43.8479 117.581 43.4639 117.043 43.0031C116.89 42.8495 116.736 42.7727 116.659 42.5423C116.582 42.3887 116.582 42.1583 116.659 42.0047" fill="var(--fill-0, #D0E957)"/>
<path id="Vector_11" d="M120.499 39.5471C120.269 39.5471 120.269 41.0831 118.886 42.2351C117.504 43.3871 115.891 43.1567 115.891 43.3871C115.891 43.4639 116.275 43.6943 116.966 43.6943C117.888 43.6943 118.81 43.3871 119.501 42.8495C120.192 42.3119 120.653 41.4671 120.73 40.6223C120.806 39.9311 120.576 39.5471 120.499 39.5471Z" fill="var(--fill-0, #212746)"/>
<path id="Vector_12" d="M120.883 25.3391C121.037 25.7231 122.496 25.5695 124.186 25.7231C125.875 25.8767 127.258 26.4143 127.488 26.0303C127.565 25.8767 127.334 25.4927 126.797 25.1087C125.338 24.1871 123.494 23.9567 121.805 24.5711C121.114 24.8015 120.806 25.1087 120.883 25.3391Z" fill="var(--fill-0, #212746)"/>
<path id="Vector_13" d="M107.827 23.3423C108.058 23.6495 109.056 23.3423 110.285 23.3423C111.514 23.3423 112.512 23.5727 112.742 23.2655C112.819 23.1119 112.666 22.8047 112.282 22.4207C111.053 21.6527 109.517 21.7295 108.365 22.4975C107.904 22.8815 107.75 23.1887 107.827 23.3423Z" fill="var(--fill-0, #212746)"/>
<path id="Vector_14" d="M128.947 11.3615C131.328 9.67193 134.4 9.13433 137.242 9.82553C140.006 10.5935 142.31 13.1279 142.464 15.9695C142.541 17.8127 141.696 19.8095 142.541 21.4223C143.386 23.0351 145.229 23.6495 146.611 24.8015C148.762 26.7215 149.376 29.7935 148.07 32.3279C146.918 34.4015 144.538 35.9375 144.307 38.3183C144.154 40.5455 145.997 42.4655 146.458 44.6159C146.918 46.9967 145.613 49.5311 143.693 51.1439C141.773 52.7567 139.392 53.6015 137.011 54.4463C135.168 55.1375 133.171 55.8287 131.251 55.3679C128.947 54.7535 127.258 52.8335 126.95 50.4527C126.72 48.1487 127.488 45.8447 129.101 44.1551C130.483 42.6959 132.326 41.3903 132.634 39.4703C133.094 36.3983 129.485 33.9407 129.715 30.8687C129.792 29.2559 130.944 27.9503 131.866 26.6447C132.787 25.3391 133.632 23.7263 133.018 22.1903C132.25 20.2703 129.715 19.7327 128.179 18.3503C126.874 17.1215 126.413 15.2783 126.874 13.5887C127.411 11.8991 128.87 10.6703 130.637 10.3631" fill="var(--fill-0, #212746)"/>
<path id="Vector_15" d="M130.099 9.05753C130.099 12.9743 126.95 16.1999 122.957 16.2767C122.496 16.2767 122.035 16.2767 121.651 16.1231C120.038 15.8159 118.272 15.0479 116.89 15.8927C115.507 16.7375 115.354 18.9647 114.125 20.1167C112.282 21.7295 109.363 20.1935 106.982 20.8847C105.139 21.4223 104.064 23.1119 102.835 24.5711C101.606 26.0303 99.84 27.4127 97.9968 26.8751C98.0736 25.2623 98.304 23.6495 98.688 22.0367C99.1488 20.4239 100.07 19.0415 101.453 18.1199C102.221 17.7359 102.989 17.2751 103.757 16.7375C105.293 15.5087 105.6 13.4351 106.522 11.7455C107.75 9.51833 109.978 8.05913 112.512 7.75193C114.586 7.52153 116.659 8.13593 118.656 7.67513C120.115 7.29113 121.421 6.36953 122.957 6.06233C125.875 5.52473 128.64 7.59833 130.714 9.67193" fill="var(--fill-0, #212746)"/>
<path id="Vector_16" d="M149.146 34.0175C149.376 33.6335 149.453 33.2495 149.376 32.7887C149.146 31.6367 148.378 30.7151 147.226 30.4079C146.458 30.1775 145.69 29.9471 144.922 29.7935C144 29.6399 143.078 29.2559 142.31 28.7183C141.466 28.0271 141.005 27.0287 140.928 25.9535C140.928 24.8783 141.005 23.7263 141.082 22.6511C141.082 22.1135 141.082 21.5759 141.005 21.0383C140.928 20.5775 140.698 20.0399 140.39 19.6559C139.699 18.9647 138.854 18.4271 137.856 18.1967C136.934 17.9663 136.09 17.5823 135.322 17.1215C134.63 16.7375 134.016 16.1999 133.402 15.5855C132.557 14.7407 131.942 13.7423 131.558 12.5903C131.405 12.2831 131.328 11.9759 131.251 11.6687C131.174 11.4383 131.174 11.3615 131.174 11.3615C131.174 11.3615 131.328 11.8223 131.635 12.5903C132.787 15.2783 135.091 17.1983 137.933 17.8895C138.931 18.1199 139.93 18.6575 140.621 19.4255C141.005 19.8863 141.235 20.4239 141.312 20.9615C141.389 21.4991 141.466 22.1135 141.389 22.6511C141.312 23.7263 141.235 24.8015 141.235 25.8767C141.235 26.8751 141.696 27.7967 142.387 28.4111C143.155 28.9487 143.923 29.2559 144.845 29.4863C145.613 29.6399 146.381 29.8703 147.149 30.1775C147.763 30.4079 148.378 30.8687 148.762 31.4063C149.069 31.7903 149.222 32.3279 149.299 32.8655C149.299 33.1727 149.222 33.5567 149.146 33.7871C149.299 33.9407 149.222 34.0175 149.146 34.0175Z" fill="var(--fill-0, #5A607F)"/>
<path id="Vector_17" d="M87.552 40.5455L87.3984 40.4687C87.2448 40.3919 87.0912 40.2383 87.0144 40.0847C86.7072 39.3935 86.784 38.6255 87.2448 38.0111C87.4752 37.5503 87.8592 37.1663 88.3968 36.9359C88.9344 36.6287 89.472 36.3983 90.0864 36.2447C90.7008 36.0143 91.3152 35.7071 91.8528 35.2463C92.3904 34.7087 92.6976 34.0175 92.8512 33.2495C93.0048 32.4815 93.0816 31.6367 93.2352 30.7151C93.312 29.7935 93.696 28.8719 94.3104 28.1039C95.5392 26.4911 97.536 25.6463 98.9952 24.1871C99.7632 23.4191 100.301 22.4207 100.608 21.4223C100.992 20.3471 101.222 19.1951 101.376 18.0431C101.683 15.7391 102.067 13.2047 103.603 11.0543C104.371 9.97914 105.523 9.28794 106.752 9.05754C107.981 8.90394 109.21 8.90394 110.362 9.13434C111.514 9.36474 112.589 9.44154 113.741 9.36474C114.816 9.21114 115.814 8.75034 116.506 7.90554C117.965 6.36954 118.733 4.29594 120.499 3.22074C122.112 2.22234 124.032 1.99194 125.798 2.52954C127.258 2.91354 128.486 3.91194 129.254 5.21754C129.869 6.21594 130.176 7.29113 130.176 8.44313C130.176 9.13433 130.099 9.82554 129.869 10.5167C129.792 10.7471 129.715 10.9775 129.562 11.2079C129.562 11.2079 129.638 10.9775 129.792 10.5167C130.022 9.82554 130.099 9.13433 130.022 8.44313C129.946 7.36793 129.638 6.29274 129.101 5.29434C128.333 4.06554 127.181 3.14394 125.722 2.75994C124.032 2.29914 122.189 2.60634 120.73 3.52794C119.962 4.06554 119.27 4.75674 118.733 5.60154C118.195 6.52314 117.504 7.36794 116.813 8.13594C116.429 8.51994 115.968 8.90393 115.507 9.21113C114.97 9.44153 114.432 9.67194 113.818 9.74874C112.666 9.82554 111.437 9.74873 110.285 9.59513C109.133 9.36473 107.904 9.36474 106.752 9.51834C105.6 9.74874 104.525 10.4399 103.834 11.4383C103.142 12.4367 102.605 13.5119 102.298 14.7407C101.99 15.8927 101.837 17.0447 101.683 18.2735C101.53 19.4255 101.299 20.5775 100.915 21.6527C100.531 22.7279 99.9936 23.7263 99.1488 24.5711C97.6128 26.1071 95.616 26.9519 94.464 28.4879C93.9264 29.1791 93.5424 30.1007 93.4656 30.9455C93.312 31.7903 93.2352 32.7119 93.0816 33.4799C92.928 34.2479 92.544 35.0159 92.0064 35.5535C91.4688 36.0143 90.8544 36.3983 90.1632 36.5519C89.6256 36.7055 89.0112 36.9359 88.4736 37.2431C88.0128 37.4735 87.6288 37.7807 87.3984 38.2415C87.0144 38.7791 86.8608 39.5471 87.0912 40.1615C87.2448 40.2383 87.3984 40.4687 87.552 40.5455Z" fill="var(--fill-0, #5A607F)"/>
<path id="Vector_18" d="M61.9008 112.584L80.4864 110.894C80.4864 110.894 91.9296 80.8655 105.984 73.5695L115.123 89.4671L95.616 126.101H57.5232L61.9008 112.584Z" fill="var(--fill-0, #D0E957)"/>
<path id="Vector_19" opacity="0.3" d="M61.9008 112.584L80.4864 110.894C80.4864 110.894 91.9296 80.8655 105.984 73.5695L115.123 89.4671L95.616 126.101H57.5232L61.9008 112.584Z" fill="var(--fill-0, #212746)"/>
<path id="Vector_20" d="M69.2736 121.032C70.1952 118.958 71.3472 117.038 72.7296 115.195C71.808 117.269 70.656 119.266 69.2736 121.032Z" fill="var(--fill-0, #F6F8FF)"/>
<path id="Vector_21" d="M82.4064 120.648C80.7936 119.035 79.4112 117.346 78.1824 115.426C79.0272 116.194 79.7952 116.962 80.4864 117.883C81.1776 118.728 81.8688 119.65 82.4064 120.648Z" fill="var(--fill-0, #F6F8FF)"/>
<path id="Vector_22" d="M84.7104 113.813C84.48 112.2 84.48 110.587 84.7104 108.974C84.9408 110.51 84.9408 112.2 84.7104 113.813Z" fill="var(--fill-0, #F6F8FF)"/>
<path id="Vector_23" d="M78.1824 124.488C77.568 124.334 76.9536 124.027 76.416 123.566C75.4944 122.952 74.8032 122.414 74.88 122.338C75.4944 122.491 76.1088 122.875 76.6464 123.259C77.4912 123.874 78.1824 124.411 78.1824 124.488Z" fill="var(--fill-0, #F6F8FF)"/>
<path id="Vector_24" d="M88.7808 96.9167C88.4736 98.0687 88.0128 99.2207 87.4752 100.296C87.0144 101.448 86.4768 102.523 85.8624 103.445C86.1696 102.293 86.5536 101.141 87.168 100.066C87.552 98.9903 88.1664 97.9151 88.7808 96.9167Z" fill="var(--fill-0, #F6F8FF)"/>
<path id="Vector_25" d="M96.3072 84.7055C96.384 84.7823 95.6928 85.3967 94.848 86.0879C94.3104 86.5487 93.7728 86.9327 93.1584 87.1631C93.0816 87.0863 93.7728 86.4719 94.6176 85.7807C95.0784 85.3199 95.6928 84.9359 96.3072 84.7055Z" fill="var(--fill-0, #F6F8FF)"/>
<path id="Vector_26" d="M124.032 123.72L133.632 85.0895C135.322 78.3311 141.926 74.1071 148.685 75.3359C155.674 76.6415 160.435 83.2463 159.36 90.3119L153.523 128.098C152.064 136.008 145.766 142.152 137.856 143.381L130.253 144.533L124.032 123.72Z" fill="var(--fill-0, #D0E957)"/>
<path id="Vector_27" d="M154.214 72.8015C153.216 71.9567 152.064 71.4191 150.758 71.1119C149.376 70.8047 147.994 70.8047 146.611 71.1119C144.998 71.4959 143.462 72.3407 142.157 73.4159C139.392 75.7967 137.856 78.7919 136.781 80.9423C136.243 82.0175 135.859 82.9391 135.629 83.5535C135.475 83.8607 135.322 84.1679 135.168 84.4751C135.245 84.1679 135.322 83.7839 135.475 83.4767C135.706 82.8623 136.09 81.9407 136.55 80.7887C137.088 79.4831 137.779 78.2543 138.547 77.0255C139.469 75.5663 140.621 74.1839 141.926 73.1087C143.232 71.9567 144.845 71.1119 146.534 70.7279C147.917 70.4207 149.376 70.4207 150.835 70.8047C151.757 71.0351 152.678 71.4959 153.446 72.0335C153.677 72.1871 153.83 72.3407 154.061 72.5711C154.138 72.7247 154.214 72.8015 154.214 72.8015Z" fill="var(--fill-0, #212746)"/>
<path id="Vector_28" d="M99.9936 81.4799C99.9168 81.6335 99.84 81.7103 99.6864 81.8639L98.8416 82.8623C98.1504 83.7071 97.152 84.9359 96 86.5487C92.928 90.6959 90.7008 95.3807 89.472 100.45C88.1664 106.363 88.0896 111.893 87.8592 115.81C87.7824 117.806 87.7056 119.419 87.552 120.494C87.4752 121.032 87.4752 121.416 87.4752 121.8C87.4752 121.954 87.4752 122.107 87.3984 122.261C87.3984 122.107 87.3984 121.954 87.3984 121.8C87.3984 121.493 87.3984 121.032 87.3984 120.494C87.3984 119.342 87.4752 117.73 87.552 115.81C87.7056 111.893 87.7056 106.286 89.088 100.373C90.3168 95.3039 92.6208 90.5423 95.7696 86.4719C96.9216 84.8591 97.9968 83.6303 98.7648 82.7855C99.1488 82.4015 99.456 82.0943 99.6096 81.8639C99.84 81.7103 99.9168 81.5567 99.9936 81.4799Z" fill="var(--fill-0, #212746)"/>
<path id="Vector_29" d="M161.28 81.4031C160.205 74.4911 156.442 72.8783 152.448 70.6511C151.142 69.9599 144.922 68.3471 140.006 67.1183C139.546 64.1231 138.701 58.7471 138.47 57.6719C138.24 56.0591 113.28 60.0527 112.973 60.6671C112.742 61.0511 112.205 67.2719 111.821 71.4191L105.83 73.4927L98.1504 83.3999L94.08 89.1599C91.6992 92.4623 90.0096 96.2255 89.088 100.219C88.2432 104.597 87.8592 109.128 87.936 113.582L86.7072 138.926L138.854 153.672L142.848 127.944L156.288 109.666C157.517 102.216 162.586 89.9279 161.28 81.4031Z" fill="var(--fill-0, #D0E957)"/>
<path id="Vector_30" d="M116.89 72.1871C116.736 71.6495 116.582 71.0351 116.506 70.4207C116.352 69.3455 116.122 67.8095 115.968 66.1199C115.891 65.2751 115.814 64.5071 115.738 63.7391C115.661 63.1247 115.584 62.4335 115.584 61.8191C115.584 61.3583 115.738 60.8975 115.968 60.5135C116.198 60.2831 116.352 60.2063 116.352 60.2063C116.352 60.2063 116.275 60.3599 116.122 60.5903C115.968 60.9743 115.891 61.3583 115.891 61.8191C115.891 62.3567 116.045 62.9711 116.122 63.7391C116.198 64.5071 116.275 65.2751 116.429 66.1199C116.582 67.8095 116.813 69.3455 116.89 70.4207C116.89 71.0351 116.89 71.5727 116.89 72.1871Z" fill="var(--fill-0, #212746)"/>
<path id="Vector_31" d="M123.494 70.6511C123.264 70.1135 123.034 69.5759 122.957 69.0383C122.266 66.3503 122.035 63.6623 122.189 60.8975C122.189 60.3599 122.266 59.7455 122.419 59.2079C122.573 59.2079 122.342 61.8191 122.65 64.9679C122.957 68.1167 123.648 70.5743 123.494 70.6511Z" fill="var(--fill-0, #212746)"/>
<path id="Vector_32" d="M135.859 68.8079C136.013 66.8879 135.936 64.9679 135.706 63.0479C135.322 61.2047 134.707 59.3615 133.939 57.5951C134.323 58.0559 134.63 58.5167 134.861 59.0543C136.09 61.5887 136.55 64.3535 136.243 67.1183C136.166 67.7327 136.09 68.2703 135.859 68.8079Z" fill="var(--fill-0, #212746)"/>
<path id="Vector_33" d="M100.531 91.4639C101.683 89.2367 103.296 87.1631 105.139 85.3967C103.68 87.4703 102.144 89.4671 100.531 91.4639Z" fill="var(--fill-0, #F6F8FF)"/>
<path id="Vector_34" d="M112.205 81.8639C110.746 80.4047 109.44 78.7151 108.365 76.8719C109.133 77.5631 109.824 78.4079 110.438 79.2527C111.13 80.0207 111.744 80.9423 112.205 81.8639Z" fill="var(--fill-0, #F6F8FF)"/>
<path id="Vector_35" d="M124.493 75.8736C123.725 76.7952 122.957 77.5631 122.035 78.3311C121.267 79.1759 120.422 80.0207 119.501 80.7119C120.115 79.7135 120.883 78.7919 121.805 78.0239C122.573 77.2559 123.494 76.488 124.493 75.8736Z" fill="var(--fill-0, #F6F8FF)"/>
<path id="Vector_36" d="M121.037 68.5775C120.346 68.1935 119.654 67.7327 119.117 67.1183C118.502 66.6575 117.888 66.0431 117.504 65.3519C118.195 65.7359 118.886 66.1967 119.424 66.8111C120.038 67.3487 120.576 67.8863 121.037 68.5775Z" fill="var(--fill-0, #F6F8FF)"/>
<path id="Vector_37" d="M131.789 62.8175C130.944 63.2015 130.099 63.4319 129.178 63.5855C128.333 63.8159 127.411 63.9695 126.49 63.9695C127.334 63.5855 128.179 63.3551 129.101 63.2015C130.022 62.9711 130.867 62.8175 131.789 62.8175Z" fill="var(--fill-0, #F6F8FF)"/>
<path id="Vector_38" d="M133.939 79.8671C133.709 79.0223 133.555 78.1007 133.632 77.1791C133.555 76.2575 133.555 75.3359 133.709 74.4911C133.939 75.3359 134.093 76.2575 134.016 77.1791C134.093 78.0239 134.093 78.9455 133.939 79.8671Z" fill="var(--fill-0, #F6F8FF)"/>
<path id="Vector_39" d="M130.022 88.0079C129.485 87.0095 129.024 86.0111 128.64 84.9359C128.179 83.8607 127.872 82.7855 127.642 81.7103C128.717 83.7071 129.485 85.8575 130.022 88.0079Z" fill="var(--fill-0, #F6F8FF)"/>
<path id="Vector_40" d="M119.347 93.7679C118.733 92.7695 118.272 91.6175 117.888 90.5423C117.427 89.4671 117.043 88.3151 116.813 87.1631C117.427 88.1615 117.888 89.3135 118.272 90.3887C118.733 91.4639 119.117 92.6159 119.347 93.7679Z" fill="var(--fill-0, #F6F8FF)"/>
<path id="Vector_41" d="M109.363 100.373C108.672 98.2991 108.211 96.0719 108.058 93.8447C108.442 94.8431 108.749 95.9951 108.902 97.0703C109.21 98.1455 109.363 99.2207 109.363 100.373Z" fill="var(--fill-0, #F6F8FF)"/>
<path id="Vector_42" d="M97.4592 100.603C96.3072 98.7599 95.3088 96.7631 94.6176 94.7663C95.7696 96.5327 96.768 98.5295 97.4592 100.603Z" fill="var(--fill-0, #F6F8FF)"/>
<path id="Vector_43" d="M97.2288 108.206C96.2304 108.898 95.232 109.512 94.08 109.973C93.0048 110.587 91.9296 111.048 90.7776 111.355C91.776 110.664 92.7744 110.05 93.9264 109.589C94.9248 109.051 96.0768 108.59 97.2288 108.206Z" fill="var(--fill-0, #F6F8FF)"/>
<path id="Vector_44" d="M97.3824 120.341C96.8448 119.496 96.4608 118.498 96.3072 117.576C96 116.654 95.8464 115.656 95.8464 114.581C96.2304 115.502 96.4608 116.424 96.6912 117.422C96.9984 118.344 97.2288 119.342 97.3824 120.341Z" fill="var(--fill-0, #F6F8FF)"/>
<path id="Vector_45" d="M94.848 128.789C93.9264 128.174 93.0816 127.56 92.3136 126.792C91.4688 126.101 90.7008 125.333 90.0864 124.488C91.008 125.102 91.8528 125.717 92.6208 126.485C93.4656 127.176 94.2336 127.944 94.848 128.789Z" fill="var(--fill-0, #F6F8FF)"/>
<path id="Vector_46" d="M110.592 123.029C110.592 123.106 108.826 123.643 106.829 124.565C104.832 125.486 103.219 126.408 103.142 126.331C104.218 125.41 105.37 124.718 106.675 124.181C107.827 123.566 109.21 123.182 110.592 123.029Z" fill="var(--fill-0, #F6F8FF)"/>
<path id="Vector_47" d="M105.984 118.805C105.523 117.96 105.139 117.115 104.832 116.194C104.448 115.349 104.218 114.35 104.064 113.429C104.525 114.274 104.909 115.118 105.216 116.04C105.6 116.885 105.83 117.806 105.984 118.805Z" fill="var(--fill-0, #F6F8FF)"/>
<path id="Vector_48" d="M115.277 108.437C114.662 109.742 113.971 110.971 113.203 112.123C112.512 113.352 111.667 114.581 110.746 115.656C112.051 113.122 113.587 110.741 115.277 108.437Z" fill="var(--fill-0, #F6F8FF)"/>
<path id="Vector_49" d="M125.261 109.435C124.262 108.437 123.418 107.208 122.726 105.979C121.958 104.75 121.267 103.445 120.883 102.062C120.96 101.986 121.882 103.752 123.11 105.749C124.339 107.746 125.414 109.358 125.261 109.435Z" fill="var(--fill-0, #F6F8FF)"/>
<path id="Vector_50" d="M131.251 99.5279C130.33 99.9119 129.331 100.066 128.333 100.066C127.334 100.219 126.336 100.066 125.338 99.8351C126.336 99.6815 127.258 99.6815 128.256 99.6815C129.254 99.5279 130.253 99.5279 131.251 99.5279Z" fill="var(--fill-0, #F6F8FF)"/>
<path id="Vector_51" d="M145.459 88.3151C143.002 89.7743 140.467 91.0031 137.779 92.0015C140.237 90.5423 142.848 89.3135 145.459 88.3151Z" fill="var(--fill-0, #F6F8FF)"/>
<path id="Vector_52" d="M146.458 81.1727C147.226 79.0223 148.301 76.9487 149.53 75.0287C149.222 76.1039 148.762 77.1791 148.147 78.1775C147.686 79.2527 147.149 80.2511 146.458 81.1727Z" fill="var(--fill-0, #F6F8FF)"/>
<path id="Vector_53" d="M155.443 86.7791C154.982 85.6271 154.598 84.4751 154.291 83.3231C153.83 82.1711 153.523 81.0191 153.293 79.7903C154.445 81.9407 155.136 84.3215 155.443 86.7791Z" fill="var(--fill-0, #F6F8FF)"/>
<path id="Vector_54" d="M156.902 94.2287C155.827 94.8431 154.675 95.2271 153.523 95.4575C152.371 95.8415 151.142 95.9951 149.99 95.9951C151.142 95.6111 152.294 95.3039 153.446 95.0735C154.522 94.6895 155.674 94.3823 156.902 94.2287Z" fill="var(--fill-0, #F6F8FF)"/>
<path id="Vector_55" d="M141.389 103.291C141.312 103.291 141.619 101.371 141.696 99.0671C141.773 96.7631 141.619 94.8431 141.773 94.8431C142.157 96.2255 142.234 97.6847 142.157 99.0671C142.08 100.526 141.85 101.909 141.389 103.291Z" fill="var(--fill-0, #F6F8FF)"/>
<path id="Vector_56" d="M138.317 112.661C136.243 111.048 134.554 108.974 133.325 106.67C133.402 106.594 134.477 108.053 135.782 109.666C136.704 110.587 137.549 111.586 138.317 112.661Z" fill="var(--fill-0, #F6F8FF)"/>
<path id="Vector_57" d="M153.83 110.664C152.832 111.278 151.757 111.816 150.605 112.2C149.53 112.738 148.378 113.122 147.226 113.352C149.376 112.2 151.526 111.278 153.83 110.664Z" fill="var(--fill-0, #F6F8FF)"/>
<path id="Vector_58" d="M148.301 128.251C148.07 125.41 148.07 122.645 148.378 119.803C148.608 122.645 148.531 125.41 148.301 128.251Z" fill="var(--fill-0, #F6F8FF)"/>
<path id="Vector_59" d="M136.32 127.253C136.55 124.334 137.242 121.416 138.47 118.728C138.547 118.728 138.01 120.648 137.395 122.952C136.781 125.256 136.474 127.253 136.32 127.253Z" fill="var(--fill-0, #F6F8FF)"/>
<path id="Vector_60" d="M136.934 131.861C136.934 131.938 135.014 132.168 132.71 132.552C130.406 132.936 128.486 133.397 128.486 133.243C129.792 132.706 131.251 132.322 132.634 132.168C134.016 131.861 135.475 131.707 136.934 131.861Z" fill="var(--fill-0, #F6F8FF)"/>
<path id="Vector_61" d="M123.725 128.866C124.416 127.867 125.184 127.022 126.029 126.178C126.797 125.256 127.642 124.488 128.563 123.797C127.872 124.795 127.104 125.64 126.259 126.485C125.491 127.406 124.646 128.174 123.725 128.866Z" fill="var(--fill-0, #F6F8FF)"/>
<path id="Vector_62" d="M115.2 137.16C114.816 136.162 114.432 135.163 114.125 134.165C113.741 133.166 113.357 132.168 113.05 131.17C114.278 132.936 115.046 135.01 115.2 137.16Z" fill="var(--fill-0, #F6F8FF)"/>
<path id="Vector_63" d="M128.947 141.922C126.336 141.077 123.802 139.925 121.421 138.542C122.726 138.926 124.032 139.387 125.261 140.002C126.566 140.616 127.795 141.23 128.947 141.922Z" fill="var(--fill-0, #F6F8FF)"/>
<path id="Vector_64" d="M104.986 140.539C105.062 139.541 105.37 138.619 105.677 137.698C105.907 136.776 106.291 135.854 106.752 135.01C106.675 136.008 106.368 136.93 106.061 137.851C105.83 138.773 105.446 139.694 104.986 140.539Z" fill="var(--fill-0, #F6F8FF)"/>
<path id="Vector_65" d="M120.806 143.227C120.806 143.304 118.579 142.997 115.891 142.843C113.203 142.69 110.976 142.843 110.976 142.69C112.589 142.382 114.278 142.306 115.968 142.459C117.504 142.459 119.194 142.766 120.806 143.227Z" fill="var(--fill-0, #F6F8FF)"/>
<path id="Vector_66" d="M124.032 120.571C124.032 120.494 124.032 120.341 124.032 120.264C124.032 119.957 124.109 119.65 124.186 119.419C124.339 118.958 124.57 118.498 125.03 118.267C125.568 117.96 126.259 117.806 126.874 117.96L126.72 118.037C127.565 115.118 128.87 110.818 130.253 105.979C131.482 101.448 132.403 97.3007 132.941 94.3055C133.248 92.8463 133.478 91.6175 133.632 90.7727C133.709 90.3119 133.786 89.9279 133.939 89.4671C133.939 89.9279 133.862 90.3887 133.786 90.7727C133.632 91.6175 133.478 92.8463 133.171 94.3823C132.48 98.3759 131.635 102.293 130.56 106.133C129.178 110.971 127.795 115.272 126.874 118.19V118.267H126.797C126.182 118.114 125.645 118.19 125.107 118.498C124.723 118.728 124.416 119.112 124.339 119.496C124.032 120.187 124.109 120.571 124.032 120.571Z" fill="var(--fill-0, #212746)"/>
<path id="Vector_67" d="M141.312 131.246C141.235 131.246 140.774 130.248 139.776 128.712C137.242 124.642 133.632 121.416 129.331 119.189C127.718 118.344 126.643 117.96 126.643 117.96C126.874 118.037 127.181 118.037 127.411 118.19C128.102 118.421 128.794 118.651 129.408 118.958C133.786 121.032 137.472 124.334 140.006 128.558C140.39 129.173 140.698 129.864 141.005 130.478C141.082 130.709 141.235 131.016 141.312 131.246Z" fill="var(--fill-0, #212746)"/>
<g id="Group" opacity="0.2">
<path id="Vector_68" d="M127.027 117.346C129.792 117.422 132.48 117.883 135.091 118.805C137.856 119.803 140.39 121.8 141.389 124.565C141.696 125.179 141.696 125.947 141.235 126.562C140.851 126.869 140.237 127.022 139.776 126.792C139.315 126.562 138.854 126.331 138.47 125.947C136.781 124.411 135.014 123.029 133.248 121.493C131.482 119.957 128.947 118.421 126.72 118.037" fill="var(--fill-0, #212746)"/>
</g>
<path id="Vector_69" d="M121.498 112.507C121.267 112.661 121.037 112.814 120.73 112.968C119.962 113.352 119.194 113.659 118.349 113.89C112.819 115.426 106.906 113.89 102.912 109.896C102.298 109.282 101.76 108.667 101.299 107.976C101.146 107.746 100.915 107.515 100.838 107.208C100.915 107.131 101.606 108.283 103.142 109.742C107.213 113.582 112.896 115.042 118.349 113.659C120.346 113.045 121.498 112.43 121.498 112.507Z" fill="var(--fill-0, #212746)"/>
<g id="Group_2" opacity="0.2">
<path id="Vector_70" d="M101.222 107.669C102.528 110.51 104.064 113.352 106.522 115.195C107.904 116.347 109.594 117.115 111.36 117.192C113.894 117.269 116.122 115.502 118.118 113.813C111.667 114.888 104.525 111.97 101.222 107.669Z" fill="var(--fill-0, #212746)"/>
</g>
<path id="Vector_71" d="M129.638 70.0367C129.485 70.0367 129.638 67.4255 129.331 64.1999C129.024 60.9743 128.41 58.4399 128.486 58.3631C128.717 58.9007 128.947 59.4383 129.024 59.9759C129.331 61.3583 129.562 62.7407 129.715 64.1231C129.869 65.5055 129.869 66.8879 129.792 68.2703C129.792 68.8847 129.715 69.4991 129.638 70.0367Z" fill="var(--fill-0, #212746)"/>
<path id="Vector_72" d="M38.4768 172.795C38.4768 172.795 30.1056 174.638 22.656 173.486C15.6672 172.411 5.80597e-06 173.486 5.80597e-06 182.702C5.80597e-06 192.994 20.8896 190.459 29.0304 188.846C37.1712 187.234 45.2352 185.774 45.2352 185.774L38.4768 172.795Z" fill="var(--fill-0, #D0E957)"/>
<path id="Vector_73" d="M19.7376 186.005C19.2768 184.853 18.9696 183.624 18.7392 182.472C18.432 181.243 18.2016 180.014 18.1248 178.786C18.5856 179.938 18.8928 181.166 19.1232 182.318C19.4304 183.547 19.6608 184.776 19.7376 186.005Z" fill="var(--fill-0, #212746)"/>
<path id="Vector_74" d="M22.656 186.158C22.0416 183.778 21.7344 181.243 21.6576 178.786C22.0416 180.014 22.272 181.243 22.3488 182.472C22.5792 183.624 22.656 184.853 22.656 186.158Z" fill="var(--fill-0, #212746)"/>
<path id="Vector_75" d="M25.344 185.083C25.0368 184.008 24.8064 182.933 24.7296 181.858C24.4992 180.782 24.4992 179.707 24.576 178.632C25.1136 180.706 25.344 182.856 25.344 185.083Z" fill="var(--fill-0, #212746)"/>
<path id="Vector_76" d="M29.7216 184.008C29.184 183.163 28.8 182.242 28.6464 181.243C28.3392 180.322 28.2624 179.323 28.3392 178.325C28.6464 179.246 28.8768 180.168 29.0304 181.166C29.2608 182.088 29.4912 183.01 29.7216 184.008Z" fill="var(--fill-0, #212746)"/>
<path id="Vector_77" d="M30.6432 180.245C31.0272 180.168 31.3344 180.168 31.7184 180.168C32.7168 180.168 33.7152 180.398 34.6368 180.782C34.944 180.936 35.2512 181.09 35.5584 181.243C35.8656 181.474 36.096 181.858 36.096 182.242C36.0192 183.086 35.328 183.701 34.4832 183.624C34.4064 183.624 34.3296 183.624 34.2528 183.624C33.408 183.394 32.5632 182.856 32.1024 182.088C30.336 179.784 30.1824 176.635 31.7952 174.178C31.9488 174.024 32.1792 173.87 32.4096 173.794C32.64 173.794 32.9472 173.87 33.1008 174.024C33.408 174.331 33.5616 174.715 33.6384 175.176C33.7152 175.867 33.7152 176.558 33.5616 177.25C33.3312 178.248 32.8704 179.17 32.1792 179.861C32.0256 180.091 31.7952 180.245 31.5648 180.398C31.488 180.475 31.4112 180.475 31.3344 180.552C31.3344 180.552 31.6416 180.322 32.1024 179.784C32.7168 179.016 33.1776 178.171 33.3312 177.173C33.4848 176.558 33.4848 175.867 33.408 175.176C33.3312 174.869 33.2544 174.485 32.9472 174.254C32.7168 174.101 32.4096 174.101 32.1792 174.331C32.1792 174.331 32.1792 174.408 32.1024 174.408C30.6432 176.712 30.7968 179.63 32.4096 181.781C32.8704 182.472 33.5616 183.01 34.3296 183.24C34.944 183.394 35.6352 183.01 35.7888 182.395C35.7888 182.318 35.7888 182.318 35.7888 182.242C35.7888 181.934 35.6352 181.627 35.328 181.474C35.0976 181.243 34.7904 181.09 34.4832 181.013C33.5616 180.629 32.64 180.398 31.6416 180.322C31.0272 180.245 30.6432 180.245 30.6432 180.245Z" fill="var(--fill-0, #212746)"/>
<path id="Vector_78" d="M44.544 184.392L44.3136 184.469L43.6992 184.622L41.3184 185.16C39.2448 185.621 36.1728 186.312 32.3328 187.003C28.4928 187.694 24.0384 188.539 18.8928 189.23C16.2048 189.691 13.5168 189.768 10.8288 189.614C9.36959 189.538 7.98719 189.23 6.60479 188.846C5.91359 188.616 5.2224 188.309 4.608 187.925C3.9168 187.541 3.3024 187.08 2.8416 186.466C2.5344 186.235 2.30399 185.928 2.15039 185.621C1.38239 184.238 1.2288 182.626 1.6896 181.09C2.2272 179.707 3.1488 178.478 4.3776 177.557C5.5296 176.712 6.83519 176.098 8.14079 175.637C8.83199 175.483 9.4464 175.253 10.1376 175.099C10.8288 174.946 11.4432 174.792 12.1344 174.715C17.3568 173.87 22.1184 174.331 26.112 174.331C28.1088 174.331 29.8752 174.331 31.4112 174.254C32.7168 174.178 34.0992 174.024 35.4048 173.717L36.864 173.41L37.9392 173.102L38.5536 172.949C38.6304 172.949 38.7072 172.872 38.784 172.872C38.784 172.872 38.7072 172.872 38.5536 172.949L37.9392 173.179L36.9408 173.486L35.4816 173.87C34.176 174.101 32.7936 174.331 31.488 174.485C29.8752 174.562 28.1088 174.638 26.112 174.638C22.1184 174.638 17.3568 174.254 12.2112 175.099C11.5968 175.176 10.9056 175.406 10.2912 175.483C9.6768 175.56 8.9856 175.867 8.3712 176.021C7.0656 176.405 5.83679 177.019 4.68479 177.864C3.53279 178.709 2.61119 179.861 2.15039 181.166C1.68959 182.549 1.84319 184.085 2.53439 185.314C2.68799 185.621 2.9184 185.851 3.2256 186.082C3.6864 186.619 4.22399 187.08 4.83839 187.387C5.45279 187.771 6.14399 188.002 6.75839 188.232C8.06399 188.693 9.4464 188.923 10.9056 189C13.5936 189.154 16.2816 189.077 18.8928 188.616C23.9616 187.925 28.4928 187.157 32.256 186.466C36.0192 185.774 39.0912 185.16 41.2416 184.776L43.6992 184.315L44.3136 184.238C44.3136 184.315 44.3904 184.315 44.544 184.392Z" fill="var(--fill-0, #212746)"/>
<path id="Vector_79" d="M13.9776 189.384C13.824 188.693 13.7472 188.002 13.7472 187.234C13.6704 185.928 13.5168 184.085 13.2096 182.088C12.9024 180.091 12.5952 178.325 12.3648 177.019C12.2112 176.328 12.0576 175.637 11.9808 174.869C12.288 175.56 12.5184 176.251 12.5952 176.942C12.9792 178.632 13.3632 180.322 13.5936 182.011C13.824 183.701 13.9776 185.467 13.9776 187.157C14.1312 187.925 14.0544 188.693 13.9776 189.384Z" fill="var(--fill-0, #212746)"/>
<path id="Vector_80" opacity="0.4" d="M35.9424 173.256L41.2416 186.542L45.312 185.774L37.4784 172.795L35.9424 173.256Z" fill="var(--fill-0, #212746)"/>
<path id="Vector_81" d="M104.832 136.93C103.987 137.237 49.3056 121.877 27.1872 115.656C21.3504 114.043 15.1296 114.965 10.0608 118.267L9.75361 118.421C2.30401 123.259 -1.3056 132.168 0.691205 140.77C1.9968 146.222 5.37601 150.984 10.1376 153.902C24.7296 162.811 55.5264 181.627 56.5248 181.243C57.7536 180.782 96.3072 179.784 96.3072 179.784L49.92 146.453L71.9616 160.738L104.832 136.93Z" fill="var(--fill-0, #212746)"/>
<path id="Vector_82" d="M59.2128 120.341L70.8096 114.35L82.176 121.493L124.8 122.875L130.944 143.611L69.1968 129.326C69.1968 129.326 57.984 130.325 57.1392 127.79C56.2944 125.256 59.2128 120.341 59.2128 120.341Z" fill="var(--fill-0, #FFBE9D)"/>
<path id="Vector_83" d="M94.1568 153.595L88.3968 172.488L89.088 178.248C99.5328 188.77 116.198 189.922 128.026 180.859C135.168 175.33 139.392 166.805 139.315 157.819L139.238 138.082L94.1568 153.595Z" fill="var(--fill-0, #212746)"/>
<path id="Vector_84" d="M59.9808 153.749C59.904 153.826 53.2224 148.987 45.0816 142.92C36.9408 136.853 30.336 131.861 30.4128 131.784C30.4896 131.707 37.1712 136.546 45.312 142.613C53.4528 148.68 60.0576 153.672 59.9808 153.749Z" fill="var(--fill-0, #5A607F)"/>
<path id="Vector_85" d="M70.0416 118.037C68.1984 118.805 66.2784 119.496 64.3584 120.034C62.4384 120.725 60.5184 121.262 58.5216 121.646C60.3648 120.878 62.2848 120.187 64.2048 119.65C66.2016 119.035 68.1216 118.498 70.0416 118.037Z" fill="var(--fill-0, #EB996E)"/>
<path id="Vector_86" d="M70.9632 121.646C70.3488 121.8 69.6576 121.954 68.9664 122.03C67.7376 122.261 66.048 122.491 64.2048 122.952C62.3616 123.413 60.7488 123.874 59.52 124.181C58.9056 124.411 58.2144 124.565 57.6 124.718C58.2144 124.411 58.8288 124.104 59.4432 123.95C60.9792 123.413 62.5152 122.952 64.128 122.568C65.7408 122.184 67.2768 121.954 68.8896 121.723C69.5808 121.646 70.272 121.57 70.9632 121.646Z" fill="var(--fill-0, #EB996E)"/>
<path id="Vector_87" d="M69.9648 124.872C67.8912 125.486 65.7408 126.024 63.5904 126.331C61.44 126.792 59.2896 127.176 57.1392 127.406C59.2128 126.792 61.3632 126.331 63.5136 125.947C65.5872 125.486 67.8144 125.102 69.9648 124.872Z" fill="var(--fill-0, #EB996E)"/>
<path id="Vector_88" d="M54.912 92.4623L65.5872 127.714C65.7408 128.098 66.048 128.405 66.5088 128.405L95.6928 130.632C96.2304 130.632 96.6144 131.093 96.6144 131.63V133.474C96.6144 134.011 96.1536 134.472 95.616 134.472L15.744 132.936C15.36 132.936 14.976 132.629 14.8224 132.245L0.768002 95.4575C0.537602 94.9199 0.844793 94.3055 1.38239 94.1519C1.45919 94.0751 1.6128 94.0751 1.6896 94.0751L53.8368 91.6175C54.2976 91.6943 54.7584 92.0015 54.912 92.4623Z" fill="var(--fill-0, #5A607F)"/>
<path id="Vector_89" d="M32.4096 107.669C31.6416 107.976 31.0272 108.667 30.7968 109.435C30.72 110.28 31.104 111.125 31.872 111.662C32.7168 112.277 33.8688 112.354 34.7904 111.739C35.712 111.048 36.0192 109.819 35.5584 108.821C35.1744 107.822 33.408 107.131 32.4096 107.669Z" fill="var(--fill-0, #ADB3C7)"/>
<path id="Vector_90" d="M45.312 185.774L36.864 171.874L98.9184 123.259C102.758 120.11 107.52 118.19 112.435 117.73C126.182 116.501 138.317 126.562 139.546 140.309C139.699 141.768 139.699 143.15 139.546 144.61L138.547 156.514L97.4592 169.723L45.312 185.774Z" fill="var(--fill-0, #212746)"/>
<path id="Vector_91" d="M124.877 152.827C124.877 152.827 124.8 152.904 124.723 152.981L124.186 153.365L122.189 154.978L120.73 156.13C120.192 156.514 119.578 156.898 118.963 157.358L116.89 158.741C116.506 158.971 116.122 159.278 115.738 159.509L114.509 160.277C112.819 161.275 110.976 162.427 108.979 163.502C107.981 164.04 106.906 164.654 105.83 165.192L102.374 166.805C97.2288 169.186 92.0064 171.259 86.7072 173.026C75.3408 176.942 64.896 179.784 57.3696 182.011C55.5264 182.549 53.76 183.086 52.3008 183.547C50.8416 184.008 49.536 184.392 48.4608 184.776L46.08 185.544L45.4656 185.698C45.3888 185.698 45.312 185.774 45.2352 185.774L45.4656 185.698L46.08 185.467L48.4608 184.622C49.4592 184.238 50.7648 183.854 52.224 183.317C53.6832 182.779 55.3728 182.318 57.2928 181.704C64.8192 179.323 75.264 176.482 86.5536 172.565C92.2368 170.645 97.4592 168.494 102.221 166.344L105.677 164.731C106.752 164.194 107.827 163.579 108.826 163.118C110.899 162.12 112.742 160.968 114.432 159.97L115.661 159.202C116.045 158.971 116.429 158.664 116.813 158.434L118.963 157.051C119.578 156.59 120.192 156.206 120.73 155.822L122.189 154.747L124.186 153.211L124.723 152.827H124.877Z" fill="var(--fill-0, #5A607F)"/>
<path id="Vector_92" d="M126.413 159.278C126.259 159.432 126.029 159.509 125.798 159.586C125.414 159.739 124.8 160.046 124.032 160.277C122.035 161.045 120.038 161.582 117.965 162.043C115.891 162.504 113.818 162.811 111.667 162.965C110.899 163.042 110.208 163.042 109.747 163.042C109.517 163.042 109.286 163.042 109.056 163.042C109.901 162.888 110.822 162.811 111.667 162.734C113.28 162.581 115.507 162.274 117.888 161.736C120.269 161.198 122.419 160.584 123.955 160.123C124.723 159.739 125.568 159.509 126.413 159.278Z" fill="var(--fill-0, #5A607F)"/>
<path id="Vector_93" d="M96.4608 125.563C96.5376 125.64 83.2512 136.085 66.816 148.91C50.3808 161.736 36.9408 172.027 36.9408 171.874C36.9408 171.72 50.1504 161.352 66.5856 148.526C83.0208 135.701 96.384 125.486 96.4608 125.563Z" fill="var(--fill-0, #5A607F)"/>
<path id="Vector_94" d="M92.8512 177.173C89.856 175.56 86.5536 176.558 83.712 177.48C81.792 178.094 79.872 179.093 77.952 178.555C76.5696 178.171 75.4944 177.019 74.496 176.098C70.1184 172.104 64.3584 170.03 58.4448 170.338C56.7552 170.414 55.2192 171.106 54.0672 172.334C51.1488 175.483 53.376 179.63 55.9872 182.318C60.672 187.08 66.816 190.075 73.4208 190.766C78.8736 191.304 86.3232 190.613 91.8528 188.232C95.232 186.773 96.9984 182.779 95.232 179.477C94.6176 178.555 93.8496 177.71 92.8512 177.173Z" fill="var(--fill-0, #D0E957)"/>
<g id="Group_3" opacity="0.4">
<path id="Vector_95" d="M92.8512 179.707C89.856 178.094 86.5536 179.093 83.712 180.014C81.792 180.629 79.872 181.627 77.952 181.09C76.5696 180.706 75.4944 179.554 74.496 178.632C70.1184 174.638 64.3584 172.565 58.4448 172.872C56.7552 172.949 55.2192 173.64 54.0672 174.869C53.4528 175.483 53.0688 176.251 52.8384 177.096C53.376 179.093 54.4512 180.859 55.9872 182.318C60.672 187.08 66.816 190.075 73.4208 190.766C78.8736 191.304 86.3232 190.613 91.8528 188.232C93.8496 187.387 95.3088 185.621 95.7696 183.547C95.3088 181.934 94.2336 180.552 92.8512 179.707Z" fill="var(--fill-0, #212746)"/>
</g>
<path id="Vector_96" d="M95.6928 183.47C95.5392 182.856 95.3088 182.242 94.9248 181.704C94.464 181.09 93.9264 180.552 93.312 180.168C92.4672 179.63 91.5456 179.246 90.5472 179.093C88.32 178.862 85.7856 179.784 82.944 180.552C81.5616 180.936 80.0256 181.474 78.336 181.32C77.4912 181.243 76.6464 180.936 75.9552 180.475C75.264 180.014 74.5728 179.477 73.8816 178.939C71.5776 176.712 68.8128 175.099 65.7408 174.101C64.4352 173.64 63.0528 173.333 61.6704 173.179C60.4416 173.026 59.2896 173.026 58.0608 173.179C57.0624 173.333 56.1408 173.64 55.296 174.178C54.6816 174.562 54.0672 175.022 53.6064 175.56C52.8384 176.482 52.5312 177.173 52.5312 177.173C52.7616 176.558 53.0688 176.021 53.5296 175.483C53.9904 174.869 54.6048 174.331 55.2192 173.947C56.064 173.41 57.0624 173.026 58.0608 172.872C59.2896 172.718 60.5184 172.718 61.7472 172.872C63.1296 173.026 64.512 173.333 65.8944 173.794C67.3536 174.254 68.8128 174.946 70.1952 175.714C70.8864 176.098 71.5776 176.558 72.2688 177.096C72.96 177.634 73.5744 178.171 74.1888 178.709C74.8032 179.246 75.4944 179.784 76.1856 180.245C76.8768 180.629 77.6448 180.936 78.4128 181.013C79.9488 181.243 81.4848 180.706 82.8672 180.322C85.7088 179.554 88.32 178.632 90.624 178.939C92.4672 179.17 94.0032 180.245 95.0784 181.704C95.3088 182.088 95.5392 182.549 95.616 183.086C95.6928 183.163 95.6928 183.317 95.6928 183.47Z" fill="var(--fill-0, #212746)"/>
<path id="Vector_97" d="M95.6928 183.47C95.5392 182.856 95.3088 182.242 94.9248 181.704C94.464 181.09 93.9264 180.552 93.312 180.168C92.4672 179.63 91.5456 179.246 90.5472 179.093C88.32 178.862 85.7856 179.784 82.944 180.552C81.5616 180.936 80.0256 181.474 78.336 181.32C77.4912 181.243 76.6464 180.936 75.9552 180.475C75.264 180.014 74.5728 179.477 73.8816 178.939C71.5776 176.712 68.8128 175.099 65.7408 174.101C64.4352 173.64 63.0528 173.333 61.6704 173.179C60.4416 173.026 59.2896 173.026 58.0608 173.179C57.0624 173.333 56.1408 173.64 55.296 174.178C54.6816 174.562 54.0672 175.022 53.6064 175.56C52.8384 176.482 52.5312 177.173 52.5312 177.173C52.7616 176.558 53.0688 176.021 53.5296 175.483C53.9904 174.869 54.6048 174.331 55.2192 173.947C56.064 173.41 57.0624 173.026 58.0608 172.872C59.2896 172.718 60.5184 172.718 61.7472 172.872C63.1296 173.026 64.512 173.333 65.8944 173.794C67.3536 174.254 68.8128 174.946 70.1952 175.714C70.8864 176.098 71.5776 176.558 72.2688 177.096C72.96 177.634 73.5744 178.171 74.1888 178.709C74.8032 179.246 75.4944 179.784 76.1856 180.245C76.8768 180.629 77.6448 180.936 78.4128 181.013C79.9488 181.243 81.4848 180.706 82.8672 180.322C85.7088 179.554 88.32 178.632 90.624 178.939C92.4672 179.17 94.0032 180.245 95.0784 181.704C95.3088 182.088 95.5392 182.549 95.616 183.086C95.6928 183.163 95.6928 183.317 95.6928 183.47Z" fill="var(--fill-0, #212746)"/>
<path id="Vector_98" d="M58.752 182.779C59.2128 182.395 59.7504 182.011 60.288 181.704C61.5936 180.936 62.8992 180.245 64.2048 179.63C65.5872 179.016 66.9696 178.402 68.352 177.941C68.8896 177.71 69.504 177.557 70.1184 177.48C69.5808 177.787 69.0432 178.018 68.4288 178.248C67.3536 178.709 65.9712 179.323 64.3584 180.014C62.7456 180.706 61.3632 181.474 60.3648 182.011C59.904 182.318 59.3664 182.549 58.752 182.779Z" fill="var(--fill-0, #212746)"/>
<path id="Vector_99" d="M59.8272 185.774C61.6704 184.622 63.6672 183.624 65.664 182.702C67.584 181.704 69.5808 180.782 71.6544 180.014C69.8112 181.166 67.8144 182.165 65.8176 183.086C63.8976 184.085 61.9008 185.006 59.8272 185.774Z" fill="var(--fill-0, #212746)"/>
<path id="Vector_100" d="M72.1152 187.003C72.0384 187.08 68.8896 185.237 65.0496 182.779C61.2096 180.322 58.1376 178.325 58.1376 178.171C58.1376 178.018 61.3632 179.938 65.2032 182.395C69.0432 184.93 72.192 186.926 72.1152 187.003Z" fill="var(--fill-0, #212746)"/>
<path id="Vector_101" d="M73.8816 183.931C73.344 183.624 72.8064 183.317 72.3456 182.856C71.424 182.165 70.1184 181.243 68.6592 180.245C67.2 179.246 65.8944 178.325 64.9728 177.71C64.4352 177.403 63.8976 177.019 63.4368 176.635C64.0512 176.866 64.5888 177.173 65.1264 177.48C66.1248 178.094 67.5072 178.939 68.9664 179.938C70.4256 180.936 71.6544 181.934 72.576 182.626C73.0368 183.086 73.4976 183.47 73.8816 183.931Z" fill="var(--fill-0, #212746)"/>
</g>
</svg>
