<svg preserveAspectRatio="none" width="100%" height="100%" overflow="visible" style="display: block;" viewBox="0 0 61.7432 123.314" fill="none" xmlns="http://www.w3.org/2000/svg">
<g id="freepik--Plant--inject-114">
<path id="Vector" d="M61.4731 53.1357C61.6653 58.8836 60.3651 64.6095 57.6391 69.6933C57.0725 70.7508 56.4261 71.8301 55.8881 72.9062C55.3455 73.9914 54.8916 75.111 54.6938 76.2978V76.2997C54.3786 78.2696 54.7733 80.2742 55.1068 82.2089C55.4437 84.1625 55.7201 86.0502 55.2367 87.872L55.2357 87.8749C54.7137 89.9631 53.2583 91.7218 51.8529 93.5537C50.4659 95.3616 49.1287 97.2423 49.0082 99.5175C48.8887 101.469 49.6858 103.292 50.4389 105.046C51.2011 106.821 51.9187 108.528 51.7729 110.336C51.5604 111.815 51.0863 113.22 50.2924 114.432L50.1283 114.672L50.1215 114.683C47.1582 119.393 42.9295 122.705 36.5912 122.554V122.553L36.5785 122.554L29.0141 122.773L34.4438 104.828L34.4643 104.76L34.4467 104.691C34.121 103.461 34.3702 102.218 34.9477 101.045C35.5258 99.8699 36.4263 98.7793 37.3734 97.8701C38.3122 96.9689 39.3958 96.0581 40.3363 95.0888C41.2879 94.108 42.1384 93.0249 42.6547 91.7148C43.483 89.6243 43.3447 87.2372 43.3637 85.0292C43.3829 82.7915 43.5598 80.7258 44.9174 79.1113L44.9213 79.1074C45.6943 78.1505 46.7833 77.5198 47.9086 76.8408C49.0177 76.1715 50.1588 75.4555 50.9232 74.329H50.9242L50.9311 74.3173C51.6367 73.1413 52.1082 71.8076 52.268 70.4697C53.7507 63.9551 56.9581 58.0139 61.4731 53.1357Z" fill="var(--fill-0, #DCDFFF)" stroke="var(--stroke-0, #212746)" stroke-width="0.5"/>
<path id="Vector_2" d="M27.1392 123.264C26.448 123.341 25.68 123.341 24.9888 123.187C24.144 123.034 23.2224 122.803 22.4544 122.496C21.3024 122.112 20.2272 121.498 19.3056 120.73C18.768 120.269 18.3072 119.654 18 118.963C17.7696 118.195 17.616 117.427 17.616 116.582C17.616 115.738 17.5392 114.893 17.4624 113.971C17.3088 113.05 17.0016 112.205 16.5408 111.437C15.6192 109.824 14.0832 108.211 13.6224 105.984C13.1616 103.757 13.4688 101.376 13.8528 99.072C14.2368 96.768 14.6208 94.08 13.6992 91.6224C12.7776 89.1648 11.1648 86.8608 10.2432 84.096C9.3216 81.3312 9.7824 78.2592 9.6288 75.264C9.552 73.728 9.2448 72.2688 8.6304 70.8096C8.016 69.4272 7.0944 68.0448 6.4032 66.5856C5.0208 63.5904 4.7904 60.2112 4.4064 56.9088C4.2528 55.2192 4.0224 53.5296 3.8688 51.84C3.792 50.1504 3.4848 48.384 3.024 46.7712C2.4864 45.0816 1.872 43.4688 1.1808 41.856C0.7968 41.0112 0.4896 40.1664 0.2592 39.2448C0.1056 38.3232 0.0288001 37.4016 0.0288001 36.48C-0.0479999 34.6368 0.0287995 32.7936 0.2592 31.0272C0.4896 29.184 0.7968 27.3408 1.0272 25.5744C1.0272 25.4976 1.0272 25.344 1.0272 25.2672V24.8832L1.3344 25.0368C3.024 25.8816 4.4832 27.1104 5.5584 28.6464C6.6336 30.1056 7.5552 31.7952 8.1696 33.4848C9.4752 36.9408 9.936 40.4736 10.5504 43.8528C11.1648 47.232 12.0096 50.6112 13.776 53.4528C14.6208 54.912 15.696 56.1408 16.6176 57.5232C17.616 58.9056 18.2304 60.4416 18.5376 62.0544C18.9984 65.4336 17.1552 68.352 17.4624 71.3472C17.6928 72.8064 18.1536 74.1888 18.9216 75.4944C19.6128 76.8 20.4576 77.952 21.3024 79.104C22.1472 80.256 22.8384 81.4848 23.4528 82.7904C23.9904 84.0192 24.3744 85.4016 24.4512 86.784C24.6048 89.472 24.2208 92.0064 24.4512 94.3872C24.6816 96.6912 25.296 98.9184 26.3712 100.915C27.2928 102.835 28.368 104.678 29.2896 106.368C29.7504 107.213 30.1344 108.058 30.5184 108.902C30.8256 109.747 31.056 110.592 31.2096 111.437C31.44 112.973 31.44 114.432 31.2096 115.968C30.9792 118.042 30.2112 120.038 28.9056 121.728C28.6752 121.958 28.5216 122.189 28.2912 122.419C28.1376 122.573 27.984 122.726 27.7536 122.88L27.1392 123.264C27.7536 122.803 28.2144 122.266 28.6752 121.728C29.904 120.038 30.672 118.042 30.8256 115.968C30.9792 114.509 30.9792 112.973 30.7488 111.514C30.5952 110.669 30.3648 109.824 30.0576 109.056C29.7504 108.211 29.2896 107.443 28.8288 106.522C27.9072 104.832 26.832 103.066 25.9104 101.069C24.8352 98.9952 24.144 96.768 23.9136 94.3872C23.6832 91.9296 24.0672 89.3952 23.9136 86.784C23.8368 85.4784 23.5296 84.1728 22.992 82.944C22.3776 81.7152 21.6864 80.4864 20.9184 79.3344C20.1504 78.1824 19.3056 76.9536 18.5376 75.648C17.7696 74.3424 17.232 72.8832 17.0784 71.3472C16.6944 68.1984 18.5376 65.2032 18.0768 62.1312C17.7696 60.5952 17.1552 59.0592 16.1568 57.8304C15.2352 56.448 14.2368 55.1424 13.3152 53.6832C11.5488 50.7648 10.704 47.3088 10.0128 43.9296C9.3216 40.5504 8.8608 36.9408 7.632 33.6384C7.0176 31.9488 6.1728 30.336 5.0976 28.9536C4.0224 27.4944 2.64 26.3424 1.0272 25.4976L1.4112 25.2672V25.5744C1.1808 27.4176 0.8736 29.2608 0.6432 31.0272C0.4128 32.7936 0.336 34.6368 0.4128 36.4032C0.4896 37.248 0.4896 38.2464 0.6432 39.0912C0.8736 39.936 1.1808 40.7808 1.488 41.5488C2.1792 43.1616 2.8704 44.8512 3.408 46.5408C3.8688 48.2304 4.176 49.92 4.2528 51.6864C4.4064 53.376 4.6368 55.0656 4.7904 56.7552C5.1744 60.1344 5.4048 63.4368 6.7104 66.3552C7.4016 67.8144 8.2464 69.12 8.9376 70.5792C9.552 72.0384 9.936 73.5744 10.0128 75.1872C10.1664 78.2592 9.7824 81.2544 10.5504 83.9424C11.3184 86.6304 13.0848 88.9344 13.9296 91.4688C14.7744 94.0032 14.4672 96.768 14.0832 99.1488C13.6992 101.53 13.3152 103.834 13.776 105.984C14.2368 108.134 15.696 109.67 16.6944 111.36C17.1552 112.205 17.5392 113.05 17.6928 114.048C17.7696 114.893 17.8464 115.814 17.8464 116.659C17.8464 117.427 17.9232 118.195 18.1536 118.963C18.384 119.654 18.8448 120.192 19.3824 120.653C20.304 121.421 21.3792 122.035 22.4544 122.419C23.2992 122.726 24.144 122.957 24.9888 123.11C25.5264 123.187 26.064 123.264 26.6016 123.264C26.9088 123.264 27.1392 123.264 27.1392 123.264Z" fill="var(--fill-0, #212746)"/>
<path id="Vector_3" d="M2.5632 29.568C2.5632 29.6448 2.64 29.7216 2.64 29.7984C2.64 29.952 2.7168 30.1824 2.7936 30.4896C2.9472 31.104 3.1008 32.0256 3.408 33.2544C3.7152 34.4832 4.4064 35.7888 5.0208 37.4016C5.6352 39.0144 6.3264 40.9344 6.864 43.008C7.4016 45.0816 8.016 47.4624 8.5536 49.9968C9.0144 52.6848 9.8592 55.296 11.0112 57.8304C11.6256 59.136 12.3936 60.4416 12.9312 61.824C13.4688 63.2832 13.8528 64.8192 14.0832 66.3552C14.4672 69.5808 15.0048 72.8064 15.7728 75.9552C17.3088 82.4832 18.8448 88.704 20.1504 94.3104C21.456 99.9168 22.7616 104.986 23.8368 109.286C24.912 113.587 25.68 116.966 26.2944 119.424L26.9088 122.189C26.9856 122.496 27.0624 122.726 27.0624 122.88C27.0624 122.957 27.0624 123.034 27.0624 123.11C26.9856 123.034 26.9856 122.957 26.9856 122.88L26.7552 122.189C26.6016 121.498 26.2944 120.653 25.9872 119.424L23.376 109.363C22.3008 105.062 20.9952 99.9936 19.6128 94.3872C18.2304 88.7808 16.7712 82.56 15.1584 76.032C14.4672 72.8064 13.9296 69.5808 13.5456 66.3552C13.392 64.8192 13.008 63.36 12.4704 61.9008C11.9328 60.5184 11.1648 59.2128 10.5504 57.9072C9.3984 55.4496 8.5536 52.7616 8.0928 50.0736C7.5552 47.5392 7.0944 45.1584 6.48 43.0848C5.8656 41.0112 5.328 39.0912 4.7136 37.4784C4.0992 35.8656 3.4848 34.4832 3.1776 33.2544C2.8704 32.0256 2.7936 31.104 2.64 30.4896C2.5632 30.1824 2.5632 29.952 2.4864 29.7216C2.5632 29.7984 2.5632 29.7216 2.5632 29.568Z" fill="var(--fill-0, #212746)"/>
<g id="Vector_4">
<mask id="path-4-inside-1_0_183" fill="white">
<path d="M25.68 123.264C20.5344 120.192 19.0752 110.822 21.3024 105.139C23.5296 99.456 27.2928 94.3872 27.9072 88.3968C28.368 83.7888 26.9088 79.0272 27.984 74.5728C29.4432 68.5056 35.4336 63.8208 35.4336 57.5232C35.4336 53.9904 33.4368 50.688 33.5904 47.1552C33.8208 42.8544 37.1232 39.4752 39.1968 35.712C42.3456 29.952 42.576 23.04 43.728 16.5888C44.88 10.1376 47.3376 3.1488 53.0976 0C53.9424 5.5296 55.3248 9.29279 54.864 16.8192C54.7104 19.5072 51.5616 24.6528 51.1008 30.4896C50.8704 34.0224 50.64 37.5552 50.4096 41.088C50.1792 44.6208 49.9488 48 48.72 51.2256C47.7984 53.6832 46.2624 55.9104 45.4944 58.4448C44.112 63.2064 45.8784 68.4288 44.7264 73.1904C43.8048 77.2608 40.9632 80.7936 40.3488 84.9408C39.504 90.7776 43.2672 96.8448 41.2704 102.451C40.272 105.216 38.0448 107.443 37.3536 110.285C36.816 112.512 37.3536 114.816 36.8928 117.043C36.1248 120.653 29.2896 123.341 25.6032 123.11"/>
</mask>
<path d="M25.68 123.264C20.5344 120.192 19.0752 110.822 21.3024 105.139C23.5296 99.456 27.2928 94.3872 27.9072 88.3968C28.368 83.7888 26.9088 79.0272 27.984 74.5728C29.4432 68.5056 35.4336 63.8208 35.4336 57.5232C35.4336 53.9904 33.4368 50.688 33.5904 47.1552C33.8208 42.8544 37.1232 39.4752 39.1968 35.712C42.3456 29.952 42.576 23.04 43.728 16.5888C44.88 10.1376 47.3376 3.1488 53.0976 0C53.9424 5.5296 55.3248 9.29279 54.864 16.8192C54.7104 19.5072 51.5616 24.6528 51.1008 30.4896C50.8704 34.0224 50.64 37.5552 50.4096 41.088C50.1792 44.6208 49.9488 48 48.72 51.2256C47.7984 53.6832 46.2624 55.9104 45.4944 58.4448C44.112 63.2064 45.8784 68.4288 44.7264 73.1904C43.8048 77.2608 40.9632 80.7936 40.3488 84.9408C39.504 90.7776 43.2672 96.8448 41.2704 102.451C40.272 105.216 38.0448 107.443 37.3536 110.285C36.816 112.512 37.3536 114.816 36.8928 117.043C36.1248 120.653 29.2896 123.341 25.6032 123.11" fill="#DCDFFF"/>
<path d="M27.9072 88.3968L28.4046 88.4478L28.4047 88.4465L27.9072 88.3968ZM27.984 74.5728L28.47 74.6901L28.4701 74.6897L27.984 74.5728ZM33.5904 47.1552L33.0911 47.1284L33.0909 47.1335L33.5904 47.1552ZM39.1968 35.712L39.6347 35.9533L39.6355 35.9518L39.1968 35.712ZM53.0976 0L53.5919 -0.0755127L53.4841 -0.781103L52.8578 -0.438724L53.0976 0ZM54.864 16.8192L54.3649 16.7886L54.3648 16.7907L54.864 16.8192ZM51.1008 30.4896L50.6023 30.4502L50.6019 30.457L51.1008 30.4896ZM48.72 51.2256L48.2527 51.0476L48.2518 51.05L48.72 51.2256ZM45.4944 58.4448L45.0159 58.2998L45.0142 58.3054L45.4944 58.4448ZM44.7264 73.1904L44.2404 73.0728L44.2387 73.08L44.7264 73.1904ZM40.3488 84.9408L39.8542 84.8675L39.854 84.8692L40.3488 84.9408ZM41.2704 102.451L41.7407 102.621L41.7414 102.619L41.2704 102.451ZM37.3536 110.285L36.8678 110.167L36.8676 110.167L37.3536 110.285ZM36.8928 117.043L37.3819 117.147L37.3824 117.144L36.8928 117.043ZM25.68 123.264L25.9363 122.835C23.5323 121.399 21.9308 118.446 21.2155 115.077C20.5022 111.717 20.6965 108.056 21.7679 105.322L21.3024 105.139L20.8369 104.957C19.6811 107.906 19.4914 111.771 20.2373 115.285C20.9812 118.789 22.6821 122.057 25.4237 123.693L25.68 123.264ZM21.3024 105.139L21.7679 105.322C22.8738 102.5 24.3456 99.8654 25.6612 97.0978C26.9643 94.3565 28.0885 91.5295 28.4046 88.4478L27.9072 88.3968L27.4098 88.3458C27.1115 91.2545 26.0469 93.957 24.758 96.6685C23.4816 99.3538 21.9582 102.095 20.8369 104.957L21.3024 105.139ZM27.9072 88.3968L28.4047 88.4465C28.6406 86.0875 28.3848 83.6883 28.2138 81.3901C28.0411 79.0684 27.9525 76.834 28.47 74.6901L27.984 74.5728L27.498 74.4555C26.9403 76.766 27.0437 79.1396 27.2166 81.4643C27.3912 83.8125 27.6346 86.0981 27.4097 88.347L27.9072 88.3968ZM27.984 74.5728L28.4701 74.6897C29.176 71.7548 30.9774 69.1527 32.6813 66.3974C34.3605 63.6817 35.9336 60.8277 35.9336 57.5232H35.4336H34.9336C34.9336 60.5162 33.5115 63.1534 31.8307 65.8714C30.1746 68.5497 28.2512 71.3236 27.4979 74.4559L27.984 74.5728ZM35.4336 57.5232H35.9336C35.9336 55.6746 35.411 53.8956 34.9358 52.204C34.4533 50.4864 34.0171 48.8518 34.0899 47.1769L33.5904 47.1552L33.0909 47.1335C33.0101 48.9914 33.4955 50.7744 33.973 52.4744C34.4578 54.2003 34.9336 55.839 34.9336 57.5232H35.4336ZM33.5904 47.1552L34.0897 47.1819C34.1984 45.1531 35.0323 43.3174 36.1309 41.4896C36.6805 40.5752 37.2867 39.6778 37.8953 38.7589C38.5005 37.845 39.1056 36.9135 39.6347 35.9533L39.1968 35.712L38.7589 35.4707C38.2512 36.3921 37.6659 37.2941 37.0615 38.2067C36.4605 39.1142 35.8379 40.036 35.2738 40.9744C34.1453 42.8522 33.2128 44.8565 33.0911 47.1284L33.5904 47.1552ZM39.1968 35.712L39.6355 35.9518C41.247 33.0041 42.1038 29.7762 42.703 26.4996C43.0027 24.861 43.2392 23.2025 43.4719 21.5585C43.705 19.9111 43.9341 18.2789 44.2202 16.6767L43.728 16.5888L43.2358 16.5009C42.9459 18.1243 42.7142 19.7753 42.4817 21.4183C42.2488 23.0647 42.0149 24.7038 41.7194 26.3196C41.1282 29.5518 40.2954 32.6599 38.7581 35.4722L39.1968 35.712ZM43.728 16.5888L44.2202 16.6767C45.3695 10.2406 47.7959 3.46812 53.3374 0.438724L53.0976 0L52.8578 -0.438724C46.8793 2.82948 44.3905 10.0346 43.2358 16.5009L43.728 16.5888ZM53.0976 0L52.6033 0.0755127C53.4589 5.67575 54.8214 9.33329 54.3649 16.7886L54.864 16.8192L55.3631 16.8497C55.8282 9.2523 54.4259 5.38345 53.5919 -0.0755127L53.0976 0ZM54.864 16.8192L54.3648 16.7907C54.3306 17.3897 54.1252 18.16 53.8027 19.1072C53.481 20.0521 53.0659 21.1098 52.6283 22.3012C51.7615 24.6606 50.8384 27.4599 50.6024 30.4502L51.1008 30.4896L51.5992 30.5289C51.824 27.6825 52.7057 24.9906 53.5669 22.646C53.9933 21.4854 54.423 20.3878 54.7493 19.4295C55.0748 18.4736 55.3206 17.5927 55.3632 16.8477L54.864 16.8192ZM51.1008 30.4896L50.6019 30.457C50.4867 32.2234 50.3715 33.9898 50.2563 35.7562C50.1411 37.5227 50.0259 39.2891 49.9107 41.0555L50.4096 41.088L50.9085 41.1205C51.0237 39.3541 51.1389 37.5877 51.2541 35.8213C51.3693 34.0549 51.4845 32.2885 51.5997 30.5221L51.1008 30.4896ZM50.4096 41.088L49.9107 41.0555C49.6795 44.5999 49.4505 47.9036 48.2528 51.0476L48.72 51.2256L49.1872 51.4036C50.4471 48.0964 50.6789 44.6417 50.9085 41.1205L50.4096 41.088ZM48.72 51.2256L48.2518 51.05C47.8029 52.2471 47.2043 53.3887 46.6031 54.5813C46.0077 55.7626 45.4137 56.9871 45.0159 58.2998L45.4944 58.4448L45.9729 58.5898C46.3431 57.3681 46.9011 56.2117 47.4961 55.0314C48.0853 53.8625 48.7155 52.6617 49.1882 51.4011L48.72 51.2256ZM45.4944 58.4448L45.0142 58.3054C44.2962 60.7785 44.4003 63.3563 44.5246 65.8426C44.6504 68.3584 44.796 70.7762 44.2404 73.0728L44.7264 73.1904L45.2124 73.308C45.8088 70.8429 45.6472 68.2688 45.5234 65.7926C45.3981 63.2869 45.3102 60.8727 45.9746 58.5842L45.4944 58.4448ZM44.7264 73.1904L44.2387 73.08C43.7927 75.0498 42.8811 76.8951 41.9703 78.8232C41.0697 80.7298 40.1736 82.7115 39.8542 84.8675L40.3488 84.9408L40.8434 85.0141C41.1384 83.0229 41.9703 81.1646 42.8745 79.2503C43.7685 77.3577 44.7384 75.4014 45.2141 73.3008L44.7264 73.1904ZM40.3488 84.9408L39.854 84.8692C39.4162 87.8937 40.1737 90.9734 40.7512 93.8798C41.3376 96.8312 41.7466 99.6239 40.7994 102.283L41.2704 102.451L41.7414 102.619C42.791 99.6721 42.3168 96.628 41.732 93.6849C41.1383 90.697 40.4366 87.8247 40.8436 85.0124L40.3488 84.9408ZM41.2704 102.451L40.8001 102.281C40.3223 103.605 39.5498 104.802 38.7701 106.079C38.0028 107.335 37.2338 108.662 36.8678 110.167L37.3536 110.285L37.8394 110.403C38.1646 109.066 38.8548 107.858 39.6235 106.6C40.3798 105.361 41.2201 104.063 41.7407 102.621L41.2704 102.451ZM37.3536 110.285L36.8676 110.167C36.5823 111.349 36.5849 112.541 36.5944 113.668C36.6041 114.814 36.6207 115.891 36.4032 116.942L36.8928 117.043L37.3824 117.144C37.6257 115.969 37.6039 114.779 37.5944 113.66C37.5847 112.521 37.5873 111.447 37.8396 110.402L37.3536 110.285ZM36.8928 117.043L36.4037 116.939C36.2403 117.707 35.7438 118.467 34.9812 119.182C34.2215 119.894 33.2259 120.535 32.1249 121.067C29.9116 122.136 27.3679 122.72 25.6344 122.611L25.6032 123.11L25.572 123.609C27.5249 123.731 30.242 123.087 32.5599 121.967C33.7245 121.404 34.8121 120.711 35.6652 119.911C36.5154 119.114 37.1613 118.184 37.3819 117.147L36.8928 117.043Z" fill="var(--stroke-0, #212746)" mask="url(#path-4-inside-1_0_183)"/>
</g>
<path id="Vector_5" d="M51.7152 5.4528C51.7152 5.5296 51.7152 5.6832 51.7152 5.76C51.7152 5.9904 51.6384 6.29759 51.5616 6.68159C51.408 7.44959 51.3312 8.67839 51.024 10.1376C50.7168 11.5968 49.9488 13.3632 49.2576 15.4368C48.5664 17.5104 47.8752 19.8912 47.3376 22.5024C46.8 25.1136 46.2624 28.1088 45.648 31.2576C45.0336 34.4064 44.496 37.8624 42.96 41.1648C42.192 42.7776 41.424 44.4672 40.8096 46.2336C40.1952 48.0768 39.8112 49.92 39.6576 51.84C39.3504 55.9104 38.8128 59.904 38.0448 63.8976C36.432 72.0384 34.8192 79.872 33.4368 86.9376L29.4432 105.677C28.2912 110.976 27.3696 115.277 26.7552 118.349C26.448 119.808 26.1408 120.96 25.9872 121.805L25.7568 122.726C25.7568 122.803 25.68 122.957 25.68 123.034C25.68 122.957 25.68 122.803 25.68 122.726C25.7568 122.496 25.7568 122.189 25.8336 121.805C25.9872 120.96 26.2176 119.808 26.5248 118.349C27.1392 115.354 27.984 110.976 29.0592 105.677C30.1344 100.378 31.44 93.9264 32.8992 86.8608L37.5072 63.8208C38.2752 59.8272 38.8128 55.8336 39.12 51.7632C39.2736 49.8432 39.6576 47.9232 40.272 46.08C40.8864 44.3136 41.7312 42.624 42.4992 41.0112C44.112 37.7856 44.6496 34.4064 45.264 31.1808C45.8784 27.9552 46.3392 25.0368 46.9536 22.4256C47.568 19.8144 48.2592 17.3568 48.9504 15.36C49.6416 13.3632 50.4096 11.5968 50.7168 10.1376C51.024 8.67839 51.1776 7.44959 51.3312 6.68159C51.408 6.29759 51.4848 5.9904 51.4848 5.76C51.6384 5.6832 51.6384 5.6064 51.7152 5.4528Z" fill="var(--fill-0, #212746)"/>
</g>
</svg>
