<svg preserveAspectRatio="none" width="100%" height="100%" overflow="visible" style="display: block;" viewBox="0 0 26 26" fill="none" xmlns="http://www.w3.org/2000/svg">
<path id="Vector" d="M19.4997 7.58358C19.4997 7.79784 19.4362 8.00729 19.3172 8.18544C19.1981 8.36359 19.0289 8.50244 18.831 8.58444C18.633 8.66643 18.4152 8.68788 18.2051 8.64608C17.9949 8.60428 17.8019 8.50111 17.6504 8.3496C17.4989 8.1981 17.3957 8.00507 17.3539 7.79493C17.3121 7.58478 17.3336 7.36696 17.4156 7.16901C17.4976 6.97106 17.6364 6.80187 17.8146 6.68283C17.9927 6.5638 18.2022 6.50026 18.4164 6.50026C18.7037 6.50026 18.9793 6.6144 19.1824 6.81756C19.3856 7.02072 19.4997 7.29627 19.4997 7.58358ZM15.1665 9.75022C14.9522 9.75022 14.7428 9.81376 14.5646 9.93279C14.3865 10.0518 14.2476 10.221 14.1656 10.419C14.0836 10.6169 14.0622 10.8347 14.104 11.0449C14.1458 11.255 14.2489 11.4481 14.4004 11.5996C14.5519 11.7511 14.745 11.8542 14.9551 11.896C15.1653 11.9378 15.3831 11.9164 15.581 11.8344C15.779 11.7524 15.9482 11.6135 16.0672 11.4354C16.1862 11.2572 16.2498 11.0478 16.2498 10.8335C16.2498 10.5462 16.1356 10.2707 15.9325 10.0675C15.7293 9.86435 15.4538 9.75022 15.1665 9.75022ZM11.9165 13.0002C11.7022 13.0002 11.4928 13.0637 11.3146 13.1827C11.1365 13.3018 10.9976 13.471 10.9157 13.6689C10.8337 13.8669 10.8122 14.0847 10.854 14.2948C10.8958 14.505 10.999 14.698 11.1505 14.8495C11.302 15.001 11.495 15.1042 11.7052 15.146C11.9153 15.1878 12.1331 15.1663 12.3311 15.0844C12.529 15.0024 12.6982 14.8635 12.8173 14.6854C12.9363 14.5072 12.9998 14.2978 12.9998 14.0835C12.9998 13.7962 12.8857 13.5206 12.6825 13.3175C12.4794 13.1143 12.2038 13.0002 11.9165 13.0002ZM25.2977 0.70234C25.6205 1.02224 25.8447 1.42818 25.9434 1.87184C26.0421 2.3155 26.0112 2.77819 25.8545 3.20481L25.7732 3.43339C24.1461 7.94866 22.585 12.2419 19.4997 16.0551V16.2501C19.495 18.0993 19.0622 19.9222 18.2352 21.5761C17.4082 23.23 16.2096 24.67 14.7331 25.7833L14.4428 26H9.74987V22.1152L7.58323 19.9486L5.09918 22.4326L3.56737 20.9008L6.05142 18.4168L3.88478 16.2501H0V11.3102L0.216664 11.022C1.34108 9.57498 2.78941 8.41201 4.44516 7.62666C6.10091 6.84131 7.91786 6.4555 9.74987 6.50026H9.94487C13.7581 3.41605 18.0481 1.85499 22.5612 0.22893L22.7952 0.145514C23.2218 -0.0112485 23.6845 -0.0421075 24.1282 0.0566117C24.5718 0.155331 24.9778 0.379469 25.2977 0.70234V0.70234ZM2.16664 14.0835H3.70387C4.76307 12.2563 5.98921 10.5312 7.36657 8.93015C5.33122 9.35119 3.4984 10.449 2.16664 12.0447V14.0835ZM17.0081 18.6919C15.4237 20.0452 13.7195 21.2516 11.9165 22.2961V23.8334H13.7116C15.3297 22.5142 16.4846 20.713 17.0081 18.6919V18.6919ZM23.7648 2.23524C23.7359 2.20313 23.6977 2.18085 23.6556 2.17153C23.6134 2.1622 23.5694 2.1663 23.5297 2.18324L23.2968 2.26774C18.0492 4.15813 13.5177 5.79177 9.61554 9.6928C8.11067 11.3041 6.79292 13.0805 5.68742 14.9881L11.0119 20.3137C12.9191 19.2072 14.6955 17.8891 16.3072 16.3845C20.2071 12.4845 21.843 7.94866 23.7344 2.6989L23.8168 2.47032C23.8335 2.43058 23.8376 2.38661 23.8282 2.34449C23.8189 2.30237 23.7967 2.26419 23.7648 2.23524V2.23524Z" fill="var(--fill-0, #6D7BFC)"/>
</svg>
