<svg preserveAspectRatio="none" width="100%" height="100%" overflow="visible" style="display: block;" viewBox="0 0 21 22" fill="none" xmlns="http://www.w3.org/2000/svg">
<g id="Vector">
<path d="M10.5282 17.4164C10.873 17.4171 11.2146 17.3463 11.5332 17.2081C11.8519 17.07 12.1413 16.8673 12.3849 16.6116L15.8141 13.0165L14.5768 11.724L11.3979 15.0551L11.3752 0H9.6252L9.64795 15.0405L6.48045 11.7222L5.2432 13.0165L8.67232 16.6089C8.91565 16.8649 9.20486 17.068 9.52335 17.2066C9.84184 17.3452 10.1833 17.4165 10.5282 17.4164Z" fill="white"/>
<path d="M19.25 14.6668V19.25C19.25 19.4932 19.1578 19.7263 18.9937 19.8982C18.8296 20.0701 18.6071 20.1667 18.375 20.1667H2.625C2.39294 20.1667 2.17038 20.0701 2.00628 19.8982C1.84219 19.7263 1.75 19.4932 1.75 19.25V14.6668H0V19.25C0 19.9794 0.276562 20.6788 0.768845 21.1946C1.26113 21.7103 1.92881 22 2.625 22H18.375C19.0712 22 19.7389 21.7103 20.2312 21.1946C20.7234 20.6788 21 19.9794 21 19.25V14.6668H19.25Z" fill="white"/>
</g>
</svg>
