<svg preserveAspectRatio="none" width="100%" height="100%" overflow="visible" style="display: block;" viewBox="0 0 29.6789 53.8489" fill="none" xmlns="http://www.w3.org/2000/svg">
<path id="Vector" d="M29.6436 53.2906C29.2566 49.2601 25.6828 48.6168 22.6632 47.895C22.6632 47.895 7.36821 45.2884 6.19414 45.1511C3.72374 44.8622 3.86102 44.2849 3.86102 44.1404C3.86102 43.8515 3.9983 43.418 5.23317 43.2742C10.729 42.6315 15.3704 42.2399 20.7413 40.8186C24.0092 39.9256 24.761 37.659 24.7002 35.7114C24.629 33.4232 22.6175 32.1372 21.0159 31.7195C18.3167 31.0402 15.9783 30.6865 13.0562 30.2753C11.7063 30.0962 8.52726 29.5529 8.47627 28.839C8.25269 28.2532 12.4241 27.3353 14.1545 26.809C17.1746 25.9415 18.773 24.1992 17.8597 21.6096C17.0197 19.8111 15.8005 19.6058 13.7426 18.8658C11.9599 18.3434 10.5858 17.5661 11.1349 15.8329C11.5664 14.5771 11.7985 14.3613 12.073 12.6151C12.2659 11.4377 12.3424 7.63339 12.3071 5.35959L12.9477 6.28074C13.8701 7.26205 15.6044 6.52983 15.5632 5.14711C15.5632 4.71824 15.4024 4.31552 15.1102 4.01413L11.6592 0.450446C11.3827 0.164096 10.9885 0 10.578 0C10.1674 0 9.77324 0.164096 9.49672 0.449792L6.04574 4.01348C5.75288 4.31487 5.59206 4.71759 5.59206 5.14646C5.55742 6.52852 7.28192 7.28232 8.20759 6.27878L9.12868 5.35828C9.13456 5.39489 9.15417 6.54356 9.15417 6.54356C9.19862 8.7363 9.50456 10.9885 8.69526 13.1996C6.07385 18.4003 7.99513 20.7336 11.975 21.6946C13.3471 22.1065 14.7036 22.4759 14.429 23.0538C14.0172 24.209 4.28201 24.0377 5.23383 29.6974C5.55349 31.5064 7.56694 32.7302 9.6255 33.1637C12.2384 33.7135 17.678 34.5993 18.3121 34.7164C18.9704 34.8537 21.901 35.157 21.1355 36.3933C20.6047 37.3524 16.2941 37.9381 12.0959 38.652C8.91687 39.0633 5.52996 39.1692 4.56965 39.4163C2.56862 39.8033 -0.220794 41.2462 0.0138908 44.5196C0.328329 48.0611 3.77015 48.5873 5.63259 48.8717C5.63259 48.8717 21.5022 51.054 24.1733 51.9399C24.9094 52.2112 26.6365 52.7695 26.6666 53.8489L29.6789 53.675L29.6436 53.2919V53.2906Z" fill="var(--fill-0, #D0E957)"/>
</svg>
