<svg preserveAspectRatio="none" width="100%" height="100%" overflow="visible" style="display: block;" viewBox="0 0 152.372 130.842" fill="none" xmlns="http://www.w3.org/2000/svg">
<g id="Group">
<g id="Group_2">
<path id="Vector" d="M36.798 97.1867L10.4963 70.908C9.7645 70.184 8.7242 69.9762 7.76999 70.3633C6.81578 70.7575 6.22747 71.6464 6.22747 72.6714V101.445H35.0259C36.059 101.445 36.9415 100.857 37.3361 99.9035C37.7307 98.9501 37.5226 97.9107 36.7908 97.1796L36.798 97.1867ZM36.1308 99.4089C35.9371 99.8676 35.5281 100.147 35.0259 100.147H7.53323V72.6786C7.53323 72.1768 7.80586 71.7682 8.2722 71.5747C8.73854 71.3883 9.22641 71.4815 9.57796 71.8327L13.0791 75.3308L9.95104 78.4562L10.8765 79.3809L14.0046 76.2555L17.6923 79.94L14.5642 83.0653L15.4898 83.99L18.6178 80.8647L22.3055 84.5492L19.1774 87.6745L20.103 88.5992L23.231 85.4739L26.9187 89.1583L23.7907 92.2837L24.7162 93.2084L27.8442 90.083L31.5319 93.7675L28.4039 96.8928L29.3294 97.8175L32.4575 94.6922L35.8869 98.1186C36.2384 98.4698 36.3389 98.9573 36.1451 99.4232L36.1308 99.4089Z" fill="var(--fill-0, #F3F4FF)"/>
<path id="Vector_2" d="M12.7491 94.9287H22.1477L12.7491 85.5384V94.9287ZM14.0549 88.6852L18.9981 93.6241H14.0549V88.6852Z" fill="var(--fill-0, #F3F4FF)"/>
</g>
<path id="Vector_3" d="M113.257 92.6564L109.088 90.1762L119.671 81.9256L111.585 77.1157C110.796 76.6498 110.294 75.8541 110.2 74.9437C110.107 74.0334 110.444 73.1589 111.119 72.5424L126.3 61.6324L136.897 67.9404L127.032 74.9939L133.245 78.6927C134.156 79.2303 134.665 80.1837 134.622 81.2446C134.579 82.3055 133.977 83.2015 133.022 83.6603L113.264 92.6636L113.257 92.6564ZM111.542 90.0185L113.343 91.0866L132.427 82.3915C132.9 82.1621 133.202 81.7034 133.223 81.1729C133.245 80.6353 132.987 80.155 132.527 79.8755L124.492 75.0943L134.357 68.0407L126.372 63.2882L111.994 73.6176C111.707 73.8828 111.535 74.3344 111.585 74.8075C111.635 75.2735 111.894 75.6821 112.295 75.9258L122.124 81.7751L111.542 90.0257V90.0185Z" fill="var(--fill-0, #F3F4FF)"/>
<path id="Vector_4" d="M87.6222 78.4705L84.3004 78.5135L80.1249 74.3416C78.9339 73.1517 76.9896 73.1517 75.7986 74.3416L64.549 85.5814C63.358 86.7713 63.358 88.7139 64.549 89.9038L68.7246 94.0757L68.6815 97.3946C68.6672 98.5415 69.1263 99.6598 69.9371 100.47L80.5553 111.079L101.326 90.3267L90.7001 79.7106C89.8893 78.9006 88.7701 78.4418 87.6222 78.4562V78.4705ZM87.6366 79.6891C87.7155 79.6891 87.7872 79.6891 87.8661 79.6891V82.069L85.5057 79.7106L87.6366 79.6819V79.6891ZM65.4099 86.4416L76.6596 75.2018C77.377 74.485 78.5393 74.485 79.2567 75.2018L87.8661 83.8037V93.3589C87.8661 95.6456 85.8716 97.6383 83.583 97.6383H74.0193L65.4099 89.0365C64.6925 88.3196 64.6925 87.1584 65.4099 86.4416ZM69.9299 95.28L72.2903 97.6383H69.9084C69.9084 97.5595 69.9012 97.4878 69.9084 97.4089L69.9371 95.28H69.9299ZM99.5893 90.3339L80.5553 109.351L70.798 99.6024C70.5756 99.3802 70.3962 99.1293 70.2527 98.8569H83.583C85.0537 98.8569 86.4384 98.2835 87.4787 97.2441C88.519 96.2047 89.093 94.8212 89.093 93.3517V80.0332C89.3656 80.1765 89.6167 80.3558 89.8391 80.578L99.5965 90.3267L99.5893 90.3339ZM79.6872 80.8217L71.0348 89.4666L70.1666 88.5992L78.8191 79.9543L79.6872 80.8217ZM81.4163 86.0115L74.4929 92.9288L73.6248 92.0615L80.5481 85.1441L81.4163 86.0115Z" fill="var(--fill-0, #F3F4FF)"/>
<path id="Vector_5" d="M61.9088 68.8508L58.3431 72.4134L52.3523 60.3206L47.9113 64.7577L48.5642 67.883C48.801 69.0586 48.4422 70.2557 47.5956 71.1016L44.9626 73.7323L40.9377 65.7039L32.8879 61.6969L35.521 59.0661C36.3676 58.2203 37.5657 57.8619 38.7423 58.0984L41.8847 58.7364L46.3258 54.2993L34.2224 48.3138L37.7881 44.7512C38.7064 43.8337 40.0552 43.4896 41.3036 43.8552L53.3496 47.2816L56.7862 43.848C58.3215 42.314 60.7393 42.0559 62.411 43.253C63.4441 43.9914 64.0898 45.1311 64.1903 46.3856C64.2907 47.64 63.8387 48.8586 62.9563 49.7403L59.3834 53.3101L62.8128 65.3527C63.1787 66.5928 62.8343 67.9404 61.916 68.8579L61.9088 68.8508ZM58.7377 70.012L60.9044 67.8472C61.4568 67.2952 61.6649 66.4852 61.4424 65.7397L57.7834 52.8943L61.9447 48.7367C62.533 48.1489 62.8343 47.3318 62.7697 46.5002C62.698 45.6544 62.2747 44.9161 61.5788 44.4071C60.4739 43.6115 58.8453 43.805 57.7906 44.8516L53.7657 48.8729L40.9162 45.2171C40.1629 44.9949 39.3521 45.2028 38.7997 45.7548L36.633 47.9196L48.7364 53.905L42.3511 60.2847L38.4625 59.4962C37.7594 59.3529 37.042 59.5679 36.5326 60.0768L35.2986 61.3098L42.0067 64.6502L45.3572 71.3453L46.5984 70.1052C47.1078 69.5962 47.323 68.8794 47.1795 68.1769L46.376 64.3061L52.7613 57.9264L58.752 70.0192L58.7377 70.012Z" fill="var(--fill-0, #F3F4FF)"/>
<path id="Vector_6" d="M82.4135 9.29001L79.9598 11.7415L76.5233 8.30797C74.6292 6.41556 71.5441 6.41556 69.6429 8.30797L68.1721 9.77745C66.0054 7.61265 62.4756 7.61265 60.3089 9.77745C58.1422 11.9423 58.1422 15.469 60.3089 17.6338L58.8381 19.1033C56.944 20.9957 56.944 24.0781 58.8381 25.9776L64.7355 31.8699C67.1749 34.3071 71.1424 34.3071 73.5817 31.8699L76.0354 29.4184L77.5062 30.8879C79.9455 33.3251 83.913 33.3251 86.3523 30.8879L94.2156 23.0315C96.6549 20.5943 96.6549 16.6303 94.2156 14.1931L89.301 9.28285C87.407 7.39044 84.3219 7.39044 82.4207 9.28285L82.4135 9.29001ZM61.2846 10.7595C62.9132 9.13231 65.5534 9.13231 67.182 10.7595L61.2846 16.6518C59.656 15.0246 59.656 12.3867 61.2846 10.7595ZM72.5844 30.8879C70.6904 32.7803 67.6053 32.7803 65.7041 30.8879L59.8067 24.9956C58.4507 23.6408 58.4507 21.4401 59.8067 20.0854L61.2774 18.6159L63.7311 21.0674C64.0037 21.3398 64.4414 21.3398 64.714 21.0674C64.9866 20.795 64.9866 20.3577 64.714 20.0854L62.2603 17.6338L68.1578 11.7415L70.6115 14.1931C70.8841 14.4655 71.3217 14.4655 71.5944 14.1931C71.867 13.9207 71.867 13.4834 71.5944 13.211L69.1407 10.7595L70.6115 9.29001C71.9674 7.93522 74.17 7.93522 75.526 9.29001L78.9626 12.7236L72.5773 19.1033C70.6832 20.9957 70.6832 24.0781 72.5773 25.9776L75.031 28.4292L72.5773 30.8807L72.5844 30.8879ZM93.2255 15.1823C95.1196 17.0747 95.1196 20.157 93.2255 22.0566L85.3622 29.913C83.4682 31.8054 80.3831 31.8054 78.4819 29.913L73.5674 25.0028C72.2114 23.648 72.2114 21.4473 73.5674 20.0925L83.3964 10.2721C84.7524 8.91727 86.955 8.91727 88.311 10.2721L93.2255 15.1823ZM84.3793 14.2002L86.3451 16.1643C88.2392 18.0567 88.2392 21.1391 86.3451 23.0387C84.4511 24.9382 81.366 24.9311 79.4648 23.0387L77.499 21.0746C77.2263 20.8022 77.2263 20.3649 77.499 20.0925C77.7716 19.8201 78.2093 19.8201 78.4819 20.0925L80.4477 22.0566C81.8037 23.4114 84.0063 23.4114 85.3622 22.0566C86.7182 20.7018 86.7182 18.5012 85.3622 17.1464L83.3964 15.1823C83.1238 14.9099 83.1238 14.4726 83.3964 14.2002C83.6691 13.9279 84.1067 13.9279 84.3793 14.2002Z" fill="var(--fill-0, #F3F4FF)"/>
<path id="Vector_7" d="M4.52711 55.0233C4.52711 54.5358 4.72082 54.0699 5.0652 53.7258L11.5294 47.2672L12.3975 48.1346L5.93331 54.5932C5.70373 54.8225 5.70373 55.224 5.93331 55.4605L12.3975 61.9191L11.5294 62.7864L5.0652 56.3279C4.72082 55.9838 4.52711 55.5179 4.52711 55.0304V55.0233ZM13.3374 55.5967L20.5263 62.7793L21.3944 61.9119L14.4925 55.0161L21.3944 48.1203L20.5263 47.2529L13.3374 54.4355C13.1796 54.5932 13.1006 54.801 13.1006 55.0089C13.1006 55.2168 13.1796 55.4247 13.3374 55.5824V55.5967Z" fill="var(--fill-0, #F3F4FF)"/>
<path id="Vector_8" d="M108.586 3.41207H105.121L104.059 0.379916L103.815 0H103.012L101.813 3.41207H98.9221L98.3553 3.48376V4.32244L100.787 6.27936L99.8691 9.34736L100.594 9.89931L103.478 8.03558L106.362 9.89931L107.087 9.34736L106.168 6.27936L108.6 4.32244V3.41207H108.586ZM104.848 5.87077L105.48 7.97823L103.471 6.67361L101.462 7.97106L102.093 5.8636L100.443 4.53748H102.624L103.471 2.12179L104.317 4.53748H106.498L104.848 5.8636V5.87077Z" fill="var(--fill-0, #F3F4FF)"/>
<path id="Vector_9" d="M50.0996 82.6352H46.6343L45.5724 79.6031L45.3285 79.2232H44.525L43.3268 82.6352H40.4355L39.8687 82.7069V83.5456L42.3009 85.5025L41.3825 88.5705L42.1072 89.1225L44.9913 87.2587L47.8755 89.1225L48.6001 88.5705L47.6817 85.5025L50.1139 83.5456V82.6352H50.0996ZM46.3545 85.1011L46.9858 87.2086L44.977 85.9039L42.9681 87.2014L43.5995 85.0939L41.9493 83.7678H44.1304L44.977 81.3521L45.8236 83.7678H48.0046L46.3545 85.0939V85.1011Z" fill="var(--fill-0, #F3F4FF)"/>
<path id="Vector_10" d="M50.4583 29.2177H46.993L45.9312 26.1855L45.6872 25.8056H44.8837L43.6855 29.2177H40.7942L40.2274 29.2893V30.128L42.6596 32.0849L41.7413 35.1529L42.4659 35.7049L45.35 33.8412L48.2342 35.7049L48.9588 35.1529L48.0405 32.0849L50.4726 30.128V29.2177H50.4583ZM46.7132 31.6835L47.3445 33.791L45.3357 32.4864L43.3268 33.7838L43.9582 31.6764L42.308 30.3502H44.4891L45.3357 27.9346L46.1823 30.3502H48.3633L46.7132 31.6764V31.6835Z" fill="var(--fill-0, #F3F4FF)"/>
<path id="Vector_11" d="M19.6007 115.265H16.1355L15.0736 112.233L14.8297 111.853H14.0262L12.828 115.265H9.93669L9.3699 115.337V116.175L11.8021 118.132L10.8837 121.2L11.6083 121.752L14.4925 119.888L17.3766 121.752L18.1013 121.2L17.1829 118.132L19.6151 116.175V115.265H19.6007ZM15.8557 117.724L16.487 119.831L14.4781 118.527L12.4693 119.824L13.1006 117.717L11.4505 116.39H13.6316L14.4781 113.975L15.3247 116.39H17.5058L15.8557 117.717V117.724Z" fill="var(--fill-0, #F3F4FF)"/>
<path id="Vector_12" d="M142.313 53.5968H138.848L137.786 50.5646L137.542 50.1847H136.739L135.541 53.5968H132.649L132.083 53.6685V54.5071L134.515 56.4641L133.596 59.5321L134.321 60.084L137.205 58.2203L140.089 60.084L140.814 59.5321L139.896 56.4641L142.328 54.5071V53.5968H142.313ZM138.576 56.0626L139.207 58.1701L137.198 56.8655L135.189 58.1629L135.821 56.0555L134.17 54.7294H136.351L137.198 52.3137L138.045 54.7294H140.226L138.576 56.0555V56.0626Z" fill="var(--fill-0, #F3F4FF)"/>
<path id="Vector_13" d="M94.9474 114.19H91.4821L90.4203 111.158L90.1763 110.778H89.3728L88.1746 114.19H85.2833L84.7165 114.261V115.1L87.1487 117.057L86.2304 120.125L86.955 120.677L89.8391 118.813L92.7233 120.677L93.4479 120.125L92.5296 117.057L94.9617 115.1V114.19H94.9474ZM91.2095 116.648L91.8408 118.756L89.8319 117.451L87.8231 118.749L88.4544 116.641L86.8043 115.315H88.9854L89.8319 112.899L90.6785 115.315H92.8596L91.2095 116.641V116.648Z" fill="var(--fill-0, #F3F4FF)"/>
<path id="Vector_14" d="M138.999 103.559C137.119 99.2153 132.893 96.4269 128.122 96.4269C121.586 96.4269 116.27 101.739 116.27 108.269C116.27 109.093 116.356 109.91 116.521 110.713C114.634 111.925 113.479 114.011 113.479 116.283C113.479 119.931 116.449 122.899 120.101 122.899H137.177C142.557 122.899 146.934 118.527 146.934 113.15C146.934 108.477 143.547 104.427 138.992 103.566L138.999 103.559ZM137.184 121.501H120.108C117.224 121.501 114.878 119.157 114.878 116.276C114.878 114.34 115.94 112.577 117.648 111.667L118.128 111.408L117.992 110.878C117.769 110.032 117.662 109.15 117.662 108.269C117.662 102.506 122.354 97.8247 128.115 97.8247C132.441 97.8247 136.258 100.42 137.844 104.441L137.994 104.814L138.396 104.871C142.471 105.466 145.542 109.021 145.542 113.143C145.542 117.752 141.79 121.501 137.177 121.501H137.184ZM134.601 111.136L135.584 112.118L130.992 116.706C130.583 117.114 130.052 117.315 129.514 117.315C128.976 117.315 128.445 117.114 128.036 116.706L123.445 112.118L124.427 111.136L128.811 115.516V104.778H130.203V115.516L134.587 111.136H134.601Z" fill="var(--fill-0, #F3F4FF)"/>
<path id="Vector_15" d="M27.8443 19.3542C27.8443 20.1642 27.1842 20.8165 26.3807 20.8165C25.5771 20.8165 24.9171 20.157 24.9171 19.3542C24.9171 18.5514 25.5771 17.8919 26.3807 17.8919C27.1842 17.8919 27.8443 18.5514 27.8443 19.3542ZM14.6575 3.2472C17.0825 3.2472 19.0555 5.21846 19.0555 7.64132H20.5191C20.5191 4.40846 17.8932 1.78489 14.6575 1.78489C11.4218 1.78489 8.79594 4.40846 8.79594 7.64132H10.2595C10.2595 5.21846 12.2325 3.2472 14.6575 3.2472ZM35.1766 17.8919V26.6801H32.6655C31.4172 29.3825 29.1644 31.4828 26.3807 32.5294V36.9235H19.0555V33.9917H14.6575V36.9235H7.33234V32.5294C2.9272 30.8592 0 26.6658 0 21.9132C0 19.5979 0.695927 17.4403 1.89407 15.6411C0.724625 14.831 0 13.4906 0 12.0283C0 9.60542 1.97299 7.63415 4.39797 7.63415V9.09647C2.78371 9.09647 1.4636 10.4083 1.4636 12.0283C1.4636 13.0247 1.96581 13.9422 2.78371 14.4726C4.86431 12.0785 7.935 10.5588 11.3572 10.5588H22.3486C22.5208 10.5588 22.6858 10.5588 22.858 10.5731C23.5754 7.11087 26.847 6.17184 28.576 6.17184H29.3078V12.9458C30.9508 14.2217 32.2279 15.9565 32.9668 17.8847H35.1694L35.1766 17.8919ZM33.7058 19.3542H31.9194L31.7544 18.8524C31.1158 16.8883 29.8316 15.1321 28.1456 13.9135L27.8443 13.6985V7.72734C26.6676 7.92805 24.4722 8.68071 24.2068 11.4405L24.135 12.1788L23.3961 12.1C23.0517 12.0641 22.7001 12.0426 22.3414 12.0426H11.3501C5.89744 12.0426 1.45642 16.4797 1.45642 21.9276C1.45642 26.2213 4.19708 29.999 8.27938 31.3251L8.78159 31.49V35.4755H13.1796V32.5437H20.5047V35.4755H24.9027V31.49L25.4049 31.3251C28.1671 30.4291 30.384 28.3646 31.4889 25.6766L31.6754 25.2178H33.6915V19.3614L33.7058 19.3542Z" fill="var(--fill-0, #F3F4FF)"/>
<path id="Vector_16" d="M152.358 91.9611H148.892L147.831 88.9289L147.587 88.549H146.783L145.585 91.9611H142.694L142.127 92.0328V92.8715L144.559 94.8284L143.641 97.8964L144.365 98.4483L147.25 96.5846L150.134 98.4483L150.858 97.8964L149.94 94.8284L152.372 92.8715V91.9611H152.358ZM148.62 94.4198L149.251 96.5273L147.242 95.2226L145.233 96.5201L145.865 94.4126L144.215 93.0865H146.396L147.242 90.6708L148.089 93.0865H150.27L148.62 94.4126V94.4198Z" fill="var(--fill-0, #F3F4FF)"/>
<path id="Vector_17" d="M136.043 41.8051C136.423 41.8051 136.732 41.4897 136.732 41.1097C136.732 40.7298 136.416 40.4216 136.036 40.4216C135.153 40.4216 134.285 40.1134 133.596 39.5256C132.362 38.479 131.796 36.7013 132.276 35.3823C132.377 35.1099 132.298 34.8089 132.075 34.6153C131.853 34.429 131.545 34.4003 131.286 34.5437C130.059 35.2318 128.208 34.9666 126.974 33.9272C125.74 32.8878 125.174 31.1029 125.654 29.784C125.848 29.2392 125.166 28.6585 124.664 28.9453C123.437 29.6334 121.586 29.3682 120.352 28.3288C119.118 27.2894 118.551 25.5045 119.032 24.1856C119.226 23.6408 118.544 23.0602 118.042 23.3469C116.815 24.035 114.964 23.7698 113.73 22.7304C113.041 22.1498 112.582 21.347 112.446 20.4724C112.389 20.0997 112.03 19.8416 111.657 19.899C111.284 19.9563 111.025 20.3147 111.083 20.6875C111.277 21.8846 111.901 22.9813 112.841 23.7842C114.146 24.8881 115.94 25.3325 117.482 25.0099C117.418 26.5869 118.15 28.2786 119.455 29.3825C120.761 30.4864 122.555 30.9309 124.097 30.6083C124.033 32.1853 124.765 33.877 126.07 34.9809C127.376 36.0848 129.17 36.5292 130.712 36.2067C130.648 37.7837 131.38 39.4754 132.685 40.5793C133.625 41.375 134.816 41.8122 136.029 41.8051H136.043ZM141.402 35.4827C141.783 35.4827 142.091 35.1673 142.091 34.7874C142.091 34.4075 141.775 34.0992 141.395 34.0992C140.513 34.0992 139.645 33.791 138.956 33.2032C137.722 32.1566 137.155 30.3789 137.636 29.06C137.736 28.7876 137.657 28.4865 137.435 28.293C137.212 28.1066 136.904 28.0779 136.646 28.2213C135.419 28.9094 133.568 28.6442 132.334 27.6048C131.1 26.5654 130.533 24.7805 131.014 23.4616C131.207 22.9168 130.526 22.3362 130.024 22.6229C128.797 23.3111 126.946 23.0458 125.712 22.0064C124.478 20.967 123.911 19.1822 124.392 17.8632C124.585 17.3184 123.904 16.7378 123.401 17.0245C122.175 17.7127 120.324 17.4474 119.09 16.4081C118.401 15.8274 117.942 15.0246 117.805 14.1501C117.748 13.7773 117.389 13.5193 117.016 13.5766C116.643 13.634 116.385 13.9924 116.442 14.3651C116.636 15.5622 117.26 16.6589 118.2 17.4618C119.506 18.5657 121.299 19.0101 122.842 18.6875C122.777 20.2646 123.509 21.9563 124.815 23.0602C126.121 24.1641 127.914 24.6085 129.457 24.2859C129.392 25.8629 130.124 27.5546 131.43 28.6585C132.735 29.7624 134.529 30.2069 136.072 29.8843C136.007 31.4613 136.739 33.153 138.045 34.2569C138.984 35.0526 140.175 35.4899 141.388 35.4827H141.402ZM146.769 29.1603C147.149 29.1603 147.458 28.8449 147.458 28.465C147.458 28.0851 147.142 27.7769 146.762 27.7769C145.879 27.7769 145.011 27.4686 144.322 26.8808C143.088 25.8343 142.522 24.0565 143.002 22.7376C143.103 22.4652 143.024 22.1641 142.801 21.9706C142.579 21.7842 142.27 21.7555 142.012 21.8989C140.785 22.5871 138.934 22.3218 137.7 21.2824C136.466 20.2431 135.899 18.4582 136.38 17.1392C136.574 16.5944 135.892 16.0138 135.39 16.3005C134.163 16.9887 132.312 16.7235 131.078 15.6841C129.844 14.6447 129.277 12.8598 129.758 11.5408C129.952 10.996 129.27 10.4154 128.768 10.7022C127.541 11.3903 125.69 11.1251 124.456 10.0857C123.767 9.50506 123.308 8.70222 123.172 7.8277C123.114 7.45495 122.756 7.19689 122.383 7.25424C122.01 7.31158 121.751 7.67 121.809 8.04274C122.002 9.23984 122.627 10.3366 123.566 11.1394C124.872 12.2433 126.666 12.6877 128.208 12.3652C128.144 13.9422 128.876 15.6339 130.181 16.7378C131.487 17.8417 133.281 18.2861 134.823 17.9636C134.759 19.5406 135.49 21.2323 136.796 22.3362C138.102 23.4401 139.896 23.8845 141.438 23.5619C141.374 25.1389 142.105 26.8306 143.411 27.9346C144.351 28.7302 145.542 29.1675 146.754 29.1603H146.769Z" fill="var(--fill-0, #F3F4FF)"/>
<path id="Vector_18" d="M54.7989 109.824C53.1918 109.824 51.8788 111.136 51.8788 112.742C51.8788 114.347 53.1918 115.659 54.7989 115.659C56.4059 115.659 57.7189 114.347 57.7189 112.742C57.7189 111.136 56.4059 109.824 54.7989 109.824ZM54.7989 114.498C53.8303 114.498 53.0483 113.709 53.0483 112.749C53.0483 111.788 53.8375 111 54.7989 111C55.7602 111 56.5494 111.788 56.5494 112.749C56.5494 113.709 55.7602 114.498 54.7989 114.498ZM64.7284 105.738C64.7284 104.133 63.4154 102.821 61.7868 102.821C56.0114 102.986 50.7524 105.803 46.4621 110.993C44.6111 111.014 42.76 111.466 41.1027 112.297C38.4123 113.645 36.6761 116.57 36.6761 119.752V120.333H42.5161C43.7645 120.333 44.9411 120.82 45.8236 121.702C46.706 122.584 47.1939 123.759 47.1939 125.007V130.842H47.775C50.9605 130.842 53.8877 129.107 55.2365 126.419C56.0687 124.763 56.5207 122.913 56.5423 121.064C61.7438 116.785 64.5562 111.523 64.7212 105.738H64.7284ZM41.6336 113.344C42.839 112.735 44.1662 112.355 45.5079 112.218C45.3931 112.376 45.2783 112.527 45.1635 112.684C43.3484 115.215 41.9924 118.154 41.5476 119.164H37.867C38.0607 116.656 39.4956 114.405 41.6265 113.337L41.6336 113.344ZM54.2034 125.895C53.1344 128.024 50.8816 129.458 48.3705 129.652V125.974C49.3821 125.53 52.3237 124.175 54.8563 122.362C55.0141 122.247 55.1719 122.132 55.3226 122.017C55.1863 123.365 54.806 124.684 54.1962 125.888L54.2034 125.895ZM54.1747 121.415C52.0654 122.921 49.5973 124.132 48.3562 124.698C48.2844 123.258 47.6818 121.91 46.6558 120.878C45.6227 119.845 44.281 119.251 42.8318 119.179C43.3986 117.939 44.6039 115.473 46.1177 113.365C49.1023 109.208 54.2464 104.204 61.8084 103.989C62.7769 103.989 63.5589 104.778 63.5589 105.724C63.3437 113.294 58.3359 118.433 54.1747 121.415ZM38.7064 124.691C37.7164 125.68 37.0491 129.222 36.9272 129.924L36.7837 130.748L37.6087 130.605C38.3118 130.483 41.8489 129.816 42.8461 128.827C43.3986 128.275 43.6999 127.544 43.6999 126.763C43.6999 125.981 43.3986 125.25 42.8461 124.698C41.7413 123.594 39.8185 123.594 38.7136 124.698L38.7064 124.691ZM42.0139 127.996C41.5619 128.447 39.7539 128.963 38.2401 129.286C38.563 127.774 39.0795 125.967 39.5315 125.516C39.8615 125.186 40.3064 124.999 40.7727 124.999C41.239 124.999 41.6839 125.179 42.0139 125.516C42.3439 125.852 42.5305 126.29 42.5305 126.756C42.5305 127.222 42.3511 127.666 42.0139 127.996Z" fill="var(--fill-0, #F3F4FF)"/>
<g id="Group_3">
<path id="Vector_19" d="M102.093 56.1988C103.607 56.1487 105.128 55.7903 106.52 55.1379C106.807 55.4247 106.993 55.611 107.123 55.7401C107.345 55.9695 107.417 56.0411 107.567 56.1343C107.668 56.2132 107.826 56.2419 108.07 56.2705C108.184 56.2849 108.321 56.3064 108.378 56.3279L108.421 56.3422H108.464C108.83 56.3064 109.182 56.1343 109.433 55.8834L112.41 52.9086C113.006 52.3137 113.027 51.3603 112.46 50.794L111.815 50.1489C114.118 45.9124 113.458 40.694 110.179 37.4253C106.9 34.1566 101.684 33.4971 97.4441 35.7909L96.7984 35.1458C96.2245 34.5723 95.2774 34.601 94.6819 35.196L91.7045 38.1708C91.5467 38.3285 91.4319 38.5148 91.353 38.7084C91.0947 39.16 91.4678 40.1062 91.6615 40.2997L92.4578 41.0954C91.7332 42.6509 91.3673 44.3498 91.396 46.0415C85.6492 43.7907 81.1221 44.2566 77.951 47.4249L76.8605 48.5145C76.1645 49.2098 76.1359 50.3209 76.8031 50.9875L97.15 71.3166C97.8172 71.9833 98.9293 71.9546 99.6252 71.2593L100.716 70.1697C102.66 68.2271 105.408 63.833 102.086 56.1917L102.093 56.1988ZM95.464 35.9916C95.6075 35.8483 95.8299 35.8411 95.9734 35.9773L96.4182 36.4217C95.8155 36.8375 95.2559 37.2962 94.7609 37.7909C94.2658 38.2855 93.5484 39.1528 93.0246 40.0058L92.4794 39.461L92.4363 39.4252C92.3431 39.289 92.3574 39.0883 92.4865 38.9593L95.464 35.9845V35.9916ZM107.589 54.5717C108.4 54.0842 109.139 53.5036 109.806 52.8369C110.473 52.1703 110.825 51.7044 111.183 51.1739L111.635 51.6255C111.764 51.7545 111.764 51.9911 111.621 52.1345L108.644 55.1093C108.5 55.2526 108.27 55.2526 108.134 55.1236L107.582 54.5717H107.589ZM98.8575 63.7183C98.6351 63.4961 98.2764 63.5033 98.0468 63.7326L94.7035 67.073L81.0432 53.4247L84.3865 50.0844C84.6161 49.855 84.6233 49.4894 84.4009 49.2743C84.1785 49.0593 83.8197 49.0593 83.5902 49.2887L80.1679 52.7079L77.6138 50.156C77.3842 49.9266 77.3914 49.5324 77.6353 49.2887L78.7258 48.1991C81.6315 45.296 85.8573 44.9662 91.2884 47.2314C91.3458 47.2529 91.4104 47.2672 91.4749 47.2672C91.7763 49.5396 92.7807 51.5825 94.3878 53.1882C95.9949 54.7939 98.4342 55.9408 100.809 56.1487C100.809 56.163 100.823 56.1845 100.823 56.206C102.021 58.6934 104.332 64.9656 99.9193 69.3669L98.8288 70.4564L98.7929 70.4994C98.5418 70.7145 98.1903 70.7145 97.9607 70.4851L95.4066 67.9332L98.8288 64.514C99.0584 64.2846 99.0656 63.919 98.8432 63.704L98.8575 63.7183ZM95.5429 38.5937C99.4458 34.6942 105.637 34.5436 109.354 38.2568C113.07 41.9699 112.92 48.1561 109.017 52.0556C105.114 55.9551 98.9221 56.1057 95.2057 52.3925C91.4893 48.6794 91.64 42.4932 95.5429 38.5937Z" fill="var(--fill-0, #F3F4FF)"/>
<path id="Vector_20" d="M107.567 52.07C110.38 49.26 109.964 44.2781 106.642 40.9592C103.32 37.6403 98.3337 37.2317 95.5213 40.0345C92.7089 42.8373 93.1251 47.8264 96.4468 51.1381C99.7686 54.4498 104.755 54.8656 107.567 52.0628V52.07ZM106.771 51.2743C104.411 53.6326 100.149 53.2025 97.2647 50.3209C94.3806 47.4393 93.9573 43.1814 96.3105 40.823C98.6638 38.4647 102.933 38.8948 105.817 41.7764C108.701 44.658 109.124 48.9159 106.771 51.2743Z" fill="var(--fill-0, #F3F4FF)"/>
</g>
</g>
</svg>
