<svg width="39" height="50" viewBox="0 0 39 50" fill="none" xmlns="http://www.w3.org/2000/svg">
<g id="a" clip-path="url(#clip0_0_4)">
<path id="Vector" fill-rule="evenodd" clip-rule="evenodd" d="M37.7091 28.7969C39.4308 24.3388 39.4308 19.301 37.7091 14.8429C38.4331 14.2857 38.9007 13.4133 38.9007 12.4327C38.9007 10.7541 37.5286 9.38776 35.8406 9.38776C35.4274 9.38776 35.0326 9.47041 34.6716 9.61837C31.6085 5.84694 27.3261 3.38673 22.534 2.64388C22.3361 1.15408 21.0512 0 19.5007 0C17.9501 0 16.6662 1.15408 16.4683 2.64388C11.6752 3.38673 7.39385 5.84694 4.32972 9.61837C3.96977 9.47041 3.57497 9.38776 3.1617 9.38776C1.47376 9.38776 0.100642 10.7541 0.100642 12.4327C0.100642 13.4133 0.56826 14.2857 1.29327 14.8429C-0.430557 19.301 -0.430557 24.3388 1.29327 28.7969C0.56826 29.3541 0.100642 30.2276 0.100642 31.2071C0.100642 32.8867 1.47376 34.252 3.1617 34.252C3.57497 34.252 3.96977 34.1704 4.32972 34.0214C6.59295 36.8051 9.54941 38.8969 12.9222 40.098V43.2316C12.9222 46.9643 15.8735 50 19.5007 50C23.1278 50 26.0801 46.9643 26.0801 43.2316V40.098C29.4529 38.8969 32.4094 36.8051 34.6716 34.0214C35.0326 34.1704 35.4274 34.252 35.8406 34.252C37.5286 34.252 38.9007 32.8867 38.9007 31.2071C38.9007 30.2276 38.4331 29.3541 37.7091 28.7969Z" fill="var(--fill-0, #212746)"/>
<path id="Vector_2" fill-rule="evenodd" clip-rule="evenodd" d="M26.08 39.0102V36.9735C26.08 33.4878 27.3485 31.7143 28.6909 29.8378C29.0477 29.3378 29.4077 28.8347 29.7481 28.2959L32.9712 30.148C32.8481 30.4776 32.7805 30.8347 32.7805 31.2071C32.7805 32.1051 33.1732 32.9143 33.7967 33.4714C31.7417 35.9684 29.0939 37.8684 26.08 39.0102Z" fill="var(--fill-0, #F3F4FF)"/>
<path id="Vector_3" fill-rule="evenodd" clip-rule="evenodd" d="M19.5005 48.9796C16.6046 48.9796 14.2203 46.6735 13.9701 43.7418H25.0319C24.7807 46.6735 22.3975 48.9796 19.5005 48.9796Z" fill="var(--fill-0, white)"/>
<path id="Vector_4" fill-rule="evenodd" clip-rule="evenodd" d="M5.20533 33.4714C5.82882 32.9143 6.22158 32.1051 6.22158 31.2071C6.22158 30.8347 6.1539 30.4776 6.03084 30.148L9.25392 28.2959C9.59438 28.8347 9.95433 29.3378 10.3112 29.8378C11.6535 31.7143 12.9221 33.4878 12.9221 36.9735V39.0102C9.90818 37.8684 7.26039 35.9684 5.20533 33.4714Z" fill="var(--fill-0, #F3F4FF)"/>
<path id="Vector_5" fill-rule="evenodd" clip-rule="evenodd" d="M2.20581 15.3255C0.631695 19.4816 0.631695 24.1582 2.20581 28.3143C2.5073 28.2153 2.82725 28.1612 3.16155 28.1612C4.10807 28.1612 4.95512 28.5908 5.51708 29.2643L8.73606 27.4153C7.91157 25.8867 7.30039 24.0071 7.30039 21.2245C7.30039 19.3684 7.67981 17.6031 8.36176 16.0102L5.51708 14.3755C4.95512 15.049 4.10704 15.4786 3.16155 15.4786C2.82725 15.4786 2.5073 15.4245 2.20581 15.3255Z" fill="var(--fill-0, #F3F4FF)"/>
<path id="Vector_6" fill-rule="evenodd" clip-rule="evenodd" d="M16.5051 3.67143C16.7615 4.88776 17.749 5.83878 18.9878 6.04796V8.45204C14.5987 8.64388 10.8014 11.2755 8.80169 15.0847L6.03084 13.4918C6.1539 13.1622 6.22158 12.8051 6.22158 12.4327C6.22158 11.5337 5.8278 10.7245 5.20328 10.1673C8.07462 6.67755 12.0545 4.39082 16.5051 3.67143Z" fill="var(--fill-0, #F3F4FF)"/>
<path id="Vector_7" fill-rule="evenodd" clip-rule="evenodd" d="M22.4959 3.67143C26.9475 4.39082 30.9264 6.67755 33.7977 10.1673C33.1732 10.7255 32.7805 11.5337 32.7805 12.4327C32.7805 12.8051 32.8481 13.1622 32.9712 13.4918L30.1993 15.0847C28.2007 11.2755 24.4033 8.64388 20.0133 8.45204V6.04796C21.252 5.83878 22.2406 4.88776 22.4959 3.67143Z" fill="var(--fill-0, #F3F4FF)"/>
<path id="Vector_8" fill-rule="evenodd" clip-rule="evenodd" d="M25.0648 36.4633C25.1868 32.9806 26.5415 31.0827 27.8551 29.2459C29.3061 27.2173 30.6762 25.301 30.6762 21.2245C30.6762 14.7378 25.6626 9.4602 19.5005 9.4602C13.3384 9.4602 8.32587 14.7378 8.32587 21.2245C8.32587 25.301 9.69693 27.2173 11.147 29.2459C12.4606 31.0827 13.8163 32.9806 13.9373 36.4633H25.0648Z" fill="var(--fill-0, white)"/>
<path id="Vector_9" d="M25.0545 37.4837H13.9475V42.7214H25.0545V37.4837Z" fill="var(--fill-0, white)"/>
<path id="Vector_10" fill-rule="evenodd" clip-rule="evenodd" d="M36.7962 28.3143C38.3704 24.1582 38.3704 19.4816 36.7962 15.3255C36.4948 15.4245 36.1738 15.4786 35.8405 15.4786C34.894 15.4786 34.0469 15.049 33.485 14.3755L30.6403 16.0102C31.3222 17.6031 31.7017 19.3684 31.7017 21.2245C31.7017 24.0071 31.0895 25.8867 30.266 27.4153L33.485 29.2643C34.0469 28.5908 34.894 28.1612 35.8405 28.1612C36.1738 28.1612 36.4948 28.2153 36.7962 28.3143Z" fill="var(--fill-0, #F3F4FF)"/>
<path id="Vector_11" fill-rule="evenodd" clip-rule="evenodd" d="M26.1179 23.4888L27.3803 23.3725C28.0838 23.3071 28.6252 22.7735 28.6991 22.0745C28.7678 21.4163 28.7647 20.748 28.6909 20.0888C28.6129 19.3898 28.0663 18.8602 27.3618 18.801L26.0984 18.6939C25.9108 18.6786 25.8349 18.5439 25.8113 18.4878C25.7877 18.4306 25.7447 18.2827 25.8646 18.1388L26.6737 17.1684C27.125 16.6276 27.1291 15.8684 26.684 15.3235C26.2646 14.8082 25.7877 14.3378 25.2668 13.9245C24.7151 13.4857 23.9521 13.4959 23.4127 13.949L22.4436 14.7622C22.3001 14.8827 22.1514 14.8408 22.094 14.8173C22.0365 14.7939 21.9012 14.7194 21.8837 14.5337L21.7668 13.2776C21.7012 12.5776 21.1649 12.0388 20.4624 11.9653C19.8 11.8969 19.1293 11.9 18.4668 11.9735C17.7644 12.051 17.2322 12.5949 17.1727 13.2959L17.065 14.5531C17.0496 14.7388 16.9143 14.8143 16.8579 14.8388C16.8004 14.8622 16.6517 14.9051 16.5071 14.7857L15.5319 13.9806C14.9884 13.5316 14.2254 13.5276 13.6768 13.9704C13.16 14.3888 12.6862 14.8633 12.2709 15.3806C11.831 15.9296 11.8412 16.6888 12.2965 17.2255L13.1138 18.1898C13.2348 18.3327 13.1928 18.4806 13.1692 18.5378C13.1456 18.5949 13.0708 18.7296 12.8841 18.7469L11.6218 18.8633C10.9183 18.9286 10.3768 19.4622 10.303 20.1612C10.2343 20.8204 10.2374 21.4878 10.3112 22.1469C10.3891 22.8459 10.9357 23.3755 11.6402 23.4347L12.9036 23.5418C13.0902 23.5571 13.1661 23.6918 13.1907 23.748C13.2143 23.8051 13.2574 23.9531 13.1374 24.0969L12.3273 25.0673C11.8771 25.6082 11.873 26.3673 12.3181 26.9133C12.7375 27.4276 13.2143 27.898 13.7353 28.3122C14.287 28.75 15.0499 28.7398 15.5893 28.2867L16.5584 27.4735C16.702 27.3531 16.8507 27.3949 16.9081 27.4184C16.9655 27.4418 17.1009 27.5163 17.1183 27.702L17.2352 28.9582C17.3009 29.6582 17.8372 30.1969 18.5396 30.2704C18.8596 30.3031 19.1806 30.3194 19.5026 30.3194C19.8471 30.3194 20.1927 30.301 20.5352 30.2622C21.2377 30.1847 21.7699 29.6408 21.8294 28.9398L21.9371 27.6827C21.9524 27.4969 22.0878 27.4214 22.1442 27.3969C22.2016 27.3735 22.3503 27.3306 22.4949 27.45L23.4701 28.2551C24.0136 28.7041 24.7766 28.7082 25.3242 28.2653C25.8421 27.848 26.3148 27.3735 26.7301 26.8551C27.1711 26.3061 27.1608 25.5469 26.7055 25.0102L25.8882 24.0459C25.7672 23.9031 25.8093 23.7551 25.8328 23.698C25.8554 23.6408 25.9303 23.5061 26.1179 23.4888Z" fill="var(--fill-0, #212746)"/>
<path id="Vector_12" fill-rule="evenodd" clip-rule="evenodd" d="M35.8405 33.2316C34.7186 33.2316 33.806 32.3235 33.806 31.2071C33.806 30.0908 34.7186 29.1816 35.8405 29.1816C36.9624 29.1816 37.8761 30.0908 37.8761 31.2071C37.8761 32.3235 36.9624 33.2316 35.8405 33.2316Z" fill="var(--fill-0, #D0E957)"/>
<path id="Vector_13" fill-rule="evenodd" clip-rule="evenodd" d="M1.12598 31.2071C1.12598 30.0908 2.03865 29.1816 3.16155 29.1816C4.28445 29.1816 5.1961 30.0908 5.1961 31.2071C5.1961 32.3235 4.28343 33.2316 3.16155 33.2316C2.03968 33.2316 1.12598 32.3235 1.12598 31.2071Z" fill="var(--fill-0, #D0E957)"/>
<path id="Vector_14" fill-rule="evenodd" clip-rule="evenodd" d="M3.16155 10.4082C4.28343 10.4082 5.1961 11.3163 5.1961 12.4327C5.1961 13.549 4.28343 14.4582 3.16155 14.4582C2.03968 14.4582 1.12598 13.55 1.12598 12.4327C1.12598 11.3153 2.03865 10.4082 3.16155 10.4082Z" fill="var(--fill-0, #D0E957)"/>
<path id="Vector_15" fill-rule="evenodd" clip-rule="evenodd" d="M19.5005 1.02041C18.3786 1.02041 17.466 1.92959 17.466 3.04592C17.466 4.16224 18.3786 5.07143 19.5005 5.07143C20.6224 5.07143 21.5361 4.16224 21.5361 3.04592C21.5361 1.92959 20.6234 1.02041 19.5005 1.02041Z" fill="var(--fill-0, #D0E957)"/>
<path id="Vector_16" fill-rule="evenodd" clip-rule="evenodd" d="M37.8761 12.4327C37.8761 13.55 36.9624 14.4582 35.8405 14.4582C34.7186 14.4582 33.806 13.55 33.806 12.4327C33.806 11.3153 34.7186 10.4082 35.8405 10.4082C36.9624 10.4082 37.8761 11.3163 37.8761 12.4327Z" fill="var(--fill-0, #D0E957)"/>
<path id="Vector_17" fill-rule="evenodd" clip-rule="evenodd" d="M25.1048 24.7041C24.7746 24.3153 24.6905 23.7816 24.8833 23.3112C25.0771 22.8408 25.5129 22.5204 26.0226 22.4724L27.2849 22.3561C27.4982 22.3367 27.6561 22.1806 27.6787 21.9694C27.7402 21.3827 27.7372 20.7888 27.6715 20.202C27.6479 19.9898 27.489 19.8357 27.2757 19.8173L26.0113 19.7112C25.5016 19.6673 25.0627 19.35 24.8658 18.8816C24.6679 18.4133 24.7489 17.8786 25.075 17.4878L25.8851 16.5163C26.0215 16.3531 26.0226 16.1316 25.8882 15.9663C25.5149 15.5082 25.0904 15.0898 24.6269 14.7214C24.4597 14.5888 24.2372 14.5918 24.0731 14.7286L23.1051 15.5418C22.7133 15.8704 22.177 15.9541 21.7053 15.7622C21.2325 15.5694 20.9105 15.1347 20.8623 14.6286L20.7454 13.3724C20.726 13.1602 20.5691 13.0031 20.3558 12.9806C19.7671 12.9194 19.1703 12.9214 18.5807 12.9878C18.3674 13.0112 18.2125 13.1694 18.1941 13.3816L18.0864 14.6398C18.0433 15.1469 17.7244 15.5837 17.2537 15.7796C16.783 15.9755 16.2456 15.8959 15.8519 15.5704L14.8766 14.7653C14.7126 14.6296 14.49 14.6286 14.3239 14.7622C13.8635 15.1347 13.442 15.5571 13.0728 16.0173C12.9395 16.1837 12.9426 16.4051 13.08 16.5684L13.8973 17.5316C14.2275 17.9214 14.3116 18.4541 14.1188 18.9245C13.925 19.3949 13.4881 19.7153 12.9795 19.7622L11.7171 19.8796C11.5038 19.899 11.3459 20.0551 11.3233 20.2663C11.2618 20.8531 11.2639 21.448 11.3305 22.0337C11.3541 22.2459 11.5131 22.4 11.7264 22.4184L12.9897 22.5245C13.5004 22.5684 13.9393 22.8857 14.1362 23.3541C14.3331 23.8224 14.2531 24.3571 13.926 24.749L13.1169 25.7194C12.9805 25.8827 12.9785 26.1041 13.1138 26.2694C13.4871 26.7276 13.9117 27.1459 14.3752 27.5143C14.5423 27.6469 14.7649 27.6439 14.9279 27.5071L15.897 26.6939C16.1492 26.4827 16.462 26.3714 16.7789 26.3714C16.9532 26.3714 17.1286 26.4051 17.2968 26.4735C17.7685 26.6663 18.0915 27.101 18.1387 27.6071L18.2566 28.8633C18.2761 29.0755 18.433 29.2327 18.6453 29.2551C19.2349 29.3153 19.8328 29.3133 20.4214 29.248C20.6347 29.2245 20.7895 29.0663 20.808 28.8541L20.9146 27.5959C20.9577 27.0888 21.2777 26.652 21.7484 26.4561C22.2191 26.2592 22.7564 26.3398 23.1492 26.6653L24.1254 27.4704C24.2895 27.6061 24.512 27.6071 24.6782 27.4735C25.1386 27.102 25.559 26.6796 25.9292 26.2184C26.0626 26.052 26.0595 25.8306 25.9221 25.6673L25.1048 24.7041Z" fill="var(--fill-0, white)"/>
<path id="Vector_18" fill-rule="evenodd" clip-rule="evenodd" d="M19.5005 23.9724C17.9192 23.9724 16.6322 22.6918 16.6322 21.1184C16.6322 19.5449 17.9192 18.2633 19.5005 18.2633C21.0818 18.2633 22.3698 19.5439 22.3698 21.1184C22.3698 22.6929 21.0828 23.9724 19.5005 23.9724Z" fill="var(--fill-0, #D0E957)"/>
<path id="Vector_19" fill-rule="evenodd" clip-rule="evenodd" d="M19.5005 17.2429C17.3542 17.2429 15.6068 18.9816 15.6068 21.1184C15.6068 23.2551 17.3542 24.9929 19.5005 24.9929C21.6468 24.9929 23.3953 23.2541 23.3953 21.1184C23.3953 18.9827 21.6479 17.2429 19.5005 17.2429Z" fill="var(--fill-0, #6D7BFC)"/>
</g>
<defs>
<clipPath id="clip0_0_4">
<rect width="39" height="50" fill="white"/>
</clipPath>
</defs>
</svg>
