<svg preserveAspectRatio="none" width="100%" height="100%" overflow="visible" style="display: block;" viewBox="0 0 65 62" fill="none" xmlns="http://www.w3.org/2000/svg">
<g id="a" clip-path="url(#clip0_0_4)">
<path id="Vector" fill-rule="evenodd" clip-rule="evenodd" d="M32.4065 14.9471C22.5515 14.9471 14.5308 23.0338 14.4444 33.0107L9.97012 41.7834C9.57448 42.557 9.65361 43.3964 10.1859 44.097C10.6823 44.7466 11.4664 45.1188 12.344 45.1188H14.4444V50.5999C14.4444 53.4682 16.7463 55.8037 19.5734 55.8037H21.1559C21.9256 55.8037 22.3788 56.5262 22.4867 57.2414L23.0982 61.4307C23.1485 61.7592 23.4219 62.0073 23.7528 62.0073H42.4629C42.65 62.0073 42.8226 61.927 42.9521 61.7884C43.0816 61.6497 43.1391 61.4599 43.1247 61.2775L42.355 52.2858C42.168 50.1401 43.024 48.133 44.8871 46.3084C48.4335 42.8417 50.3829 38.178 50.3829 33.1859C50.3829 23.136 42.3263 14.9617 32.4209 14.9617L32.4065 14.9471Z" fill="var(--fill-0, #212746)"/>
<path id="Vector_2" fill-rule="evenodd" clip-rule="evenodd" d="M43.9592 45.3304C47.2466 42.1191 49.0521 37.7985 49.0521 33.1786C49.0521 23.8731 41.5853 16.2974 32.4137 16.2974C23.242 16.2974 15.7752 23.8731 15.7752 33.1786C15.7752 33.2881 15.7465 33.3902 15.7033 33.4851L11.157 42.4038C10.9988 42.7103 11.0276 42.9949 11.2434 43.2796C11.4879 43.6007 11.8836 43.7759 12.3512 43.7759H15.1134C15.4803 43.7759 15.7752 44.0751 15.7752 44.4473V50.5999C15.7752 52.7237 17.4801 54.4534 19.5734 54.4534H21.1559C22.4867 54.4534 23.5729 55.519 23.7959 57.0371L24.3211 60.6498H41.7364L41.0314 52.388C40.8156 49.8554 41.8299 47.4105 43.9664 45.3231L43.9592 45.3304Z" fill="var(--fill-0, white)"/>
<path id="Vector_3" fill-rule="evenodd" clip-rule="evenodd" d="M9.35148 14.6479L9.30113 10.1667C9.30113 9.79447 9.58887 9.48793 9.95573 9.48793L14.3725 9.43685C14.7394 9.42955 15.0415 9.72878 15.0415 10.101C15.0415 10.4732 14.7538 10.7798 14.3869 10.7798L11.5455 10.8162L17.1132 16.4652C17.3722 16.728 17.3722 17.1513 17.1132 17.414C16.9837 17.5454 16.8111 17.6111 16.6456 17.6111C16.4802 17.6111 16.3075 17.5454 16.1781 17.414L10.6463 11.8015L10.6751 14.6333C10.6751 15.0055 10.3873 15.3121 10.0205 15.3121H10.0133C9.65361 15.3121 9.35148 15.0128 9.35148 14.6479Z" fill="var(--fill-0, #6D7BFC)"/>
<path id="Vector_4" fill-rule="evenodd" clip-rule="evenodd" d="M4.2873 35.66C4.55345 35.9228 4.55345 36.3461 4.30168 36.6088C4.1722 36.7402 3.99956 36.8132 3.82691 36.8132C3.65427 36.8132 3.49602 36.7475 3.36653 36.6234L0.201417 33.4924C-0.064741 33.2297 -0.064741 32.8064 0.194223 32.5436L3.28021 29.3396C3.53918 29.0696 3.9564 29.0696 4.21536 29.3323C4.47433 29.5951 4.48152 30.0184 4.22255 30.2811L2.23716 32.3393H10.114C10.4809 32.3393 10.7758 32.6385 10.7758 33.0107C10.7758 33.3829 10.4809 33.6822 10.114 33.6822H2.29471L4.2873 35.66Z" fill="var(--fill-0, #6D7BFC)"/>
<path id="Vector_5" fill-rule="evenodd" clip-rule="evenodd" d="M47.8292 17.3629C47.5703 17.1002 47.5703 16.6769 47.8292 16.4141L53.361 10.8016L50.5699 10.8308C50.2031 10.8308 49.901 10.5389 49.901 10.1667C49.901 9.79447 50.1887 9.48793 50.5556 9.48793L54.9723 9.43685C55.145 9.43685 55.3176 9.50253 55.4399 9.6266C55.5694 9.75068 55.6341 9.91854 55.6413 10.101L55.6917 14.5822C55.6917 14.9544 55.4039 15.261 55.0371 15.261H55.0299C54.6702 15.261 54.3681 14.9617 54.3681 14.5968L54.3393 11.7139L48.7716 17.3629C48.6421 17.4943 48.4695 17.56 48.304 17.56C48.1314 17.56 47.9659 17.4943 47.8364 17.3629H47.8292Z" fill="var(--fill-0, #6D7BFC)"/>
<path id="Vector_6" fill-rule="evenodd" clip-rule="evenodd" d="M64.8058 33.4048L61.7198 36.6088C61.5903 36.7402 61.4177 36.8132 61.245 36.8132C61.0724 36.8132 60.9069 36.7475 60.7846 36.6234C60.5185 36.3607 60.5185 35.9374 60.7703 35.6746L62.7556 33.6165H54.8788C54.512 33.6165 54.217 33.3172 54.217 32.945C54.217 32.5728 54.512 32.2736 54.8788 32.2736H62.7053L60.7055 30.2957C60.4394 30.033 60.4394 29.6097 60.6911 29.3469C60.9429 29.0842 61.3745 29.0769 61.6335 29.3396L64.7914 32.4706C65.0504 32.7334 65.0575 33.1567 64.7986 33.4194L64.8058 33.4048Z" fill="var(--fill-0, #6D7BFC)"/>
<path id="Vector_7" fill-rule="evenodd" clip-rule="evenodd" d="M28.9105 4.35715C28.6515 4.09441 28.6443 3.6711 28.9033 3.40836L31.9893 0.204356C32.2482 -0.0656857 32.6654 -0.0656857 32.9244 0.197057L36.0823 3.32808C36.3485 3.59082 36.3485 4.01413 36.0895 4.27687C35.8306 4.53961 35.4133 4.54691 35.1544 4.28417L33.1258 2.26981V10.2616C33.1258 10.6338 32.8309 10.933 32.464 10.933C32.0972 10.933 31.8022 10.6338 31.8022 10.2616V2.32089L29.8528 4.34255C29.7233 4.47393 29.5507 4.54691 29.378 4.54691C29.2126 4.54691 29.0471 4.48852 28.9105 4.35715Z" fill="var(--fill-0, #6D7BFC)"/>
<path id="Vector_8" fill-rule="evenodd" clip-rule="evenodd" d="M42.4773 30.1424L40.8588 30.0038C40.6214 29.9819 40.5279 29.814 40.4991 29.7337C40.4703 29.6534 40.4128 29.471 40.5639 29.2885L41.5997 28.0186C42.1824 27.3107 42.1824 26.3181 41.6141 25.6028C41.0746 24.9314 40.4631 24.3183 39.7942 23.7709C39.0892 23.1944 38.1037 23.2089 37.4131 23.8001L36.1687 24.8584C35.9888 25.0117 35.8018 24.9606 35.7299 24.9314C35.6579 24.9022 35.4853 24.8073 35.4637 24.5665L35.3126 22.9243C35.2263 22.0047 34.5357 21.2968 33.6366 21.2019C32.7877 21.1143 31.9245 21.1143 31.0757 21.2092C30.1693 21.3114 29.4859 22.0266 29.414 22.9462L29.2773 24.5883C29.2558 24.8292 29.0903 24.9241 29.0112 24.9533C28.9392 24.9825 28.7522 25.0408 28.5724 24.8876L27.3207 23.8366C26.623 23.2454 25.6446 23.2454 24.9397 23.822C24.2779 24.3694 23.6736 24.9898 23.1413 25.6612C22.573 26.3838 22.5874 27.3763 23.1701 28.077L24.2131 29.3323C24.3642 29.5148 24.3139 29.7045 24.2851 29.7775C24.2563 29.8505 24.1628 30.0257 23.9254 30.0476L22.3069 30.2008C21.4005 30.2884 20.7027 30.9891 20.6164 31.9014C20.5301 32.7626 20.5301 33.6384 20.6236 34.4996C20.7243 35.4119 21.4293 36.1125 22.3357 36.1855L23.9542 36.3242C24.1916 36.3461 24.2851 36.514 24.3139 36.5942C24.3426 36.6745 24.4002 36.857 24.2491 37.0394L23.2133 38.3094C22.6306 39.0173 22.6306 40.0099 23.1989 40.7251C23.7384 41.3966 24.3498 42.0097 25.0188 42.5497C25.7238 43.1263 26.7093 43.1117 27.3998 42.5205L28.6443 41.4623C28.8241 41.309 29.0112 41.3601 29.0831 41.3893C29.155 41.4185 29.3277 41.5134 29.3493 41.7542L29.5003 43.3964C29.5867 44.316 30.2772 45.0239 31.1764 45.1188C31.5864 45.1626 31.9965 45.1845 32.4065 45.1845C32.8525 45.1845 33.2913 45.1626 33.7301 45.1115C34.6365 45.0093 35.3198 44.2941 35.3918 43.3745L35.5284 41.7323C35.55 41.4915 35.7155 41.3966 35.7946 41.3674C35.8665 41.3382 36.0536 41.2798 36.2334 41.4331L37.4851 42.4841C38.1828 43.0752 39.1611 43.0752 39.8661 42.4986C40.5279 41.9513 41.1321 41.3309 41.6645 40.6594C42.2327 39.9369 42.2183 38.9443 41.6357 38.2437L40.5926 36.9883C40.4416 36.8059 40.4919 36.6161 40.5207 36.5431C40.5495 36.4702 40.643 36.295 40.8804 36.2731L42.4989 36.1198C43.4053 36.0323 44.103 35.3316 44.1894 34.4193C44.2757 33.5581 44.2757 32.6823 44.1822 31.8211C44.0814 30.9088 43.3765 30.2154 42.4701 30.1351L42.4773 30.1424Z" fill="var(--fill-0, #212746)"/>
<path id="Vector_9" fill-rule="evenodd" clip-rule="evenodd" d="M42.8801 34.2806C42.9593 33.5143 42.9593 32.7407 42.873 31.9743C42.8442 31.7043 42.6428 31.4999 42.3694 31.478L40.7509 31.3394C40.0963 31.281 39.5352 30.865 39.2762 30.2519C39.0173 29.6388 39.1252 28.9382 39.5424 28.4273L40.5782 27.1574C40.7509 26.9457 40.7509 26.6611 40.5782 26.4494C40.0963 25.851 39.5568 25.3036 38.9669 24.8219C38.7511 24.654 38.4706 24.654 38.262 24.8292L37.0247 25.8875C36.5211 26.3181 35.8306 26.4275 35.2263 26.1721C34.6221 25.9167 34.2048 25.3474 34.1401 24.6832L33.989 23.0411C33.9603 22.7637 33.766 22.5667 33.4927 22.5375C32.7374 22.4572 31.9749 22.4572 31.2196 22.5448C30.9462 22.574 30.752 22.7783 30.7304 23.0557L30.5937 24.6978C30.5362 25.362 30.1262 25.9313 29.5219 26.194C28.9177 26.4567 28.2271 26.3473 27.7236 25.924L26.4719 24.873C26.2633 24.6978 25.9827 24.6978 25.7741 24.873C25.1843 25.3547 24.6448 25.9094 24.17 26.5078C23.9973 26.7195 24.0045 27.0114 24.1772 27.2158L25.2202 28.4711C25.6446 28.982 25.7525 29.6826 25.5008 30.2957C25.2562 30.9088 24.6879 31.3321 24.0333 31.3905L22.4148 31.5437C22.1414 31.5729 21.9472 31.77 21.9184 32.0473C21.8393 32.8137 21.8393 33.5873 21.9256 34.3536C21.9544 34.6237 22.1558 34.828 22.4292 34.8499L24.0477 34.9886C24.7023 35.047 25.2634 35.463 25.5224 36.076C25.7741 36.6891 25.6734 37.3898 25.2562 37.9007L24.2203 39.1706C24.0477 39.3822 24.0477 39.6669 24.2203 39.8785C24.7023 40.477 25.2418 41.0244 25.8317 41.5061C26.0475 41.6739 26.328 41.6739 26.5366 41.4988L27.7739 40.4405C28.0976 40.1632 28.5004 40.0172 28.9033 40.0172C29.1263 40.0172 29.3565 40.061 29.5723 40.1486C30.1837 40.3967 30.5937 40.966 30.6585 41.6374L30.8095 43.2796C30.8383 43.5496 31.0325 43.754 31.3059 43.7832C32.0612 43.8635 32.8237 43.8635 33.579 43.7759C33.8524 43.7467 34.0466 43.5423 34.0682 43.265L34.2048 41.6228C34.2624 40.9587 34.6724 40.3821 35.2767 40.1267C35.8809 39.8712 36.5715 39.9734 37.075 40.3967L38.3267 41.4477C38.5353 41.6228 38.8158 41.6228 39.0245 41.4477C39.6143 40.9587 40.1538 40.4113 40.6286 39.8055C40.8012 39.5939 40.794 39.3019 40.6214 39.0976L39.5784 37.8423C39.1539 37.3314 39.046 36.6307 39.2978 36.0177C39.5496 35.4046 40.1107 34.9813 40.7653 34.9229L42.3838 34.7696C42.6571 34.7477 42.8514 34.5507 42.8801 34.2733V34.2806Z" fill="var(--fill-0, white)"/>
<path id="Vector_10" fill-rule="evenodd" clip-rule="evenodd" d="M32.4065 27.8142C29.4931 27.8142 27.1265 30.2154 27.1265 33.1713C27.1265 36.1271 29.4931 38.5283 32.4065 38.5283C35.3198 38.5283 37.6865 36.1198 37.6865 33.1713C37.6865 30.2154 35.3198 27.8142 32.4065 27.8142Z" fill="var(--fill-0, #212746)"/>
<path id="Vector_11" d="M32.4065 37.1854C34.5915 37.1854 36.3629 35.3882 36.3629 33.1713C36.3629 30.9543 34.5915 29.1572 32.4065 29.1572C30.2214 29.1572 28.4501 30.9543 28.4501 33.1713C28.4501 35.3882 30.2214 37.1854 32.4065 37.1854Z" fill="var(--fill-0, #6D7BFC)"/>
</g>
<defs>
<clipPath id="clip0_0_4">
<rect width="65" height="62" fill="white"/>
</clipPath>
</defs>
</svg>
