<svg width="46.0834" height="50" viewBox="0 0 46.0834 50" fill="none" xmlns="http://www.w3.org/2000/svg">
<g id="311797392">
<path id="311798136" fill-rule="evenodd" clip-rule="evenodd" d="M43.1474 24.4181H37.1686C36.8596 24.4181 36.61 24.1761 36.61 23.8765C36.61 23.5769 36.8596 23.3349 37.1686 23.3349H43.1474C44.134 23.3349 44.9423 22.5513 44.9423 21.5948C44.9423 21.0648 44.6927 20.5577 44.2648 20.2236C44.0746 20.0738 44.0033 19.8318 44.0865 19.6128C44.2885 19.0367 44.1697 18.4144 43.7774 17.9419C43.3733 17.4695 42.7909 17.239 42.1609 17.3197C41.8756 17.3542 41.6141 17.1814 41.5428 16.9048C41.3407 16.1328 40.6275 15.5912 39.8074 15.5796C39.4983 15.5796 39.2487 15.3376 39.2487 15.0265C39.2487 14.7269 39.5102 14.4849 39.8074 14.4849C40.996 14.4849 42.0301 15.1763 42.4818 16.2019C43.3257 16.2249 44.1102 16.6052 44.6451 17.239C45.2038 17.9074 45.4177 18.7601 45.2513 19.5898C45.7862 20.1199 46.0834 20.8228 46.0834 21.5603C46.0834 23.1275 44.7759 24.395 43.1593 24.395L43.1474 24.4181Z" fill="var(--fill-0, #D0E957)"/>
<path id="311798160" fill-rule="evenodd" clip-rule="evenodd" d="M17.9484 34.0055H11.9933C10.3768 34.0055 9.06929 32.738 9.06929 31.1708C9.06929 30.2259 9.54475 29.3616 10.3411 28.8315C10.3055 28.1517 10.5194 27.4833 10.9473 26.9417C11.4584 26.2964 12.2429 25.8931 13.0869 25.847C13.3959 25.8355 13.6693 26.0544 13.6812 26.3655C13.705 26.6652 13.4672 26.9302 13.1582 26.9417C12.6352 26.9763 12.1597 27.2183 11.8507 27.6101C11.5298 28.0134 11.4109 28.5204 11.506 29.0159C11.5535 29.2579 11.4347 29.4999 11.2088 29.6151C10.5907 29.9147 10.2104 30.514 10.2104 31.1708C10.2104 32.1272 11.0187 32.9108 12.0052 32.9108H17.9603C18.2693 32.9108 18.5189 33.1528 18.5189 33.4524C18.5189 33.752 18.2693 33.994 17.9603 33.994L17.9484 34.0055Z" fill="var(--fill-0, #D0E957)"/>
<path id="Vector" d="M24.1886 0.0115232C17.3896 0.0115232 12.9917 2.30468 9.94879 7.44411C9.88936 7.54782 9.86559 7.67458 9.87747 7.78981C9.29504 8.99977 8.34414 11.2468 8.07075 13.7474C8.05887 13.7935 8.04698 13.8396 8.04698 13.8857C8.04698 13.9779 8.04698 14.0585 8.04698 14.1392C8.01132 14.554 7.99943 14.9804 8.01132 15.4068H8.05887C8.26093 21.3183 10.6382 24.2337 13.1581 27.2989C15.2263 29.8225 17.3659 32.4268 18.6852 36.9901C18.7566 37.2206 18.9705 37.3934 19.232 37.3934H19.7907L21.1101 41.5303H19.5173C19.2082 41.5303 18.9586 41.7723 18.9586 42.0719V44.2959C18.9586 44.5955 19.2082 44.8375 19.5173 44.8375H19.9333V48.2484C19.9333 49.2164 20.7416 50 21.74 50H26.6966C27.6951 50 28.5034 49.2164 28.5034 48.2484V44.8375H28.9194C29.2284 44.8375 29.478 44.5955 29.478 44.2959V42.0719C29.478 41.7723 29.2284 41.5303 28.9194 41.5303H27.3266L28.646 37.3934H29.2047C29.4543 37.3934 29.6801 37.2321 29.7514 36.9901C31.0827 32.4268 33.2103 29.8225 35.2786 27.2989C37.9054 24.0954 40.3897 21.0648 40.3897 14.6001C40.3897 6.00369 31.8672 0 24.2243 0L24.1886 0.0115232Z" fill="var(--fill-0, #212746)"/>
<path id="Vector_2" d="M27.0295 1.38278C35.029 9.59895 32.4259 17.1698 29.1333 26.7342C28.0873 29.7764 27.0057 32.9223 26.2093 36.2987H24.7473V1.10621C25.508 1.14078 26.2687 1.23297 27.0295 1.38278Z" fill="var(--fill-0, white)"/>
<path id="Vector_3" d="M23.63 1.1062V36.2986H22.168C21.3716 32.9453 20.3018 29.811 19.2677 26.7688C16.0941 17.4925 13.3602 9.47218 21.3478 1.24448C22.0729 1.16381 22.8217 1.11772 23.6181 1.09467L23.63 1.1062Z" fill="var(--fill-0, white)"/>
<path id="Vector_4" d="M19.6363 36.3102C18.2337 31.77 15.9991 29.0505 14.0259 26.6306C11.4109 23.4386 9.15253 20.696 9.15253 14.6117C9.15253 14.3927 9.15253 14.1738 9.16441 13.9433C9.16441 13.8857 9.16441 13.8281 9.14064 13.782C9.50911 10.7283 10.9355 8.02029 11.2326 7.49022C13.289 4.25214 15.9158 2.36231 19.565 1.56719C16.3794 5.22011 14.9174 9.03435 14.9649 13.4824C15.0244 17.8613 16.5577 22.3669 18.1861 27.1376C19.1846 30.0761 20.2306 33.1067 21.0032 36.3217H19.6244L19.6363 36.3102Z" fill="var(--fill-0, white)"/>
<path id="Vector_5" d="M20.9557 37.3935H23.6301V41.5419H22.2751L20.9557 37.3935Z" fill="var(--fill-0, white)"/>
<path id="Vector_6" d="M27.3505 48.26C27.3505 48.6172 27.0414 48.9168 26.6729 48.9168H21.7163C21.3479 48.9168 21.0388 48.6172 21.0388 48.26V44.849H27.3505V48.26Z" fill="var(--fill-0, #D0E957)"/>
<path id="Vector_7" d="M28.3251 42.6251V43.7544H27.9091H20.4801H20.076V42.6251H28.337H28.3251Z" fill="var(--fill-0, #D0E957)"/>
<path id="Vector_8" d="M26.1024 41.5419H24.7592V37.3935H27.4336L26.1024 41.5419Z" fill="var(--fill-0, white)"/>
<path id="Vector_9" d="M34.3515 26.6307C32.3784 29.0391 30.1438 31.7701 28.7412 36.3103H27.3624C28.1469 33.0722 29.181 30.0416 30.2032 27.0916C33.3174 18.0342 36.0275 10.1407 29.0146 1.91299C34.4704 3.72216 39.2249 8.44675 39.2249 14.6118C39.2249 20.6961 36.9665 23.4502 34.3515 26.6307Z" fill="var(--fill-0, white)"/>
<path id="Vector_10" fill-rule="evenodd" clip-rule="evenodd" d="M9.85377 14.4618H2.92404C1.3075 14.4618 0 13.1943 0 11.6271C0 10.8781 0.297158 10.1751 0.832043 9.64507C0.653748 8.81538 0.867702 7.96265 1.43825 7.2943C1.98502 6.64899 2.76952 6.28024 3.60156 6.25719C4.05324 5.23161 5.09924 4.54021 6.28787 4.54021C7.50028 4.54021 8.57005 5.25466 9.00984 6.32633C9.71114 6.41852 10.3649 6.76422 10.8285 7.31734C11.3158 7.88199 11.5535 8.58492 11.506 9.29937C12.3024 9.81792 12.7778 10.6822 12.7778 11.6386C12.7778 13.2058 11.4703 14.4734 9.85377 14.4734V14.4618Z" fill="var(--fill-0, #D0E957)"/>
<path id="Vector_11" fill-rule="evenodd" clip-rule="evenodd" d="M3.68471 7.34032C3.14982 7.34032 2.6506 7.57079 2.3059 7.98563C1.91365 8.45809 1.79478 9.08036 1.99685 9.65652C2.08006 9.87547 1.99685 10.1175 1.81856 10.2557C1.39065 10.5899 1.14103 11.0854 1.14103 11.627C1.14103 12.5835 1.9493 13.3671 2.93587 13.3671H9.8656C10.8522 13.3671 11.6604 12.5835 11.6604 11.627C11.6604 10.9587 11.2801 10.3595 10.662 10.0714C10.4361 9.95613 10.3173 9.71414 10.3648 9.47215C10.4718 8.9536 10.3292 8.42352 9.97258 8.00868C9.62788 7.60536 9.12865 7.38642 8.60565 7.38642C8.34415 7.38642 8.11831 7.21357 8.05888 6.96005C7.8687 6.17646 7.14363 5.62334 6.31159 5.62334C5.47955 5.62334 4.76637 6.16494 4.5643 6.94853C4.49298 7.21357 4.23148 7.39794 3.94621 7.36337C3.863 7.36337 3.7798 7.35185 3.70848 7.35185L3.68471 7.34032Z" fill="var(--fill-0, white)"/>
</g>
</svg>
