<svg width="50" height="50" viewBox="0 0 50 50" fill="none" xmlns="http://www.w3.org/2000/svg">
<g id="a" clip-path="url(#clip0_0_4)">
<g id="Group">
<path id="Vector" fill-rule="evenodd" clip-rule="evenodd" d="M2.95408 29.5282C3.00714 29.5353 3.0602 29.5414 3.11327 29.5486L3.13673 29.5516L3.15918 29.5588C4.09796 29.8363 4.63878 31.6058 4.82755 32.4313L4.91326 32.8058H3.07041C3.00204 32.8058 2.9398 32.8394 2.90102 32.8956C2.86327 32.9517 2.85612 33.0221 2.88061 33.0854C3.36735 34.3129 3.55306 35.6864 3.33673 36.9946C3.23061 37.6365 2.90102 38.8069 2.27143 39.1365C1.87551 39.3437 1.55102 39.0335 1.34184 38.7212C0.90102 38.061 0.771429 36.9385 0.726531 36.1711V36.166C0.717347 35.9538 0.714286 35.7415 0.714286 35.5293C0.714286 34.1374 0.883673 32.5813 1.38163 31.2721C1.6102 30.67 2.13878 29.5608 2.9 29.5271H2.92755L2.9551 29.5292L2.95408 29.5282ZM4.38571 40.0263C4.16429 40.5467 3.74286 41.3274 3.15408 41.4978L3.13061 41.5049L3.10612 41.508C3.05408 41.5141 3.00204 41.5213 2.95 41.5274L2.92551 41.5304H2.90102C2.20408 41.4998 1.70612 40.5631 1.47245 40.01L1.24286 39.4661L1.82041 39.5916C1.88061 39.6049 1.94184 39.611 2.00306 39.611C2.04388 39.611 2.08367 39.608 2.12347 39.6029L2.14184 39.6008H4.56735L4.38571 40.0274V40.0263ZM28.7806 43.4131L31.1102 47.451L29.2612 47.0469C29.1592 47.0244 29.0551 47.0836 29.0235 47.1836L28.449 48.9877L26.2235 45.1336L26.5714 45.0111C27.3102 44.7509 27.9735 44.306 28.499 43.7254L28.7806 43.4131ZM21.551 48.9877L20.9755 47.1836C20.9439 47.0836 20.8398 47.0244 20.7378 47.0469L18.8888 47.451L21.2184 43.4142L21.5 43.7254C22.0255 44.306 22.6888 44.7509 23.4286 45.0111L23.7765 45.1336L21.551 48.9877ZM11.6173 23.8484C11.1173 23.5066 10.848 22.9943 10.848 22.3892V13.1339L23.8765 18.0851C24.2367 18.2218 24.6133 18.2973 25 18.2973C25.3867 18.2973 25.7622 18.2218 26.1224 18.0851L39.152 13.1339V22.3892C39.152 22.9954 38.8816 23.5076 38.3816 23.8484C36.6888 25.0046 34.5755 25.7505 32.5939 26.2271C30.1275 26.8199 27.5347 27.0771 25 27.0771C22.4653 27.0771 19.8724 26.8199 17.4061 26.2271C15.4245 25.7505 13.3112 25.0046 11.6184 23.8484H11.6173Z" fill="var(--fill-0, #D0E957)"/>
<path id="Vector_2" fill-rule="evenodd" clip-rule="evenodd" d="M30.499 47.004L29.3265 46.7479C29.0694 46.6918 28.8122 46.8408 28.7316 47.0908L28.3673 48.2347L26.6725 45.2999C27.4673 45.0193 28.1704 44.5438 28.7255 43.9305L30.499 47.004ZM21.6327 48.2347L21.2684 47.0908C21.1878 46.8408 20.9306 46.6918 20.6735 46.7479L19.501 47.004L21.2745 43.9305C21.8296 44.5438 22.5327 45.0193 23.3276 45.2999L21.6327 48.2347ZM1.75408 39.8906C1.8398 39.909 1.92347 39.9171 2.00204 39.9171C2.05714 39.9171 2.1102 39.9131 2.1602 39.9069H4.10408C3.78469 40.6559 3.40816 41.1059 3.06939 41.2039C3.01837 41.21 2.96531 41.2172 2.91327 41.2233C2.5449 41.208 2.11225 40.7386 1.75408 39.8906ZM2.91327 29.8312C2.96633 29.8384 3.01939 29.8445 3.07245 29.8516C3.57959 30.0016 4.17449 30.9455 4.52959 32.4986H3.07143C2.90204 32.4986 2.74388 32.5823 2.64898 32.7221C2.55408 32.8619 2.53469 33.0395 2.59694 33.1966C3.70306 35.9895 2.81531 38.5038 2.12959 38.8641C2.06429 38.8977 1.89082 38.9896 1.59694 38.5498C1.38265 38.2283 1.11429 37.5508 1.03265 36.1518C1.02449 35.9487 1.02041 35.7405 1.02041 35.5273C1.02041 32.0251 2.11633 29.8659 2.91327 29.8312ZM48.1837 29.2679C47.7612 28.9077 47.2612 28.7628 46.7388 28.8475C41.4602 29.7047 34.7561 30.0863 25 30.0863C17.2306 30.0863 9.53367 29.6475 3.28265 28.8496C3.16939 28.823 3.05306 28.8088 2.93265 28.8088C1.02755 28.8088 0 32.27 0 35.5273C0 35.7058 0.00408163 35.8844 0.0102041 36.064H0.00510204C0.0102041 36.165 0.0163265 36.263 0.022449 36.3599C0.181633 39.3477 1.1898 42.2458 2.93265 42.2458C3.05204 42.2458 3.16735 42.2315 3.27959 42.206C8.19388 41.5784 13.9561 41.1723 19.999 41.0284C20.0653 41.7468 20.2837 42.4223 20.6214 43.0213L18.0398 47.4928C17.9388 47.6683 17.95 47.8857 18.0694 48.0489C18.1888 48.2122 18.3929 48.2898 18.5908 48.2469L20.4367 47.8438L21.0112 49.6449C21.0725 49.8367 21.2418 49.9755 21.4429 49.9969C21.4612 49.999 21.4796 50 21.498 50C21.6786 50 21.848 49.9031 21.9398 49.7449L24.3633 45.5458C24.5724 45.5724 24.7847 45.5877 25 45.5877C25.2153 45.5877 25.4276 45.5724 25.6367 45.5458L28.0602 49.7449C28.152 49.9031 28.3214 50 28.502 50C28.5204 50 28.5388 49.999 28.5571 49.9969C28.7582 49.9755 28.9276 49.8367 28.9888 49.6449L29.5633 47.8438L31.4092 48.2469C31.6071 48.2898 31.8112 48.2122 31.9306 48.0489C32.049 47.8857 32.0612 47.6683 31.9602 47.4928L29.3786 43.0213C29.7204 42.4162 29.9388 41.7325 30.0031 41.0059C37.0673 41.1192 42.3969 41.5019 46.7388 42.207C46.8357 42.2233 46.9316 42.2305 47.0265 42.2305C47.4439 42.2305 47.8398 42.0794 48.1837 41.7866C49.9225 40.308 50 35.5742 50 35.5273C50 35.4803 49.9214 30.7465 48.1837 29.2679ZM38.8459 22.3882V13.5768L26.2316 18.3698C25.8235 18.5249 25.4112 18.6024 25 18.6024C24.5888 18.6024 24.1765 18.5249 23.7684 18.3698L11.1541 13.5768V22.3882C11.1541 22.8933 11.3745 23.3107 11.7908 23.5954C14.702 25.5842 19.6408 26.771 25 26.771C30.3592 26.771 35.298 25.5842 38.2092 23.5954C38.6255 23.3107 38.8459 22.8933 38.8459 22.3882ZM7.33367 20.3055V25.5903C7.33367 25.8526 7.12041 26.0658 6.85816 26.0658H5.78776C5.52551 26.0658 5.31225 25.8526 5.31225 25.5903V20.3055C5.31225 19.7484 5.76531 19.2943 6.32347 19.2943C6.88163 19.2943 7.33367 19.7484 7.33367 20.3055ZM3.58163 10.7002L5.81327 11.5472V18.3412C4.9398 18.5687 4.29184 19.3616 4.29184 20.3055V25.5903C4.29184 26.4158 4.96327 27.0863 5.78776 27.0863H6.85816C7.68367 27.0863 8.35408 26.4158 8.35408 25.5903V20.3055C8.35408 19.3616 7.70714 18.5687 6.83367 18.3412V11.9349L10.1337 13.189V22.3882C10.1337 23.2341 10.5173 23.9617 11.2153 24.4383C14.2898 26.5383 19.4429 27.7914 25 27.7914C30.5571 27.7914 35.7102 26.5383 38.7847 24.4383C39.4827 23.9617 39.8663 23.2341 39.8663 22.3882V13.189L46.4184 10.7002C47.0051 10.4767 47.3837 9.92775 47.3837 9.30121C47.3837 8.67467 47.0051 8.12466 46.4184 7.9022L26.2316 0.232658C25.4143 -0.0775526 24.5857 -0.0775526 23.7684 0.232658L3.58163 7.9022C2.9949 8.12466 2.61633 8.67365 2.61633 9.30121C2.61633 9.92877 2.9949 10.4767 3.58163 10.7002Z" fill="var(--fill-0, #212746)"/>
</g>
<path id="Vector_3" fill-rule="evenodd" clip-rule="evenodd" d="M3.94388 8.8563L24.1306 1.18676C24.4235 1.07553 24.7112 1.01941 25 1.01941C25.2888 1.01941 25.5765 1.07553 25.8694 1.18676L46.0561 8.8563C46.3408 8.96447 46.3633 9.22366 46.3633 9.30121C46.3633 9.37876 46.3408 9.63795 46.0561 9.74612L25.8694 17.4157C25.2847 17.6381 24.7163 17.6381 24.1306 17.4157L8.52245 11.4849L25.051 9.80836C25.3316 9.77979 25.5357 9.52979 25.5071 9.24917C25.4796 8.96957 25.2286 8.76447 24.949 8.79304L6.39184 10.6757L3.94388 9.74612C3.65918 9.63795 3.63673 9.37774 3.63673 9.30121C3.63673 9.22468 3.65918 8.96447 3.94388 8.8563Z" fill="var(--fill-0, white)"/>
<path id="Vector_4" fill-rule="evenodd" clip-rule="evenodd" d="M47.5225 41.01C47.3265 41.1763 47.1296 41.2366 46.902 41.1998C42.5041 40.4855 37.1194 40.0988 29.9888 39.9845C29.8429 38.7212 29.2265 37.5997 28.3204 36.7997V31.0904C36.3725 31.0098 42.1918 30.619 46.902 29.8547C47.1296 29.818 47.3265 29.8782 47.5225 30.0445C48.5388 30.9098 48.9796 34.0946 48.9796 35.5273C48.9796 36.961 48.5398 40.1447 47.5225 41.01Z" fill="var(--fill-0, white)"/>
<path id="Vector_5" fill-rule="evenodd" clip-rule="evenodd" d="M20.9969 40.5651C20.9969 42.7723 22.7929 44.5672 25 44.5672C27.2071 44.5672 29.0031 42.7723 29.0031 40.5651C29.0031 38.3579 27.2071 36.562 25 36.562C22.7929 36.562 20.9969 38.3579 20.9969 40.5651Z" fill="var(--fill-0, white)"/>
<path id="Vector_6" fill-rule="evenodd" clip-rule="evenodd" d="M3.78571 33.5191C4.3949 35.5803 4.14592 37.6793 3.44694 38.8865H4.44898C4.68775 37.9875 4.8449 36.8538 4.8449 35.5273C4.8449 34.7966 4.79694 34.1252 4.71429 33.5191H3.78571Z" fill="var(--fill-0, white)"/>
<path id="Vector_7" fill-rule="evenodd" clip-rule="evenodd" d="M20.0082 40.0069C14.5337 40.1365 9.28571 40.4804 4.67959 41.008C5.45714 39.711 5.86531 37.5783 5.86531 35.5273C5.86531 33.4762 5.45714 31.3445 4.67959 30.0465C9.75102 30.6272 15.6357 30.9833 21.6796 31.0802V36.7997C20.7684 37.6049 20.15 38.7345 20.0082 40.0069Z" fill="var(--fill-0, white)"/>
<path id="Vector_8" fill-rule="evenodd" clip-rule="evenodd" d="M22.5724 40.5651C22.5724 39.2263 23.6602 38.1365 25 38.1365C26.3398 38.1365 27.4276 39.2263 27.4276 40.5651C27.4276 41.9039 26.3388 42.9927 25 42.9927C23.6612 42.9927 22.5724 41.9039 22.5724 40.5651Z" fill="var(--fill-0, #D0E957)"/>
</g>
<defs>
<clipPath id="clip0_0_4">
<rect width="50" height="50" fill="white"/>
</clipPath>
</defs>
</svg>
