<svg preserveAspectRatio="none" width="100%" height="100%" overflow="visible" style="display: block;" viewBox="0 0 11 280" fill="none" xmlns="http://www.w3.org/2000/svg">
<g id="a" clip-path="url(#clip0_0_442)">
<path id="Vector" d="M6.38396 242.215C6.38396 242.215 6.45549 242.253 6.51681 242.271C6.46571 242.234 6.42483 242.215 6.38396 242.215Z" fill="var(--fill-0, #D0E957)"/>
<path id="Vector_2" d="M7.35478 220.172L7.4161 220.424C7.4161 220.25 7.38544 220.192 7.35478 220.172Z" fill="var(--fill-0, #D0E957)"/>
<path id="Vector_3" d="M5.96497 255.445C5.96497 255.445 5.94453 255.445 5.93431 255.406C5.93431 255.602 5.91387 255.877 5.90365 256.328L5.96497 255.425V255.445Z" fill="var(--fill-0, #D0E957)"/>
<path id="Vector_4" d="M8.54021 173.103V173.398C8.54021 173.26 8.55932 173.182 8.54021 173.103Z" fill="var(--fill-0, #D0E957)"/>
<path id="Vector_5" d="M7.76355 200.995C7.71245 200.917 7.69202 200.76 7.67158 200.622C7.67158 200.799 7.67158 200.937 7.76355 200.995Z" fill="var(--fill-0, #D0E957)"/>
<path id="Vector_6" d="M3.04227 262.374L3.23644 262.001C3.15468 262.001 3.06271 262.138 3.04227 262.374Z" fill="var(--fill-0, #D0E957)"/>
<path id="Vector_7" d="M3.76784 275.796C3.76784 275.796 3.79809 275.796 3.80818 275.76C3.78801 275.742 3.77792 275.76 3.76784 275.796Z" fill="var(--fill-0, #D0E957)"/>
<path id="Vector_8" d="M4.57515 270.578C4.55471 270.461 4.52406 270.343 4.4934 270.205C4.4934 270.362 4.4934 270.559 4.57515 270.578Z" fill="var(--fill-0, #D0E957)"/>
<path id="Vector_9" d="M4.4423 270.009C4.4423 270.009 4.47296 270.125 4.4934 270.183C4.4934 270.087 4.48318 270.009 4.4423 270.009Z" fill="var(--fill-0, #D0E957)"/>
<path id="Vector_10" d="M8.39714 2.11987C8.39714 1.7273 8.26429 1.39362 8.14166 1.05994L8.39714 2.11987Z" fill="var(--fill-0, #D0E957)"/>
<path id="Vector_11" d="M8.85701 130.49L8.93876 130.566C8.93876 130.566 8.88767 130.471 8.85701 130.49Z" fill="var(--fill-0, #D0E957)"/>
<path id="Vector_12" d="M6.70075 1.6059L6.74163 1.33474C6.71097 1.43158 6.70075 1.52843 6.70075 1.6059Z" fill="var(--fill-0, #D0E957)"/>
<path id="Vector_13" d="M2.55175 255.268C2.3678 254.876 2.59263 254.09 2.40868 254.09C2.43934 254.503 2.28605 255.072 2.55175 255.268Z" fill="var(--fill-0, #D0E957)"/>
<path id="Vector_14" d="M1.7042 121.359V121.108C1.69252 121.224 1.7042 121.301 1.7042 121.359Z" fill="var(--fill-0, #D0E957)"/>
<path id="Vector_15" d="M6.70075 1.60953L6.64966 1.92359C6.64966 1.92359 6.71097 1.8647 6.74163 1.82545C6.71097 1.74693 6.70075 1.68805 6.69053 1.60953H6.70075Z" fill="var(--fill-0, #D0E957)"/>
<path id="Vector_16" d="M9.15337 86.1101C9.15337 86.1101 9.1738 86.1867 9.18402 86.2059L9.15337 86.1101Z" fill="var(--fill-0, #D0E957)"/>
<path id="Vector_17" d="M9.47016 83.7546C9.4906 83.9117 9.51104 84.0883 9.53148 84.265C9.55191 83.9902 9.52126 83.8528 9.47016 83.7546Z" fill="var(--fill-0, #D0E957)"/>
<path id="Vector_18" d="M8.14166 1.04031L7.99859 0.431826C8.01903 0.647739 8.08035 0.844024 8.14166 1.04031Z" fill="var(--fill-0, #D0E957)"/>
<path id="Vector_19" d="M9.31687 58.375C9.31687 58.375 9.32709 58.53 9.33731 58.6075C9.33731 58.5106 9.33731 58.4331 9.31687 58.375Z" fill="var(--fill-0, #D0E957)"/>
<path id="Vector_20" d="M7.64092 202.782C7.64092 202.782 7.61026 202.917 7.60004 202.975C7.64092 202.995 7.67158 202.975 7.64092 202.782Z" fill="var(--fill-0, #D0E957)"/>
<path id="Vector_21" d="M2.65522 185.155H2.64372H2.65522Z" fill="var(--fill-0, #D0E957)"/>
<path id="Vector_22" d="M2.87876 186.097C2.91964 185.803 2.78679 185.391 2.64372 185.155C2.64372 185.45 2.6846 185.724 2.87876 186.097Z" fill="var(--fill-0, #D0E957)"/>
<path id="Vector_23" d="M2.75613 183.153C2.75613 183.153 2.73569 183.211 2.73569 183.268C2.74591 183.23 2.75613 183.191 2.75613 183.153Z" fill="var(--fill-0, #D0E957)"/>
<path id="Vector_24" d="M2.28605 201.977C2.28605 201.977 2.29627 201.977 2.30649 201.977C2.30649 201.977 2.29627 201.977 2.28605 201.977Z" fill="var(--fill-0, #D0E957)"/>
<path id="Vector_25" d="M2.27583 198.244C2.27583 198.244 2.34736 198.089 2.35758 197.992C2.31671 198.05 2.28605 198.128 2.27583 198.244Z" fill="var(--fill-0, #D0E957)"/>
<path id="Vector_26" d="M2.26561 173.847C2.26561 173.847 2.26561 173.847 2.26561 173.83V173.847Z" fill="var(--fill-0, #D0E957)"/>
<path id="Vector_27" d="M1.01887 138.675C1.11084 142.208 1.47873 146.782 1.3561 150.275C1.74443 151.041 1.75465 152.16 1.8364 153.279L1.31522 153.396L1.47873 154.339C1.31522 154.712 1.38676 153.612 1.18237 154.28L1.50939 154.633C1.32544 154.712 1.37654 157.028 1.00865 155.457L0.988208 159.069C0.96777 159.874 1.41742 159.54 1.28457 160.423C1.13128 160.6 1.18237 160.109 0.998427 160.168C0.599878 162.818 1.99991 163.25 1.74443 165.723L1.6729 165.507C1.80575 165.939 1.78531 166.724 1.86706 166.744C2.39846 166.43 1.58092 166.292 1.89772 165.546C2.33715 165.625 2.13276 166.489 2.47 166.449C2.30649 167.019 2.56197 167.372 2.58241 167.882C2.29627 168.746 2.49043 169.982 2.14298 170.611C2.27583 171.042 2.71526 171.513 2.72548 172.416C2.37802 173.064 2.39846 172.259 2.26561 173.143L2.52109 173.28C2.48021 174.006 2.40868 173.889 2.28605 173.869C2.27583 174.634 2.6335 174.517 2.47 175.498L2.22473 174.948C2.31671 175.675 2.27583 175.969 2.24517 176.97C2.1021 176.951 2.11232 176.538 2.1532 176.244C1.76487 176.774 2.31671 177.186 2.26561 177.461C2.37802 177.382 2.42912 176.695 2.6846 177.029C2.6335 177.52 3.03205 178.089 2.72548 178.442L2.48021 177.893C2.67438 178.933 2.79701 178.462 2.69482 179.64C2.67438 179.581 2.61306 179.6 2.56197 179.581C2.88898 180.346 2.58241 181.308 2.56197 182.427L2.49043 182.211C2.57219 182.662 2.80723 182.918 2.78679 183.153C2.94008 182.525 3.01161 182.702 3.25688 182.643C2.82767 183.467 3.73718 183.938 3.4817 185.293C3.33863 185.273 3.15468 184.939 3.31819 184.566C2.88898 184.095 2.51087 184.017 2.31671 183.192C2.4189 183.703 2.47 184.331 2.28605 184.193L2.69482 184.37C2.69482 184.684 2.67438 184.939 2.67438 185.175C2.92986 185.312 3.09337 184.547 3.25688 185.273C3.37951 186.097 2.83789 185.705 3.02183 185.842C3.17512 186.981 3.45104 186.313 3.31819 187.413C3.28753 187.295 3.216 187.098 3.25688 187C3.09337 187.785 3.31819 188.924 2.82767 189.14C2.71526 189.022 2.57219 189.002 2.61306 188.708H2.6846C2.33715 187.864 2.77657 189.434 2.33715 189.159C2.60285 189.101 2.53131 190.2 2.48021 190.691L2.77657 190.533C3.66564 192.202 2.18386 190.435 2.29627 192.064C2.49043 193.105 2.37802 191.672 2.59263 192.32C2.54153 193.007 2.26561 193.262 2.39846 194.302C2.27583 194.577 2.11232 195.166 1.78531 195.205C1.91816 195.833 1.6218 197.089 1.94881 197.443C2.23495 196.383 1.60136 196.383 2.04079 195.146L2.3678 195.499C2.34736 196.363 2.50065 197.462 2.38824 198.051C2.44956 197.933 2.54153 197.875 2.60285 197.953C2.71526 199.17 3.04227 199.543 2.94008 200.721C2.64372 200.878 2.69482 200.171 2.67438 199.661C2.42912 200.426 2.65394 200.465 2.55175 201.643C2.28605 201.702 2.57219 200.838 2.31671 200.701L2.38824 202.016C2.38824 202.016 2.35758 202.016 2.33715 202.016C2.77657 202.212 2.29627 203.017 2.4189 203.822C2.40868 205.726 2.99118 206.04 3.33863 207.1C3.216 207.375 3.10359 207.473 3.00139 207.335C3.19556 206.864 3.04227 206.943 2.92986 206.786C2.97074 207.434 2.49043 208.179 2.31671 207.826C2.43934 208.847 2.55175 207.453 2.6846 208.081L2.64372 209.475C2.86854 209.318 2.91964 208.827 3.08315 209.553C3.14446 210.162 3.09337 210.456 3.08315 211.261C2.97074 211.143 2.74591 211.516 2.75613 210.908C2.67438 211.3 2.65394 211.889 2.86854 212.125C3.07293 211.261 3.05249 213.558 3.39994 212.91L3.19556 213.774C3.19556 213.577 3.05249 213.558 3.09337 213.263C2.75613 213.499 3.18534 213.989 3.216 214.284C3.14446 214.598 3.11381 215.383 2.98096 215.462C3.07293 215.736 2.99118 216.423 2.81745 216.541C2.87876 216.953 3.04227 216.58 3.14446 216.698L3.10359 218.092C2.91964 218.17 2.39846 218.268 2.32693 218.053C2.50065 218.583 2.87876 218.249 2.85833 219.054C2.50065 218.583 2.57219 220.114 2.14298 219.427C1.87728 219.878 1.87728 221.193 1.96925 221.9C2.25539 222.351 2.13276 221.115 2.42912 221.174C2.52109 223.195 3.33863 223.333 3.18534 224.824L3.26709 224.432C3.4306 225.354 3.38973 225.256 3.63499 225.806C3.26709 225.551 2.64372 226.846 2.71526 228.358C2.8992 228.495 3.07293 227.514 3.35907 227.769L3.41016 228.789C3.41016 228.789 3.31819 228.75 3.27731 228.613C3.39994 229.516 2.78679 230.281 3.216 230.556L2.67438 231.459L2.90942 231.106C3.09337 231.243 3.13424 232.244 3.20578 232.46C3.39994 233.5 3.24666 233.873 3.00139 234.442C3.15468 234.266 3.50214 233.814 3.55323 234.639C2.96052 234.639 3.32841 236.346 3.01161 236.307C3.01161 236.641 2.82767 237.21 3.07293 237.269L2.70504 237.21C3.22622 237.288 3.19556 238.505 3.27731 239.408C2.58241 239.192 3.32841 240.409 2.6846 240.822C3.1649 240.998 2.86854 242.451 3.26709 242.627C3.28753 243.334 2.84811 243.256 2.69482 243.432L2.86854 243.766C2.64372 244.119 2.60285 245.454 2.44956 246.239L2.86854 246.985L2.67438 247.26C2.77657 247.378 2.83789 247.986 3.00139 247.613L2.97074 248.006C3.4306 248.045 3.09337 248.575 3.28753 249.36C3.216 249.537 3.10359 249.497 3.04227 249.321C3.04227 249.713 2.79701 249.537 2.64372 249.753C2.76635 249.478 3.46126 251.205 3.67586 250.125C3.85981 250.047 3.99266 250.675 3.91091 251.068L3.50214 251.303L3.93134 251.774C3.99266 252.383 3.72696 252.638 3.67586 253.129C3.65542 252.618 2.88898 251.99 2.88898 253.305C2.83789 252.618 2.61306 252.285 2.53131 251.912C2.51087 252.186 2.47 252.324 2.29627 251.892C2.4189 252.913 2.55175 252.245 2.59263 253.246C2.22473 253.188 2.1021 253.462 1.96925 254.346L2.24517 253.698C2.24517 253.698 2.32693 253.776 2.34736 253.835C2.38824 253.58 2.44956 253.521 2.59263 253.462C2.59263 253.659 3.04227 254.64 2.81745 254.797C3.39994 253.796 3.25688 256.583 3.60433 255.936C3.70652 256.053 3.72696 256.76 3.54301 256.838C3.26709 255.994 3.12403 257.467 2.85833 257.329C2.96052 257.643 3.13424 256.662 3.27731 257.094C3.29775 257.604 3.07293 257.957 2.9503 258.232L2.87876 258.016L2.70504 258.782C2.88898 258.919 3.02183 258.036 3.11381 258.742C3.03205 258.939 3.12403 259.645 2.98096 259.626C2.72548 259.272 2.38824 259.528 2.32693 258.919C2.34736 259.429 2.38824 261.039 2.73569 260.391L2.71526 261C2.86854 260.627 3.15468 259.567 3.20578 260.784H3.13424L3.41016 261.628L3.216 262.001C3.30797 262.001 3.39994 262.118 3.38973 262.433C3.27731 262.511 3.23644 262.805 3.08315 262.786C3.09337 263.689 3.28753 263.63 3.38973 263.748C3.41016 264.258 3.33863 264.435 3.11381 264.199C3.06271 264.886 3.10359 266.103 2.90942 266.574C3.07293 267.516 2.99118 266.378 3.23644 266.927C2.58241 267.713 2.97074 269.989 3.04227 271.521C3.60433 271.128 3.10359 271.933 3.61455 272.227C3.44082 271.893 3.17512 273.66 3.02183 272.325L3.07293 273.13C2.75613 273.68 2.84811 271.795 2.4189 272.62C2.42912 273.523 3.04227 274.131 2.83789 275.191C2.43934 274.818 2.96052 276.015 2.53131 275.741C2.38824 275.525 2.42912 275.211 2.40868 274.916L2.32693 275.113C2.2043 277.095 2.79701 275.701 3.06271 276.742C3.10359 277.959 2.74591 277.684 2.55175 277.762C2.47 277.959 2.53131 278.567 2.6335 278.881C2.39846 278.135 2.88898 277.527 3.14446 277.86C2.6846 278.39 3.09337 279.666 3.27731 280C3.76784 278.273 3.30797 278.803 3.82915 277.174C3.68608 276.938 3.27731 276.977 3.45104 275.996C3.64521 276.604 3.67586 275.957 3.7474 275.78C3.51236 275.957 3.65542 275.093 3.55323 274.798C3.7474 274.524 4.09485 275.387 4.19704 274.406L3.64521 274.21C3.72696 273.817 4.05397 274.386 3.92112 273.562C4.20726 274.013 4.37077 273.444 4.45252 274.563C4.93283 273.248 4.20726 272.522 4.0131 271.481C4.04376 271.579 4.12551 271.599 4.15617 271.697C4.0131 271.481 4.02332 271.069 3.99266 270.775C4.12551 270.088 4.23792 271.324 4.39121 271.148V270.048C4.39121 270.048 4.41165 270.029 4.42187 270.029C4.35033 269.734 4.29924 269.46 4.4423 269.361C4.61603 269.695 4.79998 269.832 4.94305 270.048L4.56494 268.871C4.74888 269.008 4.88173 267.909 5.01458 268.753L4.94305 267.026L5.32116 266.888C5.25984 266.476 5.18831 266.456 5.13721 266.947C5.22919 266.358 4.50362 264.336 5.22918 264.651C4.93283 263.296 5.05546 262.805 4.87151 261.176C5.20875 262.433 5.31094 259.743 5.46423 261.078C5.62773 260.293 5.22918 260.136 5.16787 259.528C5.33138 258.958 5.68905 259.213 5.83212 259.842L5.66861 259.115H5.74015L5.53576 258.487C5.74015 257.82 5.91387 258.35 5.96497 257.663L5.63795 257.506L5.83212 257.035C5.67883 257.211 5.61752 256.799 5.59708 256.289H5.66861L5.6073 255.68C5.80146 256.289 5.67883 255.131 5.91387 255.406C5.93431 254.876 5.92409 254.876 5.873 253.914L5.64817 254.071C5.45401 252.834 5.98541 254.032 6.00585 253.031L5.75037 253.089C6.18979 251.657 5.51532 250.636 5.80146 249.576C5.86278 250.184 6.15913 250.047 6.0876 250.027C5.99563 249.105 6.07738 247.613 5.7708 246.651C6.14891 246.318 6.26133 246.239 6.43505 245.258C6.41461 244.551 6.38396 244.453 6.15913 244.198C6.31242 243.511 6.09782 242.215 6.37374 242.196C6.15913 242.039 6.42483 241.587 6.24089 241.195L6.3533 241.116L6.09782 241.175C6.68031 239.958 5.78102 239.114 6.29198 237.897L6.36352 238.113L6.26133 237.603C6.37374 237.524 6.44527 237.74 6.58834 237.76L6.64966 235.365L6.45549 235.836C6.43505 235.326 6.17957 234.992 6.34308 234.403C6.73141 235.365 6.36352 233.598 6.65988 233.461L6.76207 233.971C6.74844 233.5 6.65306 233.284 6.47593 233.324C6.39418 232.401 6.97667 232.715 6.70075 231.851L6.68031 232.46C6.52703 232.637 6.31242 232.205 6.32264 231.792C6.36352 231.694 6.47593 231.42 6.50659 231.714C6.41461 230.988 6.54746 229.908 6.44527 229.594C6.52703 229.202 6.71097 229.339 6.78251 229.555C6.55768 228.004 6.8336 228.868 6.619 227.317H6.76207L6.58834 226.807L6.90514 226.061L6.71097 226.336C6.69053 225.825 6.58834 225.511 6.6701 224.923L6.8847 225.158C6.77229 223.725 7.26281 223.509 6.95623 222.155C6.99711 222.057 7.06864 222.273 7.0993 222.39C6.76207 221.134 7.49785 221.448 7.07886 220.172C7.1504 220.251 7.24237 220.114 7.30369 220.172L7.16062 219.603L7.45698 219.662L7.02777 219.191L7.33434 218.838L7.19128 218.602C7.76355 217.994 7.33434 217.13 7.76355 216.286L7.38544 216.423C6.62922 214.284 7.84531 211.575 7.49785 209.004L7.79421 209.063L7.45698 208.003C7.69202 207.434 7.71246 208.356 7.85552 208.179C7.70224 207.041 7.42632 207.708 7.34456 206.374C7.54895 205.706 7.55917 206.609 7.66136 206.923C7.51829 205.687 7.365 203.861 7.53873 202.998C7.49785 202.978 7.44676 202.919 7.42632 202.958C7.29347 202.134 7.43654 201.054 7.42632 200.151C7.55917 200.171 7.57961 200.407 7.61026 200.623C7.6307 200.289 7.72268 199.857 7.58983 199.582L7.84531 199.936C7.8964 199.249 7.67158 197.894 7.97816 197.757C7.86574 197.835 7.64092 197.796 7.66136 197.207C8.11101 196.873 7.47741 195.558 7.73289 194.616C7.83509 194.734 7.85552 195.441 7.86574 195.244C7.98837 194.754 7.77377 194.322 7.64092 193.89L7.82487 194.027L7.58983 191.77C8.03947 191.436 7.53873 189.65 7.86574 189.807C7.88618 189.002 7.66136 190.475 7.62048 189.454C7.81465 189.179 7.52851 188.531 7.82487 188.59L7.85552 188.708L7.83509 188.001L8.12122 188.453C8.05991 187.844 7.77377 187.393 7.55917 187.354C7.72267 186.784 7.60004 185.96 7.85552 185.705L7.92706 185.921C7.82487 184.292 8.73438 183.251 8.25407 181.956C8.29495 181.858 8.36649 181.877 8.36649 182.074L8.38692 181.073L8.60153 181.308L8.27451 179.64H8.41758C8.4789 178.56 8.41758 176.852 8.37671 175.439L8.44824 175.655C8.22342 174.104 8.60153 174.163 8.44824 173.045C8.48912 173.084 8.49934 173.123 8.50955 173.162V172.142L8.65262 172.377C8.33583 171.612 9.08183 170.238 8.80591 170.689C8.67306 170.257 8.49934 169.531 8.32561 169.394C8.32561 168.294 8.51977 169.119 8.6424 168.451C8.66284 167.647 8.40736 167.509 8.55043 166.43H8.6935C8.67306 165.939 8.57087 165.625 8.55043 164.918L8.62197 165.134C8.31539 163.976 9.06139 163.701 8.4278 162.798C8.55043 162.327 8.45846 161.405 8.75482 161.444C8.57087 160.011 8.48912 158.892 8.37671 157.46C8.86723 157.244 8.34605 157.145 8.63219 156.301L8.37671 156.36C8.35627 154.339 9.0103 152.042 8.9081 149.824L9.1738 149.765L8.88767 149.314C9.02052 146.919 9.14315 143.837 9.15337 141.933C9.02052 141.305 8.71394 140.344 8.80591 139.362L8.83657 139.46C8.6935 137.733 8.59131 135.907 8.75482 134.023C8.86723 134.141 8.93876 133.964 9.0103 134.161C8.72416 133.709 9.0103 133.061 9.0103 132.649L8.81613 133.12C8.57087 132.571 8.81613 131.825 9.00008 131.55L8.72416 130.706C8.72416 130.706 8.79569 130.569 8.83657 130.549L8.70372 130.392L9.05117 129.94C8.97964 129.724 8.89789 128.606 8.57087 128.252C8.68328 128.174 8.77525 127.389 8.83657 127.997L8.94898 124.896L8.82635 125.367C8.57087 125.426 8.40736 124.484 8.52999 124.013C8.73438 124.641 8.89789 124.072 9.09205 123.797C8.94898 123.365 8.85701 124.15 8.71394 123.934C8.54021 123.404 8.45846 122.285 8.58109 122.011L8.68328 122.325C8.59131 121.598 9.04095 121.284 9.03074 120.578C8.82635 119.93 9.02052 119.478 8.57087 119.596C8.4789 118.674 8.87745 119.243 8.91832 118.948C8.70372 118.517 8.84679 117.241 9.08183 117.064C8.4278 116.554 9.32709 114.591 8.77525 114.395L9.09205 113.649C8.94898 113.629 8.61175 113.472 8.56065 112.844C8.72416 112.275 8.97964 112.412 9.13293 112.236L8.58109 111.843C9.18402 108.526 8.81613 104.149 9.31687 100.517C9.20446 98.8882 8.96942 96.8468 9.05117 94.9429L9.12271 95.1588L9.28622 93.2745L9.03074 94.6288C8.96942 94.2166 8.86723 93.9026 8.87745 93.4904C9.11249 91.4294 9.40885 88.6814 9.14315 86.1101C8.51977 84.4416 9.7052 85.0305 9.25556 83.4406C9.31687 83.578 9.39863 83.6369 9.45994 83.7546C9.25556 82.047 9.15337 81.1244 8.79569 79.4168C9.41907 79.6327 8.79569 78.3176 9.11249 78.4746L8.85701 78.3372C9.0103 77.9642 9.07161 77.0613 9.25556 77.1987L8.93876 76.4332L9.20446 76.3743C9.2249 75.3733 9.03074 73.2338 9.56214 72.7234C9.18402 70.2503 9.31687 66.3638 9.42929 63.2625C9.21468 62.8307 9.20446 61.9278 9.18402 61.2015L9.50082 60.4557C9.40885 59.7294 9.02052 58.9639 9.2249 58.2965C9.26578 58.2965 9.28622 58.3358 9.30665 58.375C9.24534 57.6488 9.41907 56.9618 9.13293 56.2552C9.15337 55.4504 9.31687 54.6849 9.61323 54.9401C9.09205 54.8615 9.69499 53.252 9.69499 53.252C9.69499 53.252 11.1461 12.1893 8.39714 2.11987C8.14166 1.78619 7.98837 0.844024 7.6818 1.19734C7.58982 0.471083 8.03947 0.157028 7.78399 2.18622e-08C7.61026 0.981423 7.12996 -0.314055 6.80295 0.628111L6.74163 0.0196285C6.55768 -0.117771 6.94601 0.863652 6.619 0.706625L7.0993 0.883281C7.02777 1.37399 6.92558 1.64879 6.76207 1.82545C6.94601 2.29653 7.58982 2.61059 7.30369 3.70978L7.27303 3.39572C7.28325 4.29863 6.96645 3.94532 6.8847 4.14161V3.94532L6.64966 4.71083C6.81316 4.14161 6.43505 3.16018 6.45549 3.67052C6.31242 4.75009 6.5679 3.39572 6.62922 4.20049C6.64966 4.71083 6.39418 4.5538 6.25111 4.53417V5.43708C6.04672 5.39783 6.28176 4.8286 6.04672 5.20154L6.27155 6.33999C5.70949 6.53628 6.53725 7.59621 6.00585 8.10655C5.873 7.28216 5.8219 8.18507 5.63795 8.04767L5.65839 10.0694C5.57664 10.2657 5.48467 9.53943 5.51532 9.83386C5.36203 10.2068 5.64817 10.462 5.64817 10.6583C5.49488 10.8349 5.64817 12.1696 5.28028 12.0911C5.0248 13.4455 5.75037 12.68 5.53576 13.9362C5.31094 14.0932 5.48467 12.9155 5.24962 13.4848L5.33138 14.7999C5.21897 14.6821 4.96349 14.5447 5.01458 14.0344C4.69779 17.5871 3.50214 19.4911 3.78827 22.769C3.51236 23.2205 3.61455 22.4353 3.4306 22.1016C3.77806 24.4767 2.82767 25.4189 2.84811 27.421L3.07293 27.4602C2.3678 30.2475 2.76635 33.6432 2.45978 36.8034L2.61306 36.4304C2.82767 36.8622 2.84811 37.5689 2.94008 38.0988C2.82767 38.1774 2.47 37.7063 2.55175 38.6288C2.6335 38.4325 2.71526 38.0596 2.82767 38.1774C2.23495 40.8861 2.35758 46.6372 2.05101 51.1125C2.19408 57.1581 1.72399 63.714 1.8364 69.6614C1.82618 68.7585 2.3678 69.1511 2.23495 69.8381C1.29478 71.6831 2.37802 73.0768 1.73421 74.9807C2.02035 78.455 1.19259 81.517 1.8875 84.7557L1.6218 84.8146C1.49917 85.2857 1.68312 85.4231 1.70355 85.9334H1.63202C1.52983 87.1111 1.78531 88.5636 1.66268 89.2506L1.95903 89.2899C1.97947 89.9965 1.72399 89.6628 1.89772 90.3891H1.75465L2.03057 91.2135C1.50939 91.1153 1.97947 93.2156 1.74443 93.7848C1.8364 94.7073 2.05101 96.4543 1.9386 97.8283C1.6729 98.0834 1.66268 99.7911 1.52983 100.871C1.58092 102.991 1.65246 106.013 1.55027 108.702L1.8875 108.663L1.90794 109.37C1.8364 109.37 1.79553 109.448 1.76487 109.35C1.37654 109.88 1.87728 110.979 1.63202 111.529C1.9386 111.176 1.68312 111.038 1.69333 110.626C1.85684 110.057 2.17364 110.626 2.01013 111.392H1.9386L2.11232 111.902C1.84662 111.961 1.72399 112.432 1.46851 112.491C1.51961 114.807 1.95903 116.397 1.82618 118.772C1.54005 118.517 1.8875 120.499 1.38676 120.008C1.5707 121.441 1.79553 119.773 2.1532 120.44C2.14298 120.833 2.27583 121.265 2.09188 121.324C1.96925 121.127 1.78531 121.638 1.73421 121.324L1.76487 122.285C1.76487 122.285 1.65246 122.168 1.6218 122.05C1.90794 124.013 1.27435 125.504 1.56048 127.271C1.74443 127.408 1.61158 126.584 1.79553 126.702C2.16342 128.468 1.45829 128.252 1.71377 129.901L1.45829 129.548C1.63202 130.078 1.84662 130.313 1.64224 131.197C1.34588 131.354 1.39698 130.451 1.26413 130.019C1.24369 130.627 1.31522 132.139 1.59114 131.687C1.68312 132.414 1.41742 132.669 1.33566 133.042C1.4072 133.042 1.54005 132.374 1.6729 132.806C1.49917 133.788 1.49917 135.299 1.46851 136.496C1.39698 136.496 1.28457 136.575 1.24369 136.457C1.63202 137.419 0.957551 137.321 1.0393 138.636L1.01887 138.675Z" fill="var(--fill-0, #D0E957)"/>
<path id="Vector_28" d="M2.24517 202.468L2.29627 201.977C2.23495 201.977 2.1532 201.957 2.08166 201.722L2.24517 202.448V202.468Z" fill="var(--fill-0, #D0E957)"/>
<path id="Vector_29" d="M2.54153 179.578C2.54153 179.578 2.50065 179.462 2.45978 179.404C2.46999 179.52 2.50065 179.559 2.54153 179.578Z" fill="var(--fill-0, #D0E957)"/>
<path id="Vector_30" d="M2.04079 174.006C2.1021 174.399 2.18386 174.046 2.26561 173.849C2.2043 173.849 2.13276 173.849 2.04079 174.006Z" fill="var(--fill-0, #D0E957)"/>
<path id="Vector_31" d="M2.97074 215.439C2.97074 215.439 2.8992 215.305 2.83789 215.324C2.88898 215.439 2.92986 215.458 2.97074 215.439Z" fill="var(--fill-0, #D0E957)"/>
<path id="Vector_32" d="M2.58241 251.28C2.58241 251.28 2.60284 251.204 2.62328 251.146C2.60284 251.165 2.58241 251.223 2.58241 251.28Z" fill="var(--fill-0, #D0E957)"/>
<path id="Vector_33" d="M3.05249 249.321C3.05249 249.321 3.05249 249.105 3.01161 248.909C2.99117 249.085 3.01161 249.203 3.05249 249.321Z" fill="var(--fill-0, #D0E957)"/>
<path id="Vector_34" d="M2.8992 206.766C2.8992 206.629 2.86854 206.511 2.80723 206.393C2.80723 206.59 2.85832 206.707 2.8992 206.766Z" fill="var(--fill-0, #D0E957)"/>
<path id="Vector_35" d="M2.9503 248.496L2.98096 248.006C2.98096 248.006 2.9503 248.006 2.91964 248.006L2.94008 248.516L2.9503 248.496Z" fill="var(--fill-0, #D0E957)"/>
<path id="Vector_36" d="M2.54153 251.931C2.55175 251.735 2.55175 251.48 2.58241 251.303C2.50065 251.558 2.50065 251.755 2.54153 251.931Z" fill="var(--fill-0, #D0E957)"/>
<path id="Vector_37" d="M3.28753 228.609C3.28753 228.609 3.28753 228.57 3.28753 228.551C3.1649 228.164 3.216 228.416 3.28753 228.609Z" fill="var(--fill-0, #D0E957)"/>
<path id="Vector_38" d="M2.44956 246.295C2.44956 246.295 2.44956 246.256 2.45977 246.237L2.37802 246.082L2.44956 246.295Z" fill="var(--fill-0, #D0E957)"/>
<path id="Vector_39" d="M2.4189 254.087C2.4189 254.087 2.39846 253.913 2.3678 253.835C2.35758 253.913 2.34736 254.01 2.33714 254.106C2.37802 254.087 2.39846 254.068 2.42912 254.068L2.4189 254.087Z" fill="var(--fill-0, #D0E957)"/>
<path id="Vector_40" d="M2.78679 236.11C2.8992 236.246 2.97074 236.304 3.03205 236.304C3.03205 236.149 2.98096 236.033 2.78679 236.11Z" fill="var(--fill-0, #D0E957)"/>
</g>
<defs>
<clipPath id="clip0_0_442">
<rect width="11" height="280" fill="white"/>
</clipPath>
</defs>
</svg>
