<svg preserveAspectRatio="none" width="100%" height="100%" overflow="visible" style="display: block;" viewBox="0 0 11 257" fill="none" xmlns="http://www.w3.org/2000/svg">
<g id="a" clip-path="url(#clip0_0_483)">
<path id="Vector" d="M6.38396 222.319C6.38396 222.319 6.45549 222.353 6.51681 222.371C6.46571 222.336 6.42483 222.319 6.38396 222.319Z" fill="var(--fill-0, #D0E957)"/>
<path id="Vector_2" d="M7.35478 202.087L7.4161 202.318C7.4161 202.158 7.38544 202.105 7.35478 202.087Z" fill="var(--fill-0, #D0E957)"/>
<path id="Vector_3" d="M5.96497 234.462C5.96497 234.462 5.94453 234.462 5.93431 234.426C5.93431 234.606 5.91387 234.858 5.90365 235.273L5.96497 234.444V234.462Z" fill="var(--fill-0, #D0E957)"/>
<path id="Vector_4" d="M8.54021 158.884V159.154C8.54021 159.028 8.56544 158.956 8.54021 158.884Z" fill="var(--fill-0, #D0E957)"/>
<path id="Vector_5" d="M7.76355 184.485C7.71245 184.413 7.69202 184.269 7.67158 184.143C7.67158 184.305 7.67158 184.431 7.76355 184.485Z" fill="var(--fill-0, #D0E957)"/>
<path id="Vector_6" d="M3.04227 240.822L3.23644 240.479C3.15468 240.479 3.06271 240.605 3.04227 240.822Z" fill="var(--fill-0, #D0E957)"/>
<path id="Vector_7" d="M3.76784 253.141C3.76784 253.141 3.79809 253.141 3.80818 253.108C3.78801 253.091 3.77792 253.108 3.76784 253.141Z" fill="var(--fill-0, #D0E957)"/>
<path id="Vector_8" d="M4.57515 248.352C4.55471 248.244 4.52406 248.136 4.4934 248.01C4.4934 248.154 4.4934 248.334 4.57515 248.352Z" fill="var(--fill-0, #D0E957)"/>
<path id="Vector_9" d="M4.4423 247.83C4.4423 247.83 4.47296 247.936 4.4934 247.99C4.4934 247.901 4.48318 247.83 4.4423 247.83Z" fill="var(--fill-0, #D0E957)"/>
<path id="Vector_10" d="M8.39715 1.94574C8.39715 1.58542 8.2643 1.27915 8.14166 0.972871L8.39715 1.94574Z" fill="var(--fill-0, #D0E957)"/>
<path id="Vector_11" d="M8.85701 119.771L8.93876 119.841C8.93876 119.841 8.88767 119.754 8.85701 119.771Z" fill="var(--fill-0, #D0E957)"/>
<path id="Vector_12" d="M6.70075 1.47399L6.74163 1.2251C6.71097 1.31399 6.70075 1.40288 6.70075 1.47399Z" fill="var(--fill-0, #D0E957)"/>
<path id="Vector_13" d="M2.55175 234.3C2.3678 233.939 2.59263 233.219 2.40868 233.219C2.43934 233.597 2.28605 234.12 2.55175 234.3Z" fill="var(--fill-0, #D0E957)"/>
<path id="Vector_14" d="M1.70586 111.391V111.16C1.69045 111.266 1.70586 111.337 1.70586 111.391Z" fill="var(--fill-0, #D0E957)"/>
<path id="Vector_15" d="M6.70075 1.47732L6.64966 1.76558C6.64966 1.76558 6.71097 1.71153 6.74163 1.6755C6.71097 1.60344 6.70075 1.54939 6.69053 1.47732H6.70075Z" fill="var(--fill-0, #D0E957)"/>
<path id="Vector_16" d="M9.15337 79.0367C9.15337 79.0367 9.1738 79.1076 9.18402 79.1253L9.15337 79.0367Z" fill="var(--fill-0, #D0E957)"/>
<path id="Vector_17" d="M9.47016 76.8748C9.4906 77.0189 9.51104 77.1811 9.53148 77.3432C9.55192 77.091 9.52126 76.9649 9.47016 76.8748Z" fill="var(--fill-0, #D0E957)"/>
<path id="Vector_18" d="M8.14166 0.954855L7.99859 0.396355C8.01903 0.594532 8.08035 0.774693 8.14166 0.954855Z" fill="var(--fill-0, #D0E957)"/>
<path id="Vector_19" d="M9.31687 53.5799C9.31687 53.5799 9.32709 53.7222 9.33731 53.7933C9.33731 53.7044 9.33731 53.6333 9.31687 53.5799Z" fill="var(--fill-0, #D0E957)"/>
<path id="Vector_20" d="M7.64092 186.125C7.64092 186.125 7.61026 186.249 7.60005 186.302C7.64092 186.32 7.67158 186.302 7.64092 186.125Z" fill="var(--fill-0, #D0E957)"/>
<path id="Vector_21" d="M2.65522 169.946H2.64372H2.65522Z" fill="var(--fill-0, #D0E957)"/>
<path id="Vector_22" d="M2.87876 170.811C2.91964 170.541 2.78679 170.162 2.64372 169.946C2.64372 170.216 2.6846 170.469 2.87876 170.811Z" fill="var(--fill-0, #D0E957)"/>
<path id="Vector_23" d="M2.75613 168.108C2.75613 168.108 2.73569 168.162 2.73569 168.215C2.74591 168.179 2.75613 168.144 2.75613 168.108Z" fill="var(--fill-0, #D0E957)"/>
<path id="Vector_24" d="M2.28605 185.386C2.28605 185.386 2.29627 185.386 2.30649 185.386C2.30649 185.386 2.29627 185.386 2.28605 185.386Z" fill="var(--fill-0, #D0E957)"/>
<path id="Vector_25" d="M2.27583 181.96C2.27583 181.96 2.34736 181.818 2.35758 181.729C2.31671 181.782 2.28605 181.853 2.27583 181.96Z" fill="var(--fill-0, #D0E957)"/>
<path id="Vector_26" d="M2.26561 159.568C2.26561 159.568 2.26561 159.568 2.26561 159.551V159.568Z" fill="var(--fill-0, #D0E957)"/>
<path id="Vector_27" d="M1.01887 127.284C1.11084 130.527 1.47873 134.725 1.3561 137.931C1.74443 138.634 1.75465 139.661 1.8364 140.688L1.31522 140.796L1.47873 141.661C1.31522 142.003 1.38676 140.994 1.18237 141.607L1.50939 141.931C1.32544 142.003 1.37654 144.129 1.00865 142.688L0.988208 146.003C0.96777 146.741 1.41742 146.435 1.28457 147.246C1.13128 147.408 1.18237 146.958 0.998427 147.012C0.599878 149.444 1.99991 149.84 1.74443 152.11L1.6729 151.912C1.80575 152.308 1.78531 153.029 1.86706 153.047C2.39846 152.759 1.58092 152.633 1.89772 151.948C2.33715 152.02 2.13276 152.813 2.47 152.777C2.30649 153.299 2.56197 153.623 2.58241 154.092C2.29627 154.885 2.49043 156.02 2.14298 156.596C2.27583 156.992 2.71526 157.425 2.72548 158.254C2.37802 158.848 2.39846 158.11 2.26561 158.92L2.52109 159.046C2.48021 159.713 2.40868 159.605 2.28605 159.587C2.27583 160.289 2.6335 160.181 2.47 161.082L2.22473 160.578C2.31671 161.244 2.27583 161.515 2.24517 162.433C2.1021 162.415 2.11232 162.037 2.1532 161.767C1.76487 162.253 2.31671 162.632 2.26561 162.884C2.37802 162.812 2.42912 162.181 2.6846 162.487C2.6335 162.938 3.03205 163.46 2.72548 163.785L2.48021 163.28C2.67438 164.235 2.79701 163.803 2.69482 164.884C2.67438 164.83 2.61306 164.848 2.56197 164.83C2.88898 165.532 2.58241 166.415 2.56197 167.442L2.49043 167.244C2.57219 167.658 2.80723 167.892 2.78679 168.108C2.94008 167.532 3.01161 167.694 3.25688 167.64C2.82767 168.397 3.73718 168.829 3.4817 170.072C3.33863 170.054 3.15468 169.748 3.31819 169.406C2.88898 168.973 2.51087 168.901 2.31671 168.144C2.4189 168.613 2.47 169.189 2.28605 169.063L2.69482 169.225C2.69482 169.514 2.67438 169.748 2.67438 169.964C2.92986 170.09 3.09337 169.388 3.25688 170.054C3.37951 170.811 2.83789 170.451 3.02183 170.577C3.17512 171.622 3.45104 171.009 3.31819 172.018C3.28753 171.91 3.216 171.73 3.25688 171.64C3.09337 172.36 3.31819 173.405 2.82767 173.603C2.71526 173.495 2.57219 173.477 2.61306 173.207H2.6846C2.33715 172.432 2.77657 173.874 2.33715 173.621C2.60285 173.567 2.53131 174.576 2.48021 175.027L2.77657 174.883C3.66564 176.414 2.18386 174.792 2.29627 176.288C2.49043 177.243 2.37802 175.927 2.59263 176.522C2.54153 177.153 2.26561 177.387 2.39846 178.342C2.27583 178.594 2.11232 179.134 1.78531 179.17C1.91816 179.747 1.6218 180.9 1.94882 181.224C2.23495 180.251 1.60136 180.251 2.04079 179.116L2.3678 179.441C2.34736 180.233 2.50065 181.242 2.38824 181.783C2.44956 181.675 2.54153 181.621 2.60285 181.693C2.71526 182.81 3.04227 183.152 2.94008 184.233C2.64372 184.377 2.69482 183.728 2.67438 183.26C2.42912 183.963 2.65394 183.999 2.55175 185.08C2.28605 185.134 2.57219 184.341 2.31671 184.215L2.38824 185.422C2.38824 185.422 2.35758 185.422 2.33715 185.422C2.77657 185.602 2.29627 186.341 2.4189 187.079C2.40868 188.827 2.99118 189.115 3.33863 190.088C3.216 190.34 3.10359 190.43 3.0014 190.304C3.19556 189.872 3.04227 189.944 2.92986 189.8C2.97074 190.394 2.49043 191.079 2.31671 190.755C2.43934 191.692 2.55175 190.412 2.6846 190.989L2.64372 192.268C2.86855 192.124 2.91964 191.674 3.08315 192.34C3.14446 192.899 3.09337 193.169 3.08315 193.908C2.97074 193.799 2.74591 194.142 2.75613 193.583C2.67438 193.944 2.65394 194.484 2.86855 194.7C3.07293 193.908 3.05249 196.015 3.39994 195.421L3.19556 196.214C3.19556 196.033 3.05249 196.015 3.09337 195.745C2.75613 195.961 3.18534 196.412 3.216 196.682C3.14446 196.97 3.11381 197.691 2.98096 197.763C3.07293 198.015 2.99118 198.646 2.81745 198.754C2.87876 199.132 3.04227 198.79 3.14446 198.898L3.10359 200.177C2.91964 200.249 2.39846 200.339 2.32693 200.141C2.50065 200.628 2.87876 200.321 2.85833 201.06C2.50065 200.628 2.57219 202.033 2.14298 201.402C1.87728 201.817 1.87728 203.024 1.96925 203.672C2.25539 204.087 2.13276 202.952 2.42912 203.006C2.52109 204.861 3.33863 204.987 3.18534 206.357L3.26709 205.996C3.4306 206.843 3.38973 206.753 3.63499 207.257C3.26709 207.023 2.64372 208.212 2.71526 209.6C2.8992 209.726 3.07293 208.825 3.35907 209.059L3.41016 209.996C3.41016 209.996 3.31819 209.96 3.27731 209.834C3.39994 210.663 2.78679 211.365 3.216 211.617L2.67438 212.446L2.90942 212.122C3.09337 212.248 3.13424 213.167 3.20578 213.365C3.39994 214.32 3.24666 214.662 3.0014 215.185C3.15468 215.022 3.50214 214.608 3.55323 215.365C2.96052 215.365 3.32841 216.932 3.01161 216.896C3.01161 217.202 2.82767 217.725 3.07293 217.779L2.70504 217.725C3.22622 217.797 3.19556 218.914 3.27731 219.743C2.58241 219.544 3.32841 220.661 2.6846 221.04C3.1649 221.202 2.86855 222.535 3.26709 222.697C3.28753 223.346 2.84811 223.274 2.69482 223.436L2.86855 223.742C2.64372 224.067 2.60285 225.292 2.44956 226.012L2.86855 226.697L2.67438 226.949C2.77657 227.057 2.83789 227.616 3.0014 227.273L2.97074 227.634C3.4306 227.67 3.09337 228.156 3.28753 228.877C3.216 229.039 3.10359 229.003 3.04227 228.841C3.04227 229.201 2.79701 229.039 2.64372 229.237C2.76635 228.985 3.46126 230.57 3.67586 229.579C3.85981 229.507 3.99266 230.084 3.91091 230.444L3.50214 230.66L3.93134 231.093C3.99266 231.651 3.72696 231.886 3.67586 232.336C3.65543 231.868 2.88898 231.291 2.88898 232.498C2.83789 231.868 2.61306 231.561 2.53131 231.219C2.51087 231.471 2.47 231.597 2.29627 231.201C2.4189 232.138 2.55175 231.525 2.59263 232.444C2.22473 232.39 2.1021 232.642 1.96925 233.453L2.24517 232.858C2.24517 232.858 2.32693 232.93 2.34736 232.985C2.38824 232.75 2.44956 232.696 2.59263 232.642C2.59263 232.822 3.04227 233.723 2.81745 233.867C3.39994 232.948 3.25688 235.507 3.60433 234.912C3.70652 235.02 3.72696 235.669 3.54301 235.741C3.26709 234.966 3.12403 236.318 2.85833 236.191C2.96052 236.48 3.13424 235.579 3.27731 235.975C3.29775 236.444 3.07293 236.768 2.9503 237.02L2.87876 236.822L2.70504 237.525C2.88898 237.651 3.02183 236.84 3.11381 237.489C3.03205 237.669 3.12403 238.317 2.98096 238.299C2.72548 237.975 2.38824 238.209 2.32693 237.651C2.34736 238.119 2.38824 239.596 2.7357 239.002L2.71526 239.56C2.86855 239.218 3.15468 238.245 3.20578 239.362H3.13425L3.41016 240.137L3.216 240.479C3.30797 240.479 3.39994 240.587 3.38973 240.876C3.27731 240.948 3.23644 241.218 3.08315 241.2C3.09337 242.029 3.28753 241.975 3.38973 242.083C3.41016 242.551 3.33863 242.713 3.11381 242.497C3.06271 243.128 3.10359 244.245 2.90942 244.677C3.07293 245.542 2.99118 244.497 3.23644 245.001C2.58241 245.722 2.97074 247.812 3.04227 249.217C3.60433 248.857 3.10359 249.595 3.61455 249.866C3.44082 249.559 3.17512 251.181 3.02183 249.956L3.07293 250.694C2.75613 251.199 2.84811 249.469 2.4189 250.226C2.42912 251.055 3.04227 251.613 2.83789 252.586C2.43934 252.244 2.96052 253.343 2.53131 253.09C2.38824 252.892 2.42912 252.604 2.40868 252.334L2.32693 252.514C2.2043 254.334 2.79701 253.054 3.06271 254.009C3.10359 255.126 2.74591 254.874 2.55175 254.946C2.47 255.126 2.53131 255.685 2.6335 255.973C2.39846 255.288 2.88898 254.73 3.14446 255.036C2.6846 255.523 3.09337 256.694 3.27731 257C3.76784 255.415 3.30797 255.901 3.82915 254.406C3.68608 254.19 3.27731 254.226 3.45104 253.325C3.64521 253.883 3.67586 253.289 3.7474 253.127C3.51236 253.289 3.65543 252.496 3.55323 252.226C3.7474 251.974 4.09485 252.766 4.19704 251.865L3.64521 251.685C3.72696 251.325 4.05398 251.847 3.92113 251.091C4.20726 251.505 4.37077 250.983 4.45252 252.01C4.93283 250.802 4.20726 250.136 4.0131 249.181C4.04376 249.271 4.12551 249.289 4.15617 249.379C4.0131 249.181 4.02332 248.803 3.99266 248.532C4.12551 247.902 4.23792 249.037 4.39121 248.875V247.866C4.39121 247.866 4.41165 247.848 4.42187 247.848C4.35033 247.578 4.29924 247.325 4.44231 247.235C4.61603 247.542 4.79998 247.668 4.94305 247.866L4.56494 246.785C4.74888 246.911 4.88173 245.902 5.01458 246.677L4.94305 245.091L5.32116 244.965C5.25984 244.587 5.18831 244.569 5.13721 245.019C5.22919 244.479 4.50362 242.623 5.22919 242.911C4.93283 241.668 5.05546 241.218 4.87151 239.723C5.20875 240.876 5.31094 238.407 5.46423 239.632C5.62774 238.912 5.22919 238.768 5.16787 238.209C5.33138 237.687 5.68905 237.921 5.83212 238.497L5.66861 237.831H5.74015L5.53576 237.254C5.74015 236.642 5.91387 237.128 5.96497 236.498L5.63795 236.354L5.83212 235.921C5.67883 236.083 5.61752 235.705 5.59708 235.237H5.66861L5.6073 234.678C5.80146 235.237 5.67883 234.174 5.91387 234.426C5.93431 233.939 5.92409 233.939 5.873 233.057L5.64817 233.201C5.45401 232.066 5.98541 233.165 6.00585 232.246L5.75037 232.3C6.18979 230.985 5.51532 230.048 5.80146 229.075C5.86278 229.634 6.15914 229.507 6.0876 229.489C5.99563 228.643 6.07738 227.273 5.7708 226.391C6.14892 226.084 6.26133 226.012 6.43505 225.111C6.41462 224.463 6.38396 224.373 6.15914 224.139C6.31242 223.508 6.09782 222.319 6.37374 222.301C6.15914 222.157 6.42483 221.742 6.24089 221.382L6.3533 221.31L6.09782 221.364C6.68032 220.247 5.78102 219.472 6.29199 218.355L6.36352 218.554L6.26133 218.085C6.37374 218.013 6.44527 218.211 6.58834 218.229L6.64966 216.031L6.45549 216.464C6.43505 215.995 6.17957 215.689 6.34308 215.149C6.73141 216.031 6.36352 214.41 6.65988 214.284L6.76207 214.752C6.74844 214.32 6.65306 214.122 6.47593 214.158C6.39418 213.311 6.97667 213.599 6.70075 212.806L6.68032 213.365C6.52703 213.527 6.31242 213.131 6.32264 212.752C6.36352 212.662 6.47593 212.41 6.50659 212.68C6.41462 212.014 6.54747 211.023 6.44527 210.735C6.52703 210.374 6.71097 210.5 6.78251 210.699C6.55768 209.275 6.8336 210.068 6.619 208.645H6.76207L6.58834 208.176L6.90514 207.492L6.71097 207.744C6.69053 207.275 6.58834 206.987 6.6701 206.447L6.8847 206.663C6.77229 205.348 7.26281 205.15 6.95623 203.906C6.99711 203.816 7.06865 204.015 7.0993 204.123C6.76207 202.97 7.49785 203.258 7.07887 202.087C7.1504 202.159 7.24237 202.033 7.30369 202.087L7.16062 201.564L7.45698 201.618L7.02777 201.186L7.33435 200.862L7.19128 200.646C7.76355 200.087 7.33435 199.294 7.76355 198.52L7.38544 198.646C6.62922 196.682 7.84531 194.196 7.49785 191.836L7.79421 191.89L7.45698 190.917C7.69202 190.394 7.71246 191.241 7.85553 191.079C7.70224 190.034 7.42632 190.647 7.34457 189.422C7.54895 188.809 7.55917 189.638 7.66136 189.926C7.51829 188.791 7.365 187.115 7.53873 186.323C7.49785 186.305 7.44676 186.251 7.42632 186.287C7.29347 185.53 7.43654 184.539 7.42632 183.71C7.55917 183.728 7.57961 183.945 7.61027 184.143C7.6307 183.837 7.72268 183.44 7.58983 183.188L7.84531 183.512C7.8964 182.882 7.67158 181.639 7.97816 181.512C7.86575 181.585 7.64092 181.548 7.66136 181.008C8.11101 180.702 7.47742 179.495 7.7329 178.63C7.83509 178.738 7.85553 179.387 7.86575 179.206C7.98838 178.756 7.77377 178.36 7.64092 177.963L7.82487 178.089L7.58983 176.018C8.03947 175.711 7.53873 174.072 7.86575 174.216C7.88618 173.477 7.66136 174.828 7.62048 173.892C7.81465 173.639 7.52851 173.045 7.82487 173.099L7.85553 173.207L7.83509 172.558L8.12123 172.973C8.05991 172.414 7.77377 172 7.55917 171.964C7.72268 171.441 7.60005 170.685 7.85553 170.451L7.92706 170.649C7.82487 169.153 8.73438 168.199 8.25408 167.009C8.29495 166.919 8.36649 166.937 8.36649 167.118L8.38693 166.199L8.60153 166.415L8.27451 164.884H8.41758C8.4789 163.893 8.41758 162.325 8.37671 161.028L8.44824 161.226C8.22342 159.803 8.60153 159.857 8.44824 158.83C8.48912 158.866 8.49934 158.902 8.50956 158.938V158.001L8.65263 158.218C8.33583 157.515 9.08183 156.254 8.80591 156.668C8.67306 156.272 8.49934 155.605 8.32561 155.479C8.32561 154.47 8.51978 155.227 8.64241 154.614C8.66284 153.876 8.40736 153.75 8.55043 152.759H8.6935C8.67306 152.308 8.57087 152.02 8.55043 151.371L8.62197 151.57C8.31539 150.507 9.06139 150.254 8.4278 149.426C8.55043 148.993 8.45846 148.147 8.75482 148.183C8.57087 146.867 8.48912 145.841 8.37671 144.525C8.86723 144.327 8.34605 144.237 8.63219 143.462L8.37671 143.516C8.35627 141.661 9.0103 139.553 8.90811 137.517L9.17381 137.463L8.88767 137.049C9.02052 134.851 9.14315 132.022 9.15337 130.275C9.02052 129.698 8.71394 128.815 8.80591 127.914L8.83657 128.005C8.6935 126.419 8.59131 124.744 8.75482 123.014C8.86723 123.122 8.93876 122.96 9.0103 123.14C8.72416 122.726 9.0103 122.131 9.0103 121.753L8.81613 122.185C8.57087 121.681 8.81613 120.996 9.00008 120.744L8.72416 119.969C8.72416 119.969 8.79569 119.843 8.83657 119.825L8.70372 119.681L9.05118 119.267C8.97964 119.069 8.89789 118.042 8.57087 117.717C8.68328 117.645 8.77526 116.925 8.83657 117.483L8.94898 114.637L8.82635 115.069C8.57087 115.123 8.40736 114.258 8.52999 113.826C8.73438 114.402 8.89789 113.88 9.09205 113.628C8.94898 113.231 8.85701 113.952 8.71394 113.754C8.54021 113.267 8.45846 112.24 8.58109 111.988L8.68328 112.276C8.59131 111.61 9.04096 111.322 9.03074 110.673C8.82635 110.079 9.02052 109.664 8.57087 109.772C8.4789 108.925 8.87745 109.448 8.91833 109.178C8.70372 108.781 8.84679 107.61 9.08183 107.448C8.4278 106.98 9.32709 105.178 8.77526 104.998L9.09205 104.313C8.94898 104.295 8.61175 104.151 8.56065 103.575C8.72416 103.052 8.97964 103.178 9.13293 103.016L8.58109 102.656C9.18403 99.6111 8.81613 95.5936 9.31688 92.2606C9.20446 90.7652 8.96942 88.8916 9.05118 87.144L9.12271 87.3422L9.28622 85.6126L9.03074 86.8557C8.96942 86.4774 8.86723 86.1891 8.87745 85.8108C9.11249 83.9191 9.40885 81.3968 9.14315 79.0367C8.51978 77.5054 9.70521 78.0458 9.25556 76.5865C9.31688 76.7127 9.39863 76.7667 9.45994 76.8748C9.25556 75.3074 9.15337 74.4606 8.79569 72.8932C9.41907 73.0914 8.7957 71.8843 9.11249 72.0285L8.85701 71.9023C9.0103 71.56 9.07161 70.7313 9.25556 70.8574L8.93876 70.1548L9.20446 70.1007C9.2249 69.1819 9.03074 67.2182 9.56214 66.7497C9.18403 64.4797 9.31688 60.9125 9.42929 58.066C9.21468 57.6696 9.20446 56.8409 9.18403 56.1743L9.50082 55.4897C9.40885 54.8231 9.02052 54.1204 9.2249 53.5079C9.26578 53.5079 9.28622 53.5439 9.30666 53.58C9.24534 52.9134 9.41907 52.2828 9.13293 51.6342C9.15337 50.8955 9.31688 50.1929 9.61323 50.4271C9.09205 50.3551 9.69499 48.8777 9.69499 48.8777C9.69499 48.8777 11.1461 11.188 8.39715 1.94574C8.14166 1.63947 7.98838 0.774693 7.6818 1.09898C7.58983 0.432387 8.03947 0.144129 7.78399 2.36075e-08C7.61026 0.900806 7.12996 -0.288258 6.80295 0.576516L6.74163 0.0180161C6.55768 -0.108097 6.94602 0.792709 6.619 0.648581L7.0993 0.810726C7.02777 1.26113 6.92558 1.51335 6.76207 1.6755C6.94602 2.10789 7.58983 2.39614 7.30369 3.40505L7.27303 3.11679C7.28325 3.94553 6.96645 3.62124 6.8847 3.8014V3.62124L6.64966 4.32387C6.81317 3.8014 6.43505 2.9006 6.45549 3.36902C6.31242 4.3599 6.5679 3.11679 6.62922 3.85545C6.64966 4.32387 6.39418 4.17974 6.25111 4.16172V4.99047C6.04672 4.95443 6.28177 4.43197 6.04672 4.77427L6.27155 5.81921C5.70949 5.99937 6.53725 6.97224 6.00585 7.44066C5.873 6.68398 5.8219 7.51272 5.63795 7.38661L5.65839 9.24227C5.57664 9.42243 5.48467 8.75584 5.51532 9.02608C5.36204 9.36838 5.64817 9.60259 5.64817 9.78275C5.49489 9.9449 5.64817 11.17 5.28028 11.0979C5.0248 12.341 5.75037 11.6384 5.53576 12.7914C5.31094 12.9356 5.48467 11.8546 5.24962 12.3771L5.33138 13.5842C5.21897 13.4761 4.96349 13.3499 5.01458 12.8815C4.69779 16.1424 3.50214 17.89 3.78828 20.8987C3.51236 21.3131 3.61455 20.5924 3.4306 20.2862C3.77806 22.4661 2.82767 23.3309 2.84811 25.1685L3.07293 25.2046C2.3678 27.7628 2.76635 30.8796 2.45978 33.7802L2.61306 33.4379C2.82767 33.8343 2.84811 34.4829 2.94008 34.9693C2.82767 35.0414 2.47 34.609 2.55175 35.4557C2.6335 35.2756 2.71526 34.9333 2.82767 35.0414C2.23495 37.5276 2.35758 42.8063 2.05101 46.914C2.19408 52.463 1.72399 58.4803 1.8364 63.9392C1.82618 63.1105 2.3678 63.4708 2.23495 64.1014C1.29478 65.7949 2.37802 67.074 1.73421 68.8216C2.02035 72.0104 1.19259 74.821 1.8875 77.7936L1.6218 77.8477C1.49917 78.2801 1.68312 78.4062 1.70355 78.8746H1.63202C1.52983 79.9556 1.78531 81.2888 1.66268 81.9193L1.95903 81.9554C1.97947 82.6039 1.72399 82.2977 1.89772 82.9642H1.75465L2.03057 83.7209C1.50939 83.6308 1.97947 85.5586 1.74443 86.081C1.8364 86.9278 2.05101 88.5312 1.9386 89.7924C1.6729 90.0266 1.66268 91.594 1.52983 92.5849C1.58092 94.5306 1.65246 97.3051 1.55027 99.7733L1.8875 99.7373L1.90794 100.386C1.8364 100.386 1.79553 100.458 1.76487 100.368C1.37654 100.854 1.87728 101.863 1.63202 102.368C1.9386 102.043 1.68312 101.917 1.69333 101.539C1.85684 101.016 2.17364 101.539 2.01013 102.242H1.9386L2.11232 102.71C1.84662 102.764 1.72399 103.196 1.46851 103.25C1.51961 105.376 1.95903 106.836 1.82618 109.016C1.54005 108.781 1.8875 110.601 1.38676 110.151C1.5707 111.466 1.79553 109.934 2.1532 110.547C2.14298 110.907 2.27583 111.304 2.09188 111.358C1.96925 111.178 1.78531 111.646 1.73421 111.358L1.76487 112.24C1.76487 112.24 1.65246 112.132 1.6218 112.024C1.90794 113.826 1.27435 115.195 1.56048 116.817C1.74443 116.943 1.61158 116.186 1.79553 116.294C2.16342 117.916 1.45829 117.717 1.71377 119.231L1.45829 118.906C1.63202 119.393 1.84662 119.609 1.64224 120.42C1.34588 120.564 1.39698 119.735 1.26413 119.339C1.24369 119.897 1.31522 121.285 1.59114 120.87C1.68312 121.537 1.41742 121.771 1.33566 122.113C1.4072 122.113 1.54005 121.501 1.6729 121.897C1.49917 122.798 1.49917 124.185 1.46851 125.284C1.39698 125.284 1.28457 125.356 1.24369 125.248C1.63202 126.131 0.95755 126.041 1.0393 127.248L1.01887 127.284Z" fill="var(--fill-0, #D0E957)"/>
<path id="Vector_28" d="M2.24517 185.836L2.29627 185.386C2.23495 185.386 2.1532 185.368 2.08166 185.152L2.24517 185.818V185.836Z" fill="var(--fill-0, #D0E957)"/>
<path id="Vector_29" d="M2.54153 164.827C2.54153 164.827 2.50065 164.721 2.45978 164.667C2.46999 164.774 2.50065 164.81 2.54153 164.827Z" fill="var(--fill-0, #D0E957)"/>
<path id="Vector_30" d="M2.04079 159.713C2.1021 160.073 2.18386 159.749 2.26561 159.569C2.2043 159.569 2.13276 159.569 2.04079 159.713Z" fill="var(--fill-0, #D0E957)"/>
<path id="Vector_31" d="M2.97074 197.743C2.97074 197.743 2.8992 197.619 2.83789 197.637C2.88898 197.743 2.92986 197.761 2.97074 197.743Z" fill="var(--fill-0, #D0E957)"/>
<path id="Vector_32" d="M2.58241 230.64C2.58241 230.64 2.60284 230.569 2.62328 230.516C2.60284 230.534 2.58241 230.587 2.58241 230.64Z" fill="var(--fill-0, #D0E957)"/>
<path id="Vector_33" d="M3.05249 228.841C3.05249 228.841 3.05249 228.643 3.01161 228.462C2.99118 228.625 3.01161 228.733 3.05249 228.841Z" fill="var(--fill-0, #D0E957)"/>
<path id="Vector_34" d="M2.8992 189.782C2.8992 189.656 2.86854 189.548 2.80723 189.44C2.80723 189.62 2.85832 189.728 2.8992 189.782Z" fill="var(--fill-0, #D0E957)"/>
<path id="Vector_35" d="M2.9503 228.084L2.98096 227.634C2.98096 227.634 2.9503 227.634 2.91964 227.634L2.94008 228.102L2.9503 228.084Z" fill="var(--fill-0, #D0E957)"/>
<path id="Vector_36" d="M2.54153 231.237C2.55175 231.057 2.55175 230.823 2.58241 230.66C2.50065 230.895 2.50065 231.075 2.54153 231.237Z" fill="var(--fill-0, #D0E957)"/>
<path id="Vector_37" d="M3.28753 209.831C3.28753 209.831 3.28753 209.795 3.28753 209.777C3.1649 209.422 3.216 209.653 3.28753 209.831Z" fill="var(--fill-0, #D0E957)"/>
<path id="Vector_38" d="M2.44956 226.064C2.44956 226.064 2.44956 226.028 2.45978 226.01L2.37802 225.868L2.44956 226.064Z" fill="var(--fill-0, #D0E957)"/>
<path id="Vector_39" d="M2.4189 233.216C2.4189 233.216 2.39846 233.056 2.3678 232.985C2.35758 233.056 2.34736 233.145 2.33714 233.233C2.37802 233.216 2.39846 233.198 2.42912 233.198L2.4189 233.216Z" fill="var(--fill-0, #D0E957)"/>
<path id="Vector_40" d="M2.78679 216.716C2.8992 216.84 2.97074 216.893 3.03205 216.893C3.03205 216.751 2.98096 216.645 2.78679 216.716Z" fill="var(--fill-0, #D0E957)"/>
</g>
<defs>
<clipPath id="clip0_0_483">
<rect width="11" height="257" fill="white"/>
</clipPath>
</defs>
</svg>
