<svg preserveAspectRatio="none" width="100%" height="100%" overflow="visible" style="display: block;" viewBox="0 0 77 77" fill="none" xmlns="http://www.w3.org/2000/svg">
<g id="Layer_1" clip-path="url(#clip0_0_257)">
<g id="Group">
<path id="Vector" d="M76.9591 0.790412C76.9419 0.383421 76.6167 0.0581417 76.2097 0.0408563C70.9215 -0.194853 66.18 0.589274 61.7166 2.43881C57.6365 4.12963 53.88 6.68001 50.2351 10.2329C46.4709 13.9037 43.115 18.3256 39.7058 23.6888C34.7679 23.7359 30.8449 24.6144 27.3996 26.4466C23.728 28.3983 20.8812 31.3509 18.5795 33.9814C18.3407 34.2549 18.3203 34.6556 18.5293 34.9526C18.7382 35.2496 19.1247 35.3627 19.4625 35.2276C23.9699 33.4252 29.7122 34.1354 32.9109 35.3093C32.6627 35.7603 32.4129 36.2144 32.1615 36.6748C31.9934 36.9812 32.0484 37.3599 32.295 37.6067L33.3288 38.6406L31.6022 40.3676C28.1662 41.367 24.9251 43.3925 21.9621 46.4002C17.816 50.6084 14.3675 56.6316 11.7124 64.3C11.6134 64.5844 11.6872 64.9002 11.8993 65.1124C12.0486 65.2617 12.2497 65.3418 12.4555 65.3418C12.5419 65.3418 12.6283 65.3277 12.7131 65.2978C20.38 62.6421 26.4004 59.1929 30.6093 55.046C33.6147 52.0839 35.6414 48.8406 36.6406 45.4039L38.3672 43.677L39.401 44.7109C39.5518 44.8618 39.7529 44.9404 39.9572 44.9404C40.086 44.9404 40.2148 44.9089 40.3327 44.8445C40.7898 44.5947 41.2423 44.3464 41.6901 44.0997C42.8558 47.299 43.5612 53.0346 41.7639 57.5288C41.6288 57.8667 41.7435 58.2517 42.0388 58.4622C42.1755 58.5581 42.3342 58.6068 42.4929 58.6068C42.6783 58.6068 42.8621 58.5408 43.0098 58.4119C45.6366 56.1114 48.5871 53.2672 50.5384 49.5996C52.3702 46.1566 53.25 42.2407 53.3003 37.3097C58.6703 33.8966 63.0975 30.5369 66.7707 26.7672C70.3229 23.1215 72.8728 19.3643 74.5633 15.2834C76.4124 10.8191 77.1979 6.07659 76.9607 0.78727L76.9591 0.790412Z" fill="var(--fill-0, #212746)"/>
<path id="Vector_2" d="M21.6337 32.971C26.2103 28.2286 30.7852 25.5619 38.7082 25.2838C37.0711 27.9363 35.412 30.8088 33.6792 33.9217C30.5213 32.6929 25.7594 32.1571 21.6337 32.971Z" fill="var(--fill-0, white)"/>
<path id="Vector_3" d="M13.7563 63.2581C19.1875 48.6677 26.5842 43.7854 31.1701 42.159L34.8496 45.8392C33.2251 50.4261 28.3422 57.8242 13.7548 63.2566L13.7563 63.2581Z" fill="var(--fill-0, #6D7BFC)"/>
<path id="Vector_4" d="M34.4377 39.7549L32.7136 41.4794L35.5286 44.2951L37.2528 42.5706L34.4377 39.7549Z" fill="var(--fill-0, white)"/>
<path id="Vector_5" d="M44.0184 55.3603C44.8307 51.2448 44.2981 46.4898 43.0773 43.3328C46.1865 41.6027 49.0553 39.9433 51.7041 38.3091C51.4197 46.2179 48.7552 50.7875 44.0184 55.3603Z" fill="var(--fill-0, white)"/>
<path id="Vector_6" d="M40.0923 43.1883L33.8221 36.9168C42.6091 20.8854 50.8416 7.87898 63.7794 3.32193C65.1887 7.9057 69.0975 11.8153 73.6803 13.2249C69.1258 26.1653 56.1204 34.3994 40.0923 43.1883Z" fill="var(--fill-0, white)"/>
<path id="Vector_7" d="M74.1626 11.7289C70.0433 10.4749 66.5288 6.95971 65.2735 2.83951C68.3669 1.93125 71.7243 1.48968 75.4148 1.58554C75.5106 5.27675 75.0692 8.63482 74.1611 11.7305L74.1626 11.7289Z" fill="var(--fill-0, white)"/>
</g>
<path id="Vector_8" d="M63.0284 13.9744C61.8046 12.7503 60.1769 12.0762 58.4472 12.0762C54.8745 12.0762 51.9665 14.9833 51.9665 18.5582C51.9665 22.1331 54.873 25.0402 58.4472 25.0402C62.0214 25.0402 64.9263 22.1331 64.9263 18.5582C64.9263 16.8265 64.2523 15.1985 63.0284 13.9744ZM58.4472 23.4672C55.7402 23.4672 53.5376 21.2641 53.5376 18.5566C53.5376 15.8491 55.7402 13.646 58.4472 13.646C59.759 13.646 60.9907 14.1567 61.9177 15.0838C62.8446 16.011 63.3552 17.2445 63.3552 18.555C63.3552 21.2626 61.1526 23.4657 58.4472 23.4657V23.4672Z" fill="var(--fill-0, #212746)"/>
<path id="Vector_9" d="M8.02977 53.8753C7.82867 53.8753 7.62757 53.7983 7.47361 53.6459C7.16725 53.3395 7.16725 52.8413 7.47361 52.5349L9.38404 50.6241C9.6904 50.3177 10.1884 50.3177 10.4948 50.6241C10.8011 50.9305 10.8011 51.4287 10.4948 51.7351L8.58436 53.6459C8.43196 53.7999 8.2293 53.8753 8.0282 53.8753H8.02977ZM0.785538 53.6758C0.58444 53.6758 0.383343 53.5988 0.230948 53.4463C-0.0754116 53.1399 -0.0754116 52.6418 0.230948 52.3354L2.14138 50.4245C2.44774 50.1181 2.94577 50.1181 3.25213 50.4245C3.55849 50.731 3.55849 51.2291 3.25213 51.5355L1.3417 53.4463C1.18773 53.6003 0.986636 53.6758 0.785538 53.6758ZM12.4429 49.4597C12.2418 49.4597 12.0407 49.3827 11.8868 49.2303C11.5804 48.9239 11.5804 48.4257 11.8868 48.1193L22.2873 37.7167C22.5936 37.4102 23.0917 37.4102 23.398 37.7167C23.7044 38.0231 23.7044 38.5212 23.398 38.8276L12.9975 49.2303C12.8435 49.3843 12.6424 49.4597 12.4429 49.4597ZM5.19869 49.2601C4.99759 49.2601 4.79649 49.1831 4.6441 49.0307C4.33774 48.7243 4.33774 48.2262 4.6441 47.9197L15.0446 37.5171C15.351 37.2107 15.849 37.2107 16.1554 37.5171C16.4617 37.8235 16.4617 38.3216 16.1554 38.6281L5.75485 49.0307C5.60246 49.1847 5.39979 49.2601 5.20026 49.2601H5.19869Z" fill="var(--fill-0, #6D7BFC)"/>
<path id="Vector_10" d="M24.105 77C23.9039 77 23.7028 76.923 23.5489 76.7706C23.2425 76.4642 23.2425 75.966 23.5489 75.6596L25.4593 73.7488C25.7656 73.4424 26.2637 73.4424 26.57 73.7488C26.8764 74.0552 26.8764 74.5533 26.57 74.8598L24.6596 76.7706C24.5056 76.9246 24.3045 77 24.1034 77H24.105ZM28.5182 72.5844C28.3171 72.5844 28.116 72.5074 27.962 72.355C27.6557 72.0485 27.6557 71.5504 27.962 71.244L38.3625 60.8413C38.6689 60.5349 39.1669 60.5349 39.4733 60.8413C39.7796 61.1478 39.7796 61.6459 39.4733 61.9523L29.0728 72.355C28.9188 72.509 28.7177 72.5844 28.5166 72.5844H28.5182ZM23.9055 69.7543C23.7044 69.7543 23.5033 69.6773 23.3493 69.5249C23.043 69.2184 23.043 68.7203 23.3493 68.4139L25.2598 66.5031C25.5661 66.1966 26.0642 66.1966 26.3705 66.5031C26.6769 66.8095 26.6769 67.3076 26.3705 67.614L24.4601 69.5249C24.3061 69.6789 24.105 69.7543 23.9039 69.7543H23.9055ZM28.3186 65.3387C28.1175 65.3387 27.9165 65.2617 27.7625 65.1092C27.4561 64.8028 27.4561 64.3047 27.7625 63.9983L38.163 53.5956C38.4694 53.2892 38.9674 53.2892 39.2738 53.5956C39.5801 53.902 39.5801 54.4002 39.2738 54.7066L28.8732 65.1092C28.7193 65.2632 28.5182 65.3387 28.3171 65.3387H28.3186Z" fill="var(--fill-0, #6D7BFC)"/>
</g>
<defs>
<clipPath id="clip0_0_257">
<rect width="77" height="77" fill="white"/>
</clipPath>
</defs>
</svg>
